<?xml version="1.0" encoding="utf-8" ?>
<svg baseProfile="full" height="180.0mm" version="1.1" viewBox="0 0 180.0 180.0" width="180.0mm" xmlns="http://www.w3.org/2000/svg" xmlns:ev="http://www.w3.org/2001/xml-events" xmlns:xlink="http://www.w3.org/1999/xlink"><defs /><g id="crack_content"><polygon fill="#000000" fill-opacity="1.0" points="110.61281242547801,94.4814685463386 110.66554947137644,94.39685308096765 110.71734042412218,94.31152140539662 110.76706586899883,94.2310103197935 110.79747872993715,94.14135122834041 110.83059182902436,94.04674866671058 110.86366207448886,93.9531064159277 110.89374822095364,93.85887740953592 110.92285045186131,93.76345950840428 110.95257148529588,93.66718824721585 110.98489523495222,93.57163342140058 111.01771100944495,93.47717125821498 111.04959289313402,93.38293550937708 111.08047964500261,93.28771835836031 111.11133199577897,93.19904206310468 111.117297135419,93.10582613838007 111.12387425339665,93.00595847797614 111.1310360601065,92.90646484645941 111.13657072984527,92.80738149789244 111.14070203437603,92.70753375954584 111.14606096565306,92.60681041350905 111.15369624349421,92.50648321365979 111.16151160429386,92.40628833118974 111.17111796401213,92.30646829293757 111.17998920814725,92.2071339077676 111.1885380157819,92.10701582667988 111.19944416427674,92.00674717459368 111.21143539335512,91.90692173596182 111.22437837668137,91.80800672664533 111.23525829382626,91.70937027345515 111.24514004257794,91.61036177908231 111.25405067155361,91.51153005138453 111.26089046855652,91.41220638191916 111.26812071257378,91.3123073184168 111.27561176360061,91.21289472175947 111.28162213430454,91.1199935273724 111.26241639272632,91.02823435188999 111.24336398989486,90.929625985346 111.2249836812578,90.83113193668359 111.20680448714737,90.7329462067689 111.18810874834865,90.63585116834992 111.16573132714352,90.53942355956745 111.14299704116561,90.44262634117631 111.11824704155177,90.3459849007157 111.09444671100385,90.2488522218642 111.06964249498613,90.15189188372466 111.04610623490044,90.054446976469 111.02221196330963,89.95704149259208 110.99980204476545,89.85924654572375 110.97715196961414,89.76134357363283 110.95651921873086,89.66245688076954 110.9378259845744,89.56352423271298 110.92009548084332,89.46517279618688 110.90127360490551,89.36690904782681 110.88364140058758,89.26797309644269 110.86465992468652,89.16864448567193 110.8413919769852,89.06916723930043 110.82100823647171,88.97098719443487 110.79835595255923,88.87346184158798 110.7774134457128,88.77412559808147 110.7580860099247,88.67544698037781 110.73800365590557,88.56810277928541 110.73834116794247,88.4443089057029 110.76603764680736,88.33301396314884 110.79037205506428,88.23739714208946 110.81299747692677,88.14092513088382 110.83731505252658,88.0439202269935 110.86082768880219,87.9487517727208 110.88320796981915,87.85297932382365 110.90643039764282,87.75533711501187 110.93142073421635,87.65721108752672 110.9577835172052,87.55993950812658 110.98058573889323,87.48311244831167 110.98084122990366,87.40251568222939 110.98427895214935,87.30350456851345 110.9863942126641,87.20550853711394 110.98985188141098,87.12545119998694 110.97062972945767,87.04773967595459 110.94795277677508,86.95217585908263 110.9239591098461,86.85679499905063 110.89979257732918,86.7607488858355 110.87505299269111,86.66472255005904 110.8501803195729,86.56816725658773 110.82522582289627,86.47105993989017 110.80092133616012,86.37342900632541 110.77737344599045,86.27645297130671 110.75306360437932,86.1798765203986 110.72837623114857,86.08210105594844 110.7048881203611,85.98295723852978 110.68362382558897,85.88331465946385 110.66423460590066,85.78420682022042 110.64507996928651,85.68558900140324 110.62630651354593,85.58715734897001 110.6067443169516,85.4887322964735 110.58801699141196,85.38997264255528 110.56408011696851,85.29319168814185 110.5388589930864,85.19683805878294 110.51322844063178,85.10002728439208 110.48831047769549,85.00249779116089 110.46506953664945,84.90426400580327 110.44382554740531,84.80572806555195 110.42390494318622,84.70762123730124 110.40325736472363,84.60977842073898 110.38335968938726,84.51182708718875 110.36251944626062,84.41400288298341 110.34267168218845,84.31590888918475 110.32127078415644,84.21173202322576 110.32671356225799,84.10542195093436 110.33193189267473,84.00528975983298 110.33859261042072,83.90441897566055 110.3481747430452,83.80453078928123 110.35635355448414,83.70289260024863 110.37412473364353,83.60170223705035 110.39298645291903,83.50328136332033 110.41000492970333,83.40504633534283 110.42144983915449,83.30624456855199 110.43049381456059,83.20704916204419 110.43925186388786,83.10682210009995 110.44881665068614,83.00670544558197 110.45787899512146,82.90666751042869 110.46729796372121,82.80681686205246 110.47601623706603,82.70686364332866 110.48505254463943,82.60773965303989 110.49215115204281,82.50806238087456 110.50063695849477,82.40700193946962 110.50981089877479,82.30631941708583 110.51978610504231,82.20483393347445 110.53169822863258,82.10401801795288 110.543431452038,82.00451967950572 110.55560754556306,81.90396121627546 110.5693524272268,81.80346044446739 110.58336780786107,81.7041021755757 110.59740242804554,81.60611389596178 110.61037837783407,81.50882518545095 110.6231077069051,81.41016392377055 110.63621322799932,81.31275912587388 110.65386970682842,81.18923717840285 110.70051318766254,81.07233163228956 110.73760708941833,80.97920460797508 110.77683603418593,80.88520519132987 110.81664586921491,80.792271816428 110.85680554364154,80.70061766776526 110.89583215821109,80.61144089184931 110.93259947904454,80.52352700494805 110.96907971117209,80.43176164976072 111.00860855172493,80.33647132882786 111.04927423715827,80.24362126326648 111.08996233694135,80.15021124476598 111.13337689718864,80.05660197681765 111.17683361952326,79.96492802674116 111.22034826312125,79.87496254889702 111.27773023729358,79.75906332146639 111.36029069769637,79.65936584606874 111.42463846185045,79.58329651208935 111.49075887391183,79.50552202936079 111.55653381160671,79.43047610793339 111.62078230500303,79.3543931201483 111.67401242439935,79.29445798059828 111.71217156681558,79.22648332415635 111.7622675732087,79.1384525739637 111.80393455993598,79.06925767957975 111.82970916010076,78.99412127200249 111.86421521478039,78.89869940933073 111.89811491411099,78.80618575203684 111.92875363652252,78.71574623999334 111.95825898694267,78.62211863166222 111.98802248969574,78.5273679141317 112.01653787111132,78.43255524365222 112.04517144236326,78.33613373882979 112.07363484164334,78.24049671422141 112.10009712767861,78.14766202953439 112.12477442000912,78.05240010835796 112.15079234118124,77.95440765702794 112.17616758626839,77.85813232649153 112.19949313133671,77.76555366632887 112.23231482328822,77.63701894907007 112.29403555138434,77.5171455592573 112.33923673566942,77.42688961139173 112.38582419463293,77.33765795757013 112.42824860415085,77.2525750585434 112.47074737435831,77.1634931929379 112.51757075081741,77.06883921836547 112.56514850270617,76.97820245856059 112.60823606442224,76.8933736584634 112.65147184144021,76.80480703039453 112.69571514745739,76.71707348878958 112.73808712841875,76.6291201202328 112.78271434908491,76.53917623053727 112.82594672086155,76.45186321678736 112.86873078765933,76.36420622359645 112.91396617442706,76.27246399558305 112.96099140947183,76.18210768193127 113.00551164068025,76.09661791305233 113.05056574141615,76.00863099957763 113.09680792631387,75.92176866150898 113.14076519440673,75.83744894477218 113.18506390127139,75.75215380824989 113.23142846813604,75.6621165443972 113.28226592400323,75.56932122336005 113.33239786254147,75.48300908719148 113.37938848469888,75.40149200187864 113.4280532085234,75.31449208747566 113.48020596798364,75.22628451905308 113.51523123707696,75.17994214825781 113.53292655458694,75.1232669461811 113.5629901457476,75.02868107122288 113.59172233332353,74.93660142924863 113.62080435311638,74.84196746358556 113.65137163774767,74.74327028684155 113.68480373039151,74.64471018107523 113.71879735791099,74.54913326313103 113.75324440622053,74.45474947468645 113.79204331562747,74.34329112895347 113.84850571634925,74.23703900904117 113.9018132909895,74.14790650693416 113.95496063989171,74.0625357113044 114.00722897934077,73.97543442788282 114.06264691534416,73.8874924014647 114.11868722080821,73.80191322845118 114.17401163079728,73.71836313847653 114.22711133324141,73.63318102470927 114.28088236712121,73.5472916155819 114.32442271654394,73.4643182092667 114.33378630598939,73.37134747899874 114.34410848876153,73.27208210177947 114.35376829608208,73.17278525802534 114.36310673936404,73.07403957275676 114.36948524737353,72.97509151228061 114.37550779053576,72.87545329723369 114.38120255398613,72.77608343178561 114.38533356265525,72.67707334182441 114.38742301822157,72.5778771347786 114.38845864808434,72.47849393879379 114.38812136985884,72.37841629215987 114.38981900370834,72.28453398234086 114.36634926466607,72.19368103453795 114.34199840805192,72.08960383125503 114.34453793070135,71.9836683205169 114.34508458544842,71.88417568183938 114.34585801325618,71.78427734077353 114.34601600135035,71.68475943446946 114.34486530711796,71.58513280415481 114.34355568062837,71.48508459675165 114.34263530845247,71.38550538122948 114.33966300644826,71.2856664906462 114.33825967761885,71.18511818338615 114.33751452437036,71.08479532587741 114.33742294955758,70.98484269198501 114.33649394836401,70.88519765316526 114.3350032667533,70.7854544381167 114.33308638745557,70.68531997728675 114.33219932799243,70.58492628631299 114.33187429851174,70.48454655408304 114.33251480709129,70.38411457799373 114.33413249453996,70.28919799499224 114.31526209237916,70.19597263970975 114.29708334562206,70.09700281294522 114.27989201821066,69.9979162773916 114.26394135164087,69.89842194123841 114.24979043627695,69.79888297539965 114.2359669786655,69.69883708086829 114.22576168802925,69.5985600525994 114.21521310316872,69.49901748258465 114.20552296891216,69.39976822265837 114.1935950547386,69.2943987150582 114.20859085793782,69.18879532594487 114.22355160009401,69.09014155073706 114.23711492796251,68.99126620554382 114.25133295209157,68.89219586586502 114.26522119045659,68.79346852686959 114.27820166416639,68.69457718974262 114.29114732285244,68.59505374557124 114.30564100816123,68.49578455028275 114.3204817426461,68.39313718701574 114.3502587983886,68.29420296754239 114.377412144932,68.19799064823385 114.4063194493037,68.10200687878772 114.43440401791554,68.00606263055116 114.46320651551716,67.91001720515375 114.4923514181722,67.81431334458364 114.52116465747908,67.71883479753711 114.54914644383386,67.62327906899303 114.57638849206135,67.52702982689603 114.60463303654434,67.4310056961214 114.63213596372195,67.33517958731622 114.65898883212557,67.23960482487337 114.68525212350421,67.13813430326006 114.73237735975627,67.0439830708503 114.77756269570945,66.95336657755917 114.82793420835239,66.86477384865873 114.87948145169138,66.77854908096137 114.93053707050441,66.69249421426072 114.98227477165831,66.60643157287475 115.03484602762582,66.52109650687095 115.08710469297259,66.43594090204276 115.13918601171034,66.35073385223595 115.19091219690489,66.26540391592577 115.24216495282867,66.17989923796164 115.2927995914501,66.09397590862247 115.34312706008706,66.007945722627 115.39249162588362,65.92158996465524 115.44125355219515,65.83402652690248 115.49186108310452,65.74731316550591 115.54158687473169,65.66129530560852 115.58947000959533,65.57417349411344 115.63741504951511,65.48654710879214 115.68519331196067,65.39867096951266 115.73683787913433,65.30539523511644 115.81037025067924,65.22794439556932 115.88071719376474,65.15601201553895 115.95180735369654,65.08528447723356 116.0225829495826,65.0145199367984 116.0939346814364,64.94400925660558 116.16557954551097,64.8741502741998 116.23684868762601,64.80409359001413 116.30813690470578,64.73422708635317 116.37880230325364,64.66373615120052 116.44951339658549,64.59338931434321 116.51922026297446,64.52241224380555 116.58836338548767,64.45071632506723 116.65710839382469,64.3784678800677 116.72616586992362,64.30529262998287 116.79744769203552,64.23397432128225 116.86889988452491,64.16314415980503 116.9415823869314,64.09389179250269 117.01340454681736,64.024893947448 117.08444536787454,63.95497641271152 117.15568875164371,63.88473430784556 117.22722196689797,63.81460257667513 117.29890063354944,63.744926072481114 117.36993318940044,63.6750803840724 117.44098609164419,63.6038857314978 117.5145452336578,63.53485205552026 117.58737737974815,63.46682831104629 117.6589255816746,63.39782541790019 117.73006158540952,63.32811834580366 117.80044850178436,63.25801024706933 117.86970220265859,63.186494367589454 117.93949826141828,63.11443655755064 118.01016815361331,63.043296595568854 118.08068359217597,62.97208160772939 118.15211110770225,62.90143311602449 118.22401773585115,62.83146070059297 118.29598421106304,62.76215150171179 118.3672712571106,62.69230632800775 118.43892447013208,62.622189936603455 118.51123457301193,62.552757697019146 118.58328774987432,62.4836332512395 118.65495188364038,62.41398574961294 118.72693430578464,62.34455509701594 118.7981559430895,62.275401292999305 118.86740630663851,62.20459028060248 118.93612025348116,62.13256265059704 119.00460840576798,62.05994808415084 119.0726042383829,61.98763064150029 119.13882698071515,61.91313410191613 119.20615492487049,61.83963564294565 119.27137153817024,61.7643200498824 119.33847555403541,61.688838276088774 119.40707804540462,61.61572227005497 119.47403040021183,61.54196816825574 119.54133521493561,61.46796263986082 119.60867012850578,61.393990708468024 119.67574606186939,61.32041264999565 119.74176145640271,61.245297229559284 119.80940267344964,61.17110365623349 119.87662428195874,61.09703580190977 119.94391257094922,61.02337562466237 120.01017844871164,60.94898016083062 120.07604369106393,60.874695972937424 120.1399571810542,60.7986304059959 120.20453370833333,60.72187833777311 120.2700582797264,60.64580261248634 120.3359325104529,60.57002879496142 120.40249782461767,60.49522801279875 120.46820418810132,60.420438588269526 120.53299628473818,60.344954995813374 120.59693966648442,60.269031818908715 120.65914632403599,60.19208164037366 120.72013966174237,60.11314968380926 120.78274415952262,60.03411790467546 120.84683213132652,59.956596786421706 120.91076263103479,59.87964045813367 120.9746105777046,59.80270834476904 121.03899872467025,59.72505903497079 121.10573235580232,59.65012450024157 121.16967830674872,59.57511827526815 121.2316282594231,59.49695148030439 121.29624431133504,59.41952215659561 121.36101671762209,59.34326990341238 121.42502480740544,59.26688152862485 121.48855936067856,59.1899944921086 121.55202139394893,59.11264373578363 121.61583496928428,59.035751312085075 121.67864293291584,58.9587169221592 121.74042979792716,58.880479313037405 121.80284806930038,58.80197428247221 121.86596928171579,58.723959368050764 121.92950087796581,58.6463260216931 121.99383544616083,58.56883668614185 122.0596501102059,58.49294543076017 122.12467984105018,58.417449928934296 122.1910135148221,58.338861125588835 122.26676946012812,58.268717836605305 122.3404951449792,58.20127648765875 122.41332406731769,58.13353250759791 122.4853247417938,58.06478070435421 122.55751610819773,57.99518525580826 122.63041143116433,57.927102409387494 122.70101165141921,57.857629184719244 122.77145764775403,57.786631564220116 122.84331898829448,57.716016645605514 122.91594642850269,57.647082110112436 122.99148380660621,57.5740448482904 123.08029107598156,57.51852632692113 123.16343664479221,57.46385784814073 123.24722359608701,57.40948081600379 123.32981621293088,57.354640572901275 123.41143800839805,57.29758715667325 123.4945721898642,57.24037998798989 123.57909088040769,57.18579403613628 123.66225237310366,57.13152284845496 123.74399572371648,57.075445538709 123.82586382600581,57.01785387795007 123.90899850011087,56.96129123959572 123.99246371327719,56.90528969697731 124.07609874534597,56.85086099377503 124.15794026795994,56.794924461759614 124.23984988696762,56.73746744072885 124.32275117489483,56.6810627651073 124.4050930420445,56.62461999125587 124.48718047674164,56.56794891551154 124.56897530097224,56.51066762032598 124.65100203481045,56.453345562442635 124.7327431948325,56.3964499280145 124.81337631222759,56.338121885723055 124.89410382068473,56.279588537883015 124.97418708649847,56.22025780522619 125.04983049788689,56.164280595557905 125.10998495393108,56.091858667961404 125.17381486487544,56.015366934540666 125.23660106342133,55.93800200666269 125.29923770746596,55.86068400003005 125.36019365115983,55.78246459422645 125.42018922422037,55.70313143165303 125.47998800104207,55.62291348325807 125.54076746691265,55.54290577794459 125.60211751649672,55.46379324281962 125.65974126895581,55.389159178138044 125.69883628318092,55.30333844330341 125.74024083916466,55.21208335661885 125.78299273971919,55.12106221582913 125.82674803747476,55.03011763866226 125.87293999819867,54.9405151165447 125.91924446594622,54.851728447515704 125.96564011610403,54.76292911417851 126.01287775020766,54.6740066535875 126.06196597444435,54.58605599378388 126.11127064407445,54.49938144046375 126.15735441898254,54.41173127566199 126.19942332958874,54.32094281602415 126.24378235964157,54.23111248685526 126.28807265944586,54.1407727739624 126.33591119527372,54.05186000730579 126.38440469986436,53.9637571899819 126.43473011241456,53.8774399835113 126.48345495524832,53.79189679298584 126.53107674980288,53.70407611822023 126.58177447806453,53.61782156160002 126.63031301322314,53.53168047148106 126.67899874310842,53.44421363324044 126.72952685836489,53.357045463863564 126.77730157163296,53.26855870514073 126.82600729707859,53.18075557283956 126.87487733957151,53.093666026337544 126.92284948209696,53.006067769372144 126.97130189604589,52.91869163149532 127.01890455882133,52.83102948885621 127.0662325124445,52.74366411116002 127.11141754709547,52.655125052101994 127.15715819835711,52.56564438354454 127.20477807552483,52.476723483999784 127.25336301682812,52.38931058126387 127.30068650063669,52.30101253380101 127.3503098889296,52.213222165381 127.4004568980992,52.12679800088041 127.45277320680582,52.03441842183479 127.52778354858866,51.9569471215206 127.60216401000375,51.88826606489248 127.67479252776066,51.82086980306246 127.74508573393196,51.75102150966345 127.81555070097826,51.680712987262446 127.8851772186496,51.608954814413764 127.95609001583976,51.53811286848145 128.02894590669635,51.464618226280486 128.1117831494934,51.4020910071157 128.19232289465188,51.34219453022014 128.2737069330526,51.28279895140707 128.35617201757495,51.22524183930422 128.43826990948125,51.16812034498366 128.5199214563776,51.11120796361919 128.60025494268135,51.05303629137333 128.679955686265,50.993521698844226 128.758981925898,50.933707542136844 128.8358511780968,50.871928799009204 128.91150078507061,50.80778569975691 128.98740743313812,50.74258574874944 129.06385125757785,50.67811149631152 129.13958289350703,50.61307638547958 129.21556637416484,50.548069889487685 129.29152196836148,50.48282588637901 129.3678535095786,50.41820637143066 129.4438079052706,50.35302119935866 129.5204602024904,50.2886062429563 129.59642176417253,50.224067343932255 129.6715296783123,50.15927955199113 129.74557730825035,50.092116515229705 129.82138830604893,50.02655381153549 129.89578855314855,49.960299656316494 129.9704076849765,49.89378481406521 130.0501186571128,49.82315466512647 130.14525226441916,49.77467584142697 130.23529159670753,49.73035327045115 130.33136033083895,49.684066630327656 130.43590373273764,49.66339519078916 130.5341642177568,49.64453995312934 130.6329724802723,49.625635872421405 130.73222295566518,49.609047682936094 130.83088649654837,49.59272184519604 130.92973476206234,49.57622584365315 131.02816564480779,49.56081126538759 131.12565889744397,49.54305301454406 131.22328820307723,49.524127079151675 131.32100858891621,49.504086443610724 131.41897369860465,49.484094172473405 131.51690398563082,49.4639469868605 131.61447125690776,49.44396152071535 131.71154780944292,49.42233577236944 131.80891267454373,49.40017264933759 131.9063527226774,49.377875746260784 132.0038024003314,49.355523502938276 132.1010715094136,49.33318546648404 132.1977010682165,49.31021280747171 132.2935218051554,49.285457307371466 132.3956404045023,49.257113446665585 132.50266998969107,49.25222911638196 132.6032056269108,49.24954036293657 132.70311600301721,49.2464851358226 132.8027994314962,49.24297200776789 132.90291844940688,49.23833624857314 133.0031553473975,49.23455367106 133.1030303032595,49.229846396364394 133.20202160225418,49.22489585425292 133.3006235019421,49.216887479403674 133.40040740647177,49.208037972736314 133.49974908992246,49.198954791339645 133.59853688745616,49.1881663934117 133.69839102705893,49.17624196765891 133.79903392779562,49.16463738057755 133.8999607499602,49.153084734755794 134.00103473548327,49.14207276618434 134.10056126165495,49.13107540720721 134.1990130239824,49.11840330606516 134.30110253202776,49.10446633216464 134.40253942285756,49.09322034542687 134.50042018939254,49.079764257412776 134.60321721763697,49.065275756261656 134.70750271876454,49.05349828929829 134.8105498203587,49.04177457462193 134.91342423225254,49.03134251153622 135.01538005065166,49.02063424054638 135.08290674639008,49.01062706795544 135.14382861115712,48.98097415965305 135.23753543700727,48.94669965100904 135.3279607477716,48.912145705212765 135.41652407861093,48.875785799073185 135.50641907237514,48.83777726785859 135.59513383074892,48.799160137050684 135.68749877621747,48.75801426522819 135.78742080806012,48.71654833510707 135.8843826295327,48.6779579268133 135.9776117145343,48.639937732141235 136.07336330444843,48.60177817807586 136.1635451931502,48.565829136554136 136.24876921172353,48.52912163246353 136.33997938868768,48.49025863459671 136.42802248856316,48.45307302998887 136.51252788702533,48.4149780395285 136.60844087099522,48.37357902191171 136.7042960173434,48.3349237960585 136.79175368770007,48.29815145206932 136.88207514873426,48.2602902858114 136.9690548118535,48.22421296788729 137.063968944183,48.18429639102851 137.16394404303728,48.146776599551764 137.2533223124294,48.11218897296983 137.3441003988722,48.07739855419183 137.43606865854855,48.04264734564662 137.53268329716204,48.00707226462289 137.62789230208557,47.97378197940234 137.717020120581,47.94217700899856 137.8046757164466,47.91091713388606 137.89798826003766,47.87729082735719 137.99821588412362,47.84320806093692 138.08681838547773,47.814125068852576 138.18000078700925,47.78133073669618 138.2808464368879,47.74911804116104 138.37119381442838,47.719997470160806 138.46856131087458,47.68818230756709 138.57033088169447,47.65701180013449 138.67428104751303,47.62588500788522 138.7830604248309,47.596023015210996 138.8808974678225,47.5710253262369 138.96636201559258,47.548193449365726 139.05486115276125,47.522481868717946 139.14293810665043,47.496734125408466 139.23851256709037,47.46626688642228 139.34329384576097,47.435245540410484 139.36868306369715,47.43236806491291 139.39267214852399,47.413800292267545 139.479886469127,47.366363524116544 139.55151195139797,47.32497294997077 139.6223929337758,47.280495511843775 139.7024966277443,47.22793018196233 139.78304345470403,47.17514741313536 139.8632272438155,47.120045072889184 139.95219845324044,47.05967432982521 140.03694759693195,47.002869634938904 140.1120941596825,46.950442917682544 140.18718215723766,46.895453914122236 140.2659218409908,46.8369384088994 140.34665758273007,46.77609624467806 140.43189030118046,46.71214712100452 140.5170847928377,46.64906601328167 140.60058204530276,46.58671725472567 140.68150349295692,46.52618112230209 140.7575055719871,46.467379402692984 140.82929756307976,46.409970491223675 140.9045108739231,46.34784323226996 140.98945753477324,46.27991127014683 141.06575336572476,46.21848484268632 141.05141231664626,46.2219774995654 141.03221947690443,46.21468347958679 141.08816942366843,46.13302411842893 141.07612663516963,46.13842348843325 141.0543141084409,46.13690649007414 141.08992241301925,46.038025771924644 141.12095155603748,45.94875111432478 141.1520068818865,45.855500964592736 141.1856421116693,45.75974086486589 141.209638917762,45.681709691817694 141.23096367263193,45.6031522572597 141.2586964431653,45.50868441937473 141.2894339953482,45.40929593956904 141.31491907184724,45.32283654829479 141.3402726558891,45.23176431883503 141.37050640196267,45.132894363646734 141.40248282592464,45.02972365887652 141.4417440264099,44.91636822009571 141.47689171435505,44.81779318086895 141.50580886914716,44.73125596763064 141.5362203103244,44.64086403833146 141.56874898713872,44.54638553544292 141.60590520296287,44.44318135121892 141.64470325510078,44.341561846840975 141.63546662586802,44.35859870577313 141.6177766241359,44.374775644750045 141.63213276405827,44.279310480854676 141.6473722901388,44.17910774822586 141.66459184443727,44.07547690455301 141.6819624077744,43.9733596775528 141.69677257675437,43.88661062978804 141.70843538126775,43.80410556401368 141.72384267701048,43.70348493674319 141.73997844432492,43.60351891628164 141.75535213177116,43.50625213497628 141.76893836901291,43.419488969583135 141.78004696723704,43.335133358734886 141.79479880550585,43.22936623304128 141.8136111869393,43.11111731871901 141.8339752418644,42.996028707974325 141.85309752382975,42.89181642308562 141.87052324865166,42.79481116109976 141.88701683529175,42.70024994930382 141.90717570901052,42.58641890735984 141.93048721011283,42.47260898702724 141.94749508472293,42.38259636364322 141.961575190079,42.29965787046938 141.97566901420942,42.20861995525963 141.99064545591872,42.1134269525389 142.00211258548333,42.02938902258067 142.0128382599462,41.93962109345716 142.02303254783178,41.85153985777232 142.02922357562144,41.77429841560731 142.03490765399138,41.688841358703016 142.0402175779735,41.60072406850062 142.0462110626774,41.49635672254574 142.05536743303495,41.382721713408365 142.06347721103484,41.27581088311734 142.07333336359628,41.16287065339036 142.0819439237928,41.06307286568048 142.08840043064825,40.968120936747724 142.09708800818265,40.86129852992799 142.10454151713327,40.76548660399306 142.10860432157105,40.68214763765524 142.11046262069195,40.60753165713653 142.11051142133016,40.53047466425984 142.1102726487239,40.45327596218969 142.10861067768147,40.3692317130325 142.10947626504452,40.26277955388016 142.11090604873462,40.16160217804136 142.1134637187951,40.04689651975884 142.1182919089407,39.941256834303175 142.13549595332915,39.741752389326194 142.18153710710257,39.52595388954708 142.20204034960145,39.4301617587716 142.2172723722776,39.35198614686577 142.23711423952645,39.25276937384954 142.25975819537615,39.15264619110994 142.32375058770197,38.91820399444092 142.42266457950373,38.694888143134975 142.460790415268,38.612534688099366 142.5051635479294,38.51910174467472 142.57740705787037,38.37428217604161 142.6520240717709,38.24852237693528 142.69988033244755,38.16930637824138 142.75743990884177,38.07629763704835 142.81108207446619,37.99351649482392 142.86275510699267,37.91420980001937 142.9232277693828,37.821907382718045 142.98378845502276,37.73394943905667 143.0444962758951,37.64692750362972 143.1148465978667,37.54806292559619 143.17895101045457,37.46484002605698 143.2405844690526,37.38490545087469 143.30586229488244,37.302967920168996 143.3674667484873,37.22706762201965 143.43439879545025,37.14430882819758 143.505309850584,37.05768095738964 143.5718874483071,36.98093008825513 143.6242486892306,36.92602068348366 143.67408801460383,36.87137132962651 143.73350108950456,36.799062464118954 143.79322718666793,36.72710564188302 143.8540004808951,36.65107513111302 143.91715688029305,36.57263866323922 143.9786699047898,36.49562965960558 144.04019603066712,36.419453564859644 144.09220677673454,36.358807829428386 144.14728847481516,36.286733240002256 144.21962036818462,36.18374047694537 144.29726091951667,36.07915111126891 144.36893083915228,35.988795325613275 144.4345757769964,35.909619277423054 144.49668697291622,35.83463377967735 144.5633895308011,35.75074641973796 144.63441836985734,35.661669991272404 144.69751537695765,35.586709357138695 144.75765371408718,35.51229304754427 144.81829801407986,35.43736813093387 144.87301437533418,35.36821974300305 144.93477281270685,35.28417640969144 144.96237702320875,35.265051370601626 144.974094485378,35.25439774943253 145.01145727611168,35.18283538553765 145.0473181407108,35.107393412262304 145.0891778115913,35.009953923404076 145.1348856841401,34.90726688059216 145.17447125151347,34.82072205475689 145.21306513712952,34.73131214824257 145.25615151976328,34.630377777046746 145.2958698067575,34.541276412975805 145.32963773850418,34.46185997340865 145.3647282762857,34.3743093470324 145.4026690691731,34.277037452336735 145.44084127552688,34.181664660373215 145.47526544448053,34.094748670881515 145.50711035327527,34.01197008420351 145.53740058882317,33.92867456501251 145.5669174605968,33.84455901600171 145.59448865891423,33.76199670094015 145.62151659585,33.67629318368813 145.64962279363868,33.583591086335204 145.67709159850446,33.49417464710062 145.70233919380942,33.40745238491623 145.72730081591757,33.320277365766756 145.75340773081268,33.222149616955214 145.78366683077272,33.116146348882886 145.81526373117993,33.00838713577107 145.8483629653392,32.90619738988831 145.87856861250336,32.81312958707688 145.9100238003307,32.71717190081202 145.9388323365335,32.6326535821316 145.96297090235888,32.55791995857188 145.98708462546904,32.47458629146506 146.01291016585785,32.38164174596103 146.0400635927423,32.2826867279419 146.0676011667703,32.18741910440746 146.09332972644665,32.09678588259458 146.12076933845364,31.996624680701217 146.15295285160198,31.882486110333062 146.18826644334746,31.772831923546093 146.22306856091495,31.668867974779015 146.258085586825,31.572766128545172 146.2920123588483,31.475227263960154 146.33273183813102,31.36280189006499 146.37466134554717,31.258348837771948 146.41393909425898,31.163682402946712 146.4525345659704,31.07157550610365 146.49044067484994,30.979942969271928 146.52680609983207,30.892682113372377 146.5610047958558,30.80583222674472 146.59594421295031,30.714527939366548 146.63173998941843,30.617656626218498 146.6696671476662,30.517418307436547 146.70736543560116,30.419388238521332 146.74382621826447,30.326277908124908 146.77737350597377,30.23814407660295 146.80965937950597,30.148890573028677 146.8242406590305,30.133566182802426 146.82340564909288,30.115437182093295 146.82854374932472,30.01497370001048 146.83428168290763,29.909952459595466 146.84004516211945,29.807188214583633 146.8456729839663,29.701373780602697 146.85220899059624,29.658645273458266 146.84241663479963,29.61425259445576 146.82782799188487,29.504001166937083 146.81415104114816,29.39333819648706 146.80306184076971,29.28624574180045 146.79269335182062,29.191969526406854 146.77998214733336,29.09613226908224 146.76680548956807,28.994121271686407 146.75336184499338,28.889823159674634 146.74112034884513,28.78732233804153 146.72849531741238,28.6874354353926 146.7157902219183,28.583461875510146 146.70407226067863,28.481429596971374 146.69270717940697,28.387936096243152 146.6794776234572,28.293427079729916 146.6652228106141,28.184236466582604 146.65417061075368,28.076348477522465 146.64300536333522,27.96794341132736 146.6349894933539,27.853289642257334 146.62914809999694,27.74686407485819 146.62412020209112,27.643437118711354 146.62005865898686,27.54130119899311 146.61645367858674,27.432571363494652 146.6160362936649,27.322110969150163 146.61657204059892,27.219266068497312 146.61773343704627,27.124954566650548 146.61753463091677,27.029138949977007 146.61880961872794,26.9257104944594 146.62101695429212,26.822824793044575 146.62456542250888,26.71748730942432 146.6298840935589,26.612026275629503 146.63624363504553,26.515647622927656 146.64152452359951,26.42495694963159 146.6465770815308,26.333072322332214 146.65114868252806,26.245991459867664 146.65376069401574,26.137775078210527 146.6624723502289,26.02121310575144 146.67185135256761,25.91658952658171 146.68323582812943,25.81663491016417 146.69374651729038,25.720980203853667 146.70496915251593,25.6254386898631 146.7153011327134,25.534103748147928 146.72490298982078,25.43970643110362 146.73448905017955,25.337255873779494 146.74584749294104,25.24036237366635 146.75519086977374,25.14436337813158 146.765818073671,25.045617277040634 146.77539350536645,24.954137939667564 146.7834824840443,24.860586701534373 146.79076881778013,24.76308105437295 146.79768382251098,24.662562532882653 146.80470903783572,24.556714171241186 146.81359884277595,24.45077918310585 146.8229689201876,24.349634574486966 146.83208545007759,24.2486806088743 146.84139200532408,24.149904329890717 146.84923928361363,24.045832909210656 146.85958249582754,23.943094248030203 146.8680253816361,23.847728357128645 146.87524222094603,23.74782970333125 146.88250956616818,23.648325266661626 146.88842714585294,23.552070639101508 146.8925298972731,23.452579763075523 146.89665902757946,23.349669021976165 146.9009281393517,23.24948922655712 146.90396035815493,23.152897030074904 146.90509724020905,23.057271419400216 146.9044491478034,22.963411502961996 146.90076312494796,22.868303626858907 146.89593845523842,22.773221755495868 146.88760050741456,22.67323687441383 146.8807767960532,22.569297582931526 146.87360720696503,22.469884407510246 146.86558934093148,22.369519828980202 146.85731303047834,22.267057961084724 146.84948684961088,22.162433063830697 146.84347678775217,22.066262218739023 146.8333274231659,21.973936204145847 146.82208528776468,21.877241478166216 146.80878651673052,21.77728782531555 146.79643788600205,21.67254598000643 146.78559153977295,21.57227812945371 146.77388067953123,21.47640128233922 146.76065658301553,21.377881443161748 146.74725423699286,21.271421737766328 146.73675919177964,21.144216891913178 146.73988685459273,21.020855050835156 146.74321632659868,20.919201747989096 146.7463157790076,20.819890585018474 146.74940913136115,20.71748800407533 146.7542532139239,20.614396303748613 146.7592504616458,20.512728493731984 146.76488105611566,20.415185835742097 146.76846651125567,20.32162048910659 146.77159796279687,20.220488516975998 146.77716629013744,20.115834553312148 146.7832865137513,20.01542174275415 146.78959342269056,19.913806093272193 146.7975725455816,19.810612430216377 146.80685009810583,19.70455333076794 146.81918633735995,19.59883237759646 146.83146412284387,19.50129178321527 146.84247972986105,19.405814837130055 146.8536513310476,19.30788921892654 146.86544069419529,19.206017466540587 146.87895244309954,19.104825511805117 146.89237500896058,19.003600810498103 146.9073215388608,18.904255174420623 146.9210881868923,18.806436974385065 146.9363100310558,18.70412830134245 146.95240317936256,18.60490890467214 146.9676284002294,18.507105500744267 146.98341078103738,18.408351336931176 146.99942157319003,18.30619694275067 147.02308773704894,18.175192668169796 147.0632368307056,18.050710414765927 147.09673927988518,17.954086807723865 147.1295188745632,17.860311879103 147.1613239080642,17.767058842737377 147.1930144248606,17.67309754803286 147.22475654423155,17.577229269740155 147.25667042886818,17.482696407471494 147.28557496467053,17.3937551706528 147.31219895237598,17.3028555522906 147.3391098155886,17.208640723636737 147.364288442907,17.116511891010816 147.3880002623871,17.02208229398782 147.40432142900463,16.964747975678964 147.40764569858362,16.856721760394873 147.4635194506899,16.666756032907326 147.53802237430406,16.536894740465968 147.58811168510266,16.4521635210324 147.63767115962136,16.365353375738596 147.68886139269907,16.277141219531227 147.73841388766857,16.1907044466707 147.78661777546054,16.105411436737278 147.83471931609625,16.017896997821005 147.88301701328857,15.930937048502651 147.9298762416333,15.843709568998172 147.978344259607,15.754390920505733 148.02795094435612,15.663243904918515 148.07811847964228,15.573856708020632 148.12271578461724,15.49244742729692 148.16489149170008,15.409368335803341 148.2088792990267,15.322867872615411 148.25162153994026,15.236362377852359 148.29557856551378,15.147012554581735 148.34164761732413,15.054775000067535 148.38894452318155,14.963082747428412 148.43704399122288,14.871173149012368 148.48530950990747,14.782272221164394 148.5289607995753,14.700428196503168 148.57038713372134,14.619189529413024 148.6123616528316,14.535275264138368 148.65225087027196,14.454442192154328 148.68954668575375,14.374096750225199 148.7340304557484,14.27669978172461 148.78719451259764,14.174504156878823 148.8399195847164,14.078781602512485 148.8925070024348,13.98964995379978 148.94326477162872,13.903813971006114 148.9960832027183,13.817406727302362 149.04657062921035,13.736519961077283 149.09523989176003,13.657100632754576 149.14604636477918,13.573342745235113 149.19804032196194,13.489626951289283 149.24993319658589,13.406022795669143 149.30498696934185,13.31847954855851 149.35965720573552,13.236174381591178 149.41060633361053,13.158429995935588 149.4650920349434,13.072389273270437 149.5259510564811,12.980381257879676 149.58635542070803,12.896472342668638 149.64497341229347,12.814424924367225 149.70565345719143,12.732813806393938 149.7650522164982,12.652607761732874 149.82514336749225,12.573015977661855 149.8865281130355,12.48954486168648 149.9539271273397,12.402062026886504 150.02202901239465,12.320441329032862 150.08870836317513,12.242144941196031 150.1556391961643,12.165538865395737 150.22076139817747,12.090909316578578 150.28632754654492,12.013470663450583 150.35418061344217,11.93497626267406 150.42184865472026,11.858166842624435 150.4881165146158,11.78373085497682 150.55219303229046,11.708741779075531 150.61518831994206,11.63339048530908 150.67580372784693,11.55593276537334 150.73703973364493,11.475013843415313 150.79891568744253,11.395272398069736 150.8613971293936,11.309960675912462 150.93319954299537,11.231600361419357 151.0007367009033,11.156982192146678 151.06866102708045,11.082034749013035 151.13610272608355,11.007744743882926 151.19454168055898,10.926477471178556 151.25398629709983,10.844999250140807 151.31442558093045,10.76421532617075 151.37636418778925,10.685378276899733 151.4368157446937,10.606287166218808 151.4972249816855,10.52647150848354 151.55805132424274,10.447546247949443 151.61675709629245,10.367640711074758 151.67550711315374,10.28582889773881 151.73737401693646,10.206511241974797 151.796756551343,10.127822115816967 151.85305698015162,10.046516800986833 151.909529745054,9.964358533746436 151.96522017977074,9.881820658599834 152.02030792167076,9.798637361680662 152.07549104774333,9.715208500048348 152.13116345657218,9.631352358578003 152.18893684812372,9.548780837498647 152.24715763927622,9.466728597974939 152.3065537495148,9.386099035948806 152.3646049497914,9.3052794205936 152.42224813456207,9.223713751888036 152.48015512278593,9.14226282631778 152.5375354735435,9.060636163222474 152.59467167858108,8.97873060078979 152.65147657002314,8.896992761222734 152.70690108580877,8.814325415332561 152.76590994511955,8.726513012014404 152.84328879360106,8.654282466329033 152.9112881483763,8.727604275841298 152.84202337783327,8.791372439706379 152.7900211332325,8.869922696887308 152.73406776203342,8.953372677880328 152.6767387216149,9.03587078321584 152.61944821971272,9.11799731745611 152.5618110335112,9.199989009663202 152.50383164225312,9.281542216097519 152.44604757860716,9.363306123167348 152.38742092731596,9.444925046815406 152.3281950954875,9.525319814815035 152.2706822653617,9.606380201736378 152.21379305718366,9.687675969104887 152.15885051838697,9.77044615617179 152.1036980451316,9.853828731560288 152.048355915658,9.937394478141817 151.99218300888487,10.0206474134484 151.93536569301267,10.103308312563431 151.877790515537,10.186418162159763 151.81671283778846,10.26738284049013 151.75556146975862,10.34575635378846 151.697667430831,10.426407349270741 151.63795424086567,10.507675474745952 151.5766984362614,10.587167225117975 151.5164092538739,10.666825363221834 151.45540712352152,10.746633597573322 151.3937835832703,10.825061915759864 151.33441568495752,10.904422423809324 151.27597904809528,10.984511557444828 151.220177409291,11.067406055098532 151.17038251436418,11.155151789988059 151.12208020240678,11.242966039484884 151.0745809321851,11.331952944104124 151.02989655828253,11.416168237673583 150.9959486594794,11.506074614586346 150.95819646522293,11.599752407260398 150.92255801994412,11.693805885207505 150.88494128338138,11.790561958621465 150.84481676564667,11.8865766642163 150.80427833699292,11.982044952499454 150.76262248910015,12.075990891724143 150.72278324333269,12.167829576413649 150.68451431827546,12.258858397714864 150.64635178337122,12.352417874011483 150.60579556240972,12.447588416235474 150.56602632224744,12.540142307299334 150.52757528922476,12.631985868920006 150.49095422957097,12.720756206193016 150.45896368539834,12.806829459346714 150.4258431483402,12.899621645168475 150.3893750188501,12.99517638647659 150.35291487725482,13.090501168503753 150.31598583106913,13.183453693187877 150.27946144104814,13.277326504599433 150.24238251904117,13.368051517664194 150.21037864273674,13.453177582010705 150.17574438803564,13.546183315430287 150.13500131794706,13.646181836335286 150.0943853538652,13.739719041960406 150.05641489168372,13.829225199577122 150.01546749573444,13.922766984243212 149.97301872534678,14.015348017293942 149.92971617163252,14.108065315246234 149.88232437610998,14.204066262610366 149.83359082369486,14.296832015355495 149.78690933750306,14.383917614331198 149.73932761549935,14.472234852785363 149.6922067022347,14.556476352895007 149.6490817086505,14.636289449906782 149.60919414225222,14.711128836883528 149.56892514128984,14.79488640963185 149.51832550008768,14.89419170857045 149.46503669513763,14.99032715396566 149.41186284166776,15.082329878192741 149.35557014928256,15.175593336745191 149.29760723082902,15.26601234557598 149.24282348226984,15.348519843776788 149.19010367299225,15.429339725533918 149.13702131784592,15.510633032871157 149.08457014225303,15.59244651912492 149.03039788906395,15.677368451022872 148.9741666375087,15.764656649438052 148.91714838001678,15.850776506229762 148.8578957562114,15.940069958063795 148.79592489621996,16.02790377532548 148.73882970899507,16.10732033537489 148.68378226848176,16.18660663245148 148.62793224303223,16.267927211032863 148.57137662795827,16.35188784490279 148.51440880080122,16.434984266777803 148.45856910319154,16.5183388390719 148.4012912076862,16.602968144896074 148.34507621544034,16.686275999780133 148.2904062628413,16.767750675968447 148.2359197877497,16.851745800996408 148.18006452465167,16.936648738682976 148.14909192811473,16.97671364977965 148.14706428900337,16.97818310425995 148.14400718042313,17.070055058084005 148.11066896787634,17.2064575356117 148.0851553665012,17.30587545067391 148.05793530424754,17.406760548454923 148.03096221850865,17.505150288919733 148.00310128315508,17.606686096504138 147.9727020131226,17.708750248650013 147.94349825913022,17.804650141569144 147.9156894839791,17.899710360263196 147.887247306611,17.996495124738203 147.85863825471506,18.093899210677655 147.8297947191462,18.1903940637316 147.8021956214791,18.284208375636727 147.78292798605995,18.35069641391703 147.77624177076638,18.417375555635513 147.76593729331216,18.513482369424487 147.75477424286487,18.612904752494387 147.74366063111054,18.713359427585136 147.73177649769272,18.81217354249128 147.72114022217062,18.90818621889528 147.71030040760604,19.008848551906436 147.69818816946247,19.10766401966104 147.68744004341818,19.20497339012212 147.67595014833938,19.30221257658718 147.66559934860376,19.39911157956403 147.65425210346046,19.499914171637695 147.641727774808,19.603047072812554 147.62770501761213,19.703769640553702 147.61485801136507,19.796456862985007 147.60411774282346,19.88939345906734 147.593229053577,19.98530782112639 147.5829552647632,20.083003687774394 147.57197132594266,20.18185815407694 147.56153042281608,20.276562422096283 147.5523493119453,20.37505109220204 147.5410464241648,20.480930818820003 147.52780600071222,20.582495882133358 147.51551232716503,20.680079230310767 147.50326230579296,20.77625566996299 147.4923624707971,20.87336296523605 147.4808587794747,20.973517960280173 147.46941697428275,21.071318434961494 147.45971322036496,21.14754455630776 147.46021173168353,21.22003733616604 147.46456598602884,21.312787829162602 147.47041770310395,21.41335619489905 147.47568800618552,21.516757144069512 147.47993806736483,21.615918725856556 147.48551861277744,21.710371621047532 147.49364973928536,21.809266552530115 147.50125854535074,21.911681449637424 147.5093794482586,22.018519180052447 147.5136987144402,22.122081419306447 147.51979796844984,22.216971138718677 147.52775144490948,22.313849668175983 147.53701477489145,22.412737091553755 147.54689368518703,22.512595963015023 147.55694783137955,22.607943243896216 147.57056381896194,22.706749772890618 147.58300523616964,22.81092121327563 147.59557807703226,22.91515136503125 147.60653256883506,23.02095461505015 147.6167487460469,23.125122814087973 147.62627575883724,23.2284251339164 147.63566111146446,23.328179887986717 147.64630044931238,23.425163161799677 147.65843231726333,23.52551105400382 147.67010945237607,23.629173478045796 147.68134092865407,23.729629751679404 147.6936224298154,23.829666960598857 147.70574921626238,23.934267139009282 147.71658091933867,24.031527881269636 147.7305353413486,24.127363195832736 147.743871966549,24.228546309067088 147.7577891581811,24.327534719270144 147.7718122333922,24.426335977353922 147.78624935539307,24.520324042600205 147.8025462339006,24.614260656023994 147.8193946346782,24.71349530132456 147.8360075137778,24.815772074690017 147.85178566933317,24.922072973295332 147.8655819114919,25.030549092859637 147.87746815666026,25.13179902876712 147.89003032007759,25.235774130087222 147.8997738708627,25.338874110177574 147.91041935430607,25.436420746890587 147.9200703891759,25.542023423800146 147.92772386807619,25.65067054535766 147.93337287559677,25.755051352967772 147.93846733752233,25.859323294412228 147.9416728746524,25.959201370430456 147.94581579072909,26.054509238013498 147.9493890911069,26.137881247906858 147.95710669135752,26.229599688037684 147.96159249749,26.34251880717124 147.96385756818836,26.450614753715737 147.96416614617144,26.559862261184595 147.962187407266,26.663309715586152 147.96045890646766,26.757724486652606 147.95901214689107,26.852324612549154 147.95739778017406,26.94940239427981 147.9554159178397,27.045947419321823 147.95344899388468,27.150123986893956 147.94884286347596,27.255729306835562 147.94420255172835,27.352817416004815 147.93971595940977,27.442315621253243 147.93723498879422,27.533582627234857 147.93439337083393,27.631442986938616 147.93180694409125,27.728001128282965 147.92931559458256,27.821547501931096 147.9277560631879,27.906789494927338 147.92915065725742,27.99798966509089 147.93007583411642,28.08974271000654 147.9336403256576,28.179756696181784 147.9386972380463,28.284409937829338 147.94216530380982,28.390365622983218 147.94495564682776,28.487806423098107 147.9487766011175,28.583148917959228 147.95368567534052,28.68249192054255 147.95836288585411,28.7792742074884 147.9645429459618,28.874011042695802 147.97165471905683,28.970968333158176 147.98043791506979,29.07397269810399 147.98811700134763,29.178880530837816 147.99507213742888,29.270972417708794 148.00457425535592,29.358961733366638 148.0157370952545,29.44704552998355 148.0366217738761,29.6002861466559 148.03205799399407,29.757249388813708 148.029968189643,29.851285994974845 148.02863573976393,29.948395829799132 148.02860130415198,30.043291271414105 148.03007579371717,30.14279423140816 148.02383820089906,30.324592247628253 147.98145606647884,30.500984235084655 147.9556004002135,30.603093113785405 147.9289405946693,30.705681871177205 147.90365038099787,30.802799862677556 147.88101680440462,30.895452950130572 147.86011382871018,30.986366443634935 147.8397468143072,31.08144757491406 147.81767184712135,31.18184451336694 147.7942223201701,31.286506199203775 147.76954681024853,31.389702698809547 147.74646314783823,31.488543907670028 147.72336153718692,31.586682825571806 147.7013757707528,31.682402266567145 147.68278774303437,31.76857352526626 147.6689028326557,31.848549712252773 147.65276674413175,31.944643773570935 147.63479418336237,32.041394471275574 147.62053256820388,32.13131902173161 147.6077887351388,32.215805206636304 147.59871336402253,32.29736462928095 147.5876542264793,32.39346306736247 147.57398766611138,32.49891152372657 147.5599227323319,32.599269132061984 147.54711123946552,32.69628045092067 147.53254105307497,32.79921389105557 147.51482432936754,32.911456842487475 147.4919513167435,33.031119493304836 147.46837694272256,33.139619388056445 147.44755803135425,33.236709412353726 147.4257823217752,33.33676835173802 147.40553335005217,33.427332254145355 147.3885859261176,33.51359223743999 147.37123719068916,33.60184008007136 147.35356307768237,33.69886156030225 147.3316160599318,33.80610768070968 147.30870432953154,33.91350053732755 147.2847711287668,34.01736584533559 147.2617143314546,34.11800890031989 147.23588963917385,34.22519550615586 147.20768049982786,34.33469712297678 147.1784900363307,34.44177113640442 147.14812488367124,34.54905610908342 147.11620811821606,34.65584136098454 147.08497882659796,34.757842345624226 147.056515559626,34.85104238758611 147.0299396427244,34.94307869175673 147.00025668738346,35.0447485573699 146.96702844897945,35.15377710496118 146.93609856234255,35.251782222773116 146.91106728623018,35.3388903589179 146.88301933723687,35.43805103833865 146.85332348718896,35.539123069955195 146.83027172097303,35.62424473854119 146.80781322943926,35.71618099782312 146.77726787687436,35.829392713411714 146.74351583044378,35.9447599617646 146.68096260947127,36.119804659450736 146.60529426302702,36.27195360840874 146.56674163735474,36.36093539070404 146.51950764796123,36.46385131052701 146.47545900021564,36.55933586165205 146.43210650238854,36.65606173586975 146.38879098535605,36.75044210299589 146.3553113268233,36.83188832385202 146.31988804712478,36.91996117238509 146.27951930421753,37.01672509134293 146.2418274253138,37.10878426822169 146.21154303385273,37.19049044364055 146.19031591816497,37.259754994854255 146.1698537196843,37.33393236618155 146.13381765779076,37.4398958452051 146.08977749611665,37.554675943453 146.05354781037892,37.652981370065284 146.01796292154418,37.750820858637525 145.98255882964563,37.8464126343203 145.94603547586422,37.94512010535821 145.90609164204886,38.04655851044614 145.8659954629804,38.14773713259835 145.81406437138318,38.265258572517794 145.75952422017008,38.37938198219151 145.7175630667407,38.470617241943465 145.68170859144413,38.55310803217543 145.6429490629999,38.64014114301299 145.59922405094363,38.73425761951705 145.55805230038865,38.821637801078815 145.51537398836587,38.91234628760707 145.47313120280324,38.99850542207839 145.4402835466374,39.07095977851605 145.39981466642502,39.15645820466305 145.35860474068627,39.2406709398631 145.3195020281163,39.32181806767952 145.2718953926625,39.416130345126646 145.22462290280197,39.506022977136645 145.18254151263847,39.5864261091918 145.13174683649763,39.68118709939309 145.1049169686527,39.72778892648041 145.08992826817158,39.76294308222082 145.04808446920126,39.849972435966556 144.99984093913397,39.94800837265299 145.01021357808037,39.90402581115834 145.02573548785534,39.86362127145645 144.99727210617007,39.956857960588145 144.9693550959321,40.05185521801563 144.93376481804395,40.16711459199745 144.90090701732865,40.26407255607822 144.8955297626261,40.24155144056793 144.8931105661943,40.241081988543726 144.87459313447775,40.33407508472258 144.85912027468535,40.41855501827145 144.84134391198296,40.51645331633771 144.8244320807154,40.609209498845125 144.80533957643465,40.72440424313808 144.78249614491023,40.84592400874317 144.75825249314167,40.967386225909394 144.7305402268544,41.09057212015795 144.70260838693224,41.20465742469957 144.6753888477279,41.30581701886753 144.65078952312828,41.39620511416753 144.6246207301426,41.49857421759137 144.59833034804367,41.595707697655016 144.5755059588577,41.680079358576045 144.5527414836956,41.770771110483956 144.5313559312891,41.85479032202976 144.51079291213543,41.94865201557935 144.48687954816492,42.058388205106866 144.46217475456749,42.17060895793485 144.43444766505885,42.290470436394926 144.40693158342395,42.39880184803869 144.38002201339728,42.50546097502561 144.35060290884726,42.617199233251554 144.32296112265755,42.71741269575332 144.29493805753137,42.82188991458528 144.2637748237921,42.93376682189996 144.23343081265645,43.03806785968345 144.2087125129106,43.11840514698075 144.18682938108978,43.20010535514839 144.16041017910314,43.300886132111344 144.13442992326284,43.39911386129949 144.11013141652083,43.49013127473568 144.08906258789884,43.57070389203828 144.07012006757768,43.64885906981568 144.05010461682699,43.74004685168783 144.02574067452917,43.852520351666506 143.99942795200977,43.96173696331675 143.97513419921157,44.0604969510621 143.9508149060405,44.15639667053767 143.9269593402105,44.25188424733095 143.8987464599811,44.365363695654764 143.86845735139258,44.47346344866332 143.841741051515,44.56642658585154 143.81505647822254,44.65791731346306 143.7879262947863,44.753175082510325 143.75877866024825,44.852921141672695 143.6974089797482,45.06427001936706 143.6031092796787,45.26231592221643 143.55678004120475,45.341675268517456 143.51173899150947,45.42079938582981 143.4623084274372,45.50875630393537 143.4103518764136,45.60061561293322 143.35553795182076,45.69570743466737 143.30507275202254,45.77788203846168 143.26208731113414,45.846832633543585 143.21540697208846,45.927545352803826 143.16606108807562,46.01216131662652 143.1137835026166,46.10540783695072 143.05734199740596,46.2013985353157 143.00645395612767,46.28459500147244 142.953509553947,46.373133157486215 142.89227881659798,46.47674210485554 142.82797067280345,46.578160746032424 142.77150641512668,46.660956190491476 142.71453897326205,46.7472944378346 142.6543983514621,46.836031223639374 142.59942405308755,46.91546144750488 142.4882008099406,47.092845885108645 142.34349080248302,47.247909576224394 142.26648977922267,47.31566252904896 142.11398285622036,47.457456923121924 141.93228337015185,47.570453705805704 141.83918771455632,47.61535941970134 141.75605607920167,47.655823427728855 141.66413248992586,47.70353813078677 141.56698687491553,47.753181006991426 141.47342332283736,47.800433503455196 141.38417578412862,47.844980747834086 141.29830344419292,47.88899900094057 141.2144387726611,47.932777611268165 141.13199759186017,47.97784896048779 141.04556651963082,48.02680322748162 140.95689883070997,48.077717021691775 140.86417879834323,48.131541919328534 140.76974194370257,48.18514097509892 140.68408845423107,48.233040351819746 140.60408049911578,48.279655785205264 140.51616656637904,48.33291928786839 140.42687716833902,48.38575686120067 140.33771628977485,48.439725584491605 140.2374679060335,48.49876017490058 140.13491048291536,48.55565650461393 140.04595356849498,48.6028965337806 139.8955527322959,48.68224788819721 139.72907951727763,48.73583993386632 139.64223894126803,48.76209916753836 139.54756644013037,48.7933254744909 139.44407521064625,48.825037552962 139.3408867186274,48.85638605307538 139.23350916956687,48.88658176987004 139.13783410026102,48.91211191871013 139.05392392449238,48.935829176976306 138.96639582555395,48.962461142726504 138.87687300341366,48.98966203578745 138.78388637809033,49.019208981414934 138.68336234202818,49.04982201460314 138.59296010361152,49.07612636976761 138.49632998984958,49.10634956721978 138.39346977030732,49.135076838125315 138.30266480883347,49.160210211855635 138.20554267553726,49.1876955559251 138.1020083256794,49.215141767841565 137.99945647552858,49.24062361402141 137.9025173845486,49.26282305073801 137.80758028186318,49.2847625800787 137.70787476207957,49.30711795843489 137.6067582790025,49.3286877577967 137.50391616035793,49.349338907658826 137.41120131800858,49.365396971299006 137.3150876352502,49.38471192204802 137.2097953989565,49.40369381494404 137.1078711356385,49.42098318330096 137.00254755758763,49.43745922203316 136.90506775779082,49.45000554497594 136.80870870873417,49.46366527158596 136.7005469329365,49.47922994905905 136.5946866480222,49.491049215301494 136.49215822983894,49.50183857639493 136.3830898545555,49.51257014575025 136.27793027017407,49.51953624017932 136.17860633218004,49.52548494397291 136.07683261768597,49.531893435854194 135.97858521249412,49.53681575931876 135.88417381650487,49.54262052653866 135.78288566824148,49.55145944528329 135.677169849885,49.55971182303198 135.57223865561215,49.56690015514822 135.46541800046396,49.57326141495285 135.35962325725174,49.5774074745499 135.25684241220233,49.58045045757503 135.12117630976613,49.587583023999784 134.98897871720672,49.56707781997735 134.8911284590939,49.547564335253774 134.79418166030229,49.52867746524013 134.6972908684465,49.5119699003661 134.60161485558402,49.49626905184934 134.50442672504855,49.48421699642637 134.40231331165018,49.472286684540066 134.30375798510028,49.45927633175527 134.20590408676952,49.45009690414511 134.10438737163804,49.44097558077075 134.00391870923247,49.43136550184596 133.9050095970751,49.42295365676057 133.80599600931345,49.41628286289683 133.70673442462495,49.410858624260456 133.60675004229185,49.40696944277877 133.50565928833984,49.4031498794716 133.40505396323093,49.398670367052695 133.30490400998636,49.394964061287574 133.20355584561796,49.39142467780786 133.1025486821745,49.38568990207352 133.0024241486299,49.38053070138865 132.90266706568414,49.3751964830577 132.8027877520723,49.371377662179654 132.70247300095093,49.36701121322972 132.6023874771477,49.362675353719254 132.50292961035535,49.35837465952567 132.4099759696202,49.35608057036204 132.31959600995586,49.381998158020416 132.22177509719043,49.407271764446115 132.12382874998036,49.43056158266141 132.02617217582988,49.45298935923753 131.92868411505782,49.475350404066546 131.83116328347867,49.49766577936235 131.7335165714595,49.519892799258635 131.63537764407792,49.54175171948543 131.53701391860866,49.56190407233995 131.43904689482076,49.5820587925853 131.34105095833027,49.60205737515815 131.2428487091389,49.6221953543614 131.1441332579254,49.64133168977324 131.04486288182673,49.65940742289859 130.94570300753892,49.67494268687861 130.84727958387958,49.69136902806383 130.7486261764558,49.70769318130117 130.6506117307434,49.72406786337363 130.55298413201652,49.74275304200886 130.4548281357782,49.76158819955026 130.36301611164913,49.77892395235025 130.27925705387642,49.82016996475643 130.1898582828707,49.86417613817453 130.106433154497,49.905790476881194 130.03698745859467,49.968398041746035 129.96231038870164,50.03496454361064 129.88734729785196,50.10171637801861 129.81187929283374,50.16697669717114 129.73778616288513,50.234180007610945 129.66145620029056,50.30003129669152 129.58500197466302,50.364989223029205 129.508539259524,50.429243583056085 129.43272324383673,50.494311020285224 129.3564083359523,50.55891635425028 129.28065047425525,50.623991295661575 129.20466193589252,50.68900212711039 129.12866275468915,50.75426574663408 129.05222340434943,50.81873619113775 128.9764145469447,50.883852798553654 128.89951284053467,50.94904684317297 128.82048781179589,51.01255566196174 128.74004907286738,51.073451573651205 128.65949701300624,51.13359916808227 128.5778404557627,51.19272722214276 128.49541820170012,51.25018174088008 128.41334434111425,51.30728649434718 128.33180264334544,51.36419236911129 128.25163800806425,51.42270364349855 128.171693212848,51.482158380676 128.09474687186898,51.53991917569251 128.02698189869315,51.60864187631155 127.95640086543969,51.67914877525031 127.8867538974543,51.75092769235757 127.81564270907596,51.82188555737827 127.74405604394381,51.892998613713594 127.67009095152437,51.961654964704735 127.5975096932748,52.028628811980624 127.5328530827458,52.094311772629645 127.48731252426019,52.17635705862145 127.43708537333505,52.26292141392861 127.3882890791285,52.34923896059778 127.34113876932905,52.437221094441014 127.29256107144751,52.52462072428397 127.24576046907018,52.612008568261714 127.20047335884578,52.70061199960888 127.15473837327743,52.79021207135404 127.10680848374881,52.87870442967782 127.05896925251481,52.96680020255859 127.01043115271916,53.05433215552825 126.96233693610345,53.14215127125256 126.9133349414568,53.22947807818723 126.86502326596124,53.316568124468354 126.81778082313079,53.404069263190046 126.77523374323656,53.49392371397133 126.73342452917962,53.584812321739214 126.68924136795083,53.6758792647876 126.64255306654789,53.76431289101376 126.59742111378311,53.85368347550836 126.54827540251681,53.94255747060446 126.49748460138302,54.02879608504471 126.44767104824558,54.11486479926616 126.39738097970273,54.20022416751429 126.34870426017538,54.286963909433645 126.2980782883458,54.373138834213044 126.24807606525955,54.45989728764492 126.1986683762065,54.54797811131861 126.14908699072248,54.635147016615626 126.10069878522667,54.721834112313516 126.05411336056449,54.80953903817156 126.00789345880385,54.89800323617356 125.96171433665596,54.986548982681185 125.91625492842648,55.07471042364098 125.87330749459593,55.16399524567275 125.83103185371489,55.25399984116774 125.78980165226358,55.344875193629555 125.74538490522654,55.44078443907031 125.68130657060317,55.524859548666015 125.6200943844783,55.60379288782453 125.55989066223253,55.683043049485356 125.50015683949138,55.76317458703202 125.43951382624157,55.84336048756091 125.37753118308915,55.92289438240182 125.31427594930075,56.00098305225276 125.25102986904106,56.07891095968624 125.18672186501928,56.15597923000388 125.11853204582272,56.23694487365396 125.03383897671945,56.300517707998786 124.95321949017466,56.36024421109178 124.87203130262866,56.41911319452251 124.79061493350221,56.478002744418 124.70820772358873,56.53536695703821 124.62629738886271,56.59260770965884 124.54426896470933,56.65005192728068 124.46176943739736,56.70700801350307 124.37914663495177,56.76364334445236 124.29669077504926,56.81974206283124 124.21486745080675,56.87713939868184 124.13158827629653,56.93405301235185 124.04759713259558,56.988718145807816 123.96498293441124,57.044151019441365 123.88275962037389,57.10009053998851 123.80104911715209,57.15757294155045 123.71786718154374,57.21463116983237 123.63354269922617,57.269668939578004 123.55004873189715,57.323580668780785 123.46842872952931,57.37975806213826 123.38612324936939,57.437281468634026 123.30210305826172,57.493076537374066 123.21812454180126,57.5475790158388 123.13415237567474,57.60278165550848 123.05308368607866,57.6528195577407 122.98522272922055,57.71919864191236 122.91278757977311,57.78794796561271 122.84199705812026,57.85751309626612 122.77157445102063,57.928487432738876 122.69961536757285,57.99928838576495 122.62635051931976,58.067723685936606 122.55455739509118,58.13693913918622 122.48190965037577,58.20630625146604 122.4082982260465,58.2747798358667 122.3344534173756,58.34233089204605 122.26332858996271,58.40793014836612 122.20080369729868,58.48229712247308 122.13530711110016,58.55833670093966 122.07008338592041,58.63353793560751 122.00666637441017,58.70993015802475 121.94353458615592,58.787075321241 121.88085634907677,58.86454191217263 121.81880582682601,58.94258565807596 121.7566364373038,59.02130296911284 121.69306402528822,59.09927825840504 121.6291525981905,59.176289453096295 121.5657577725094,59.25355867393136 121.50189284999081,59.33084483083083 121.43744870645175,59.40775363068944 121.37273989787226,59.483930426564065 121.30920652512955,59.56005150161961 121.2469259453232,59.63862262421108 121.18112550950441,59.715819799729836 121.1148398059033,59.79023671824812 121.05157738483064,59.86655276974745 120.98769820752072,59.94352251407097 120.92382761484072,60.02040662514907 120.8604775014189,60.09702678765424 120.79889833624782,60.174770063474945 120.73759825511874,60.25409207908672 120.67407148058413,60.332676797137054 120.60918123426103,60.40973040369476 120.54370818619707,60.48600646357108 120.47741253029879,60.56146838472334 120.4110197248199,60.636073554319026 120.34567747935036,60.71123759279681 120.28067929407122,60.78670001449188 120.21649621548312,60.862987038977174 120.15174279121378,60.94003850301166 120.08492778657977,61.01540708675886 120.01816638658359,61.09035600136881 119.9505657095658,61.16436087363962 119.8833763488549,61.23839329397243 119.81627015815252,61.311993956342235 119.75025715607872,61.38710670400145 119.68259628522317,61.461332548010745 119.6153006622357,61.53526132191106 119.5480412920858,61.60921686998315 119.48056305224456,61.683545229071306 119.41231350763657,61.756276815574694 119.34653982504197,61.830272522533306 119.28082980035062,61.906146265947015 119.21306773471593,61.980128955788615 119.14640847891263,62.055106074658056 119.07741075447129,62.12850330294038 119.00867167693895,62.20138336662245 118.93933110803385,62.27406562115035 118.86873998584603,62.346238380094576 118.79647833318371,62.416413487292346 118.72451088849958,62.485829641788946 118.65274983133689,62.55557085780858 118.58047927753853,62.62490456732566 118.50852563662117,62.69399298405519 118.43723362466427,62.76375748003685 118.36566130102388,62.83388087599172 118.29357229106235,62.903308900635636 118.22214256425671,62.972816553129064 118.1513750563094,63.04281149461373 118.08116981655178,63.11371508646416 118.01088651788164,63.18446310136883 117.94153519324426,63.25606463037119 117.87165522670568,63.32822137386544 117.80034269847408,63.39925599509296 117.7286299277219,63.469528305862376 117.65621763221824,63.53936119765543 117.58288800011644,63.60785387928364 117.5106018209224,63.67567465987162 117.44038306650994,63.74605090482052 117.36880838440868,63.8164306623324 117.2970771080437,63.88615856353513 117.22579697127313,63.9560423546593 117.1546218024719,64.02621732811274 117.08311754344314,64.09658842493026 117.01071209381055,64.1661488587786 116.93859455993218,64.23485644759361 116.8680117471647,64.30483131898696 116.79790131859497,64.37496346609039 116.72969656925171,64.44724983110267 116.66057659173813,64.5198918470604 116.59088417409002,64.59215666181603 116.5204517938278,64.66387153761043 116.44937798217758,64.73458157126721 116.37844666840834,64.80533641856837 116.3068970387234,64.87546044862887 116.23553667205702,64.94560655765635 116.16398649480362,65.01537271675126 116.09308102624898,65.08544257906686 116.02242446769021,65.15608859583693 115.95173052748991,65.22641873704504 115.88224130683263,65.2974753331971 115.81749014782397,65.36451554935115 115.77296011854794,65.44659786865574 115.72520570134029,65.53443031516045 115.67715076502294,65.62225764043677 115.62869737938026,65.71040497858513 115.57833240196443,65.7975397621916 115.52812475579645,65.88355827414463 115.47958499839552,65.97073001415158 115.42969414101233,66.05800708996827 115.3790340687925,66.14460806162316 115.32812789679254,66.23099104028908 115.27655567924299,66.31702943222346 115.2246054105953,66.4027292971723 115.17238175531517,66.48816946356057 115.1200312316921,66.57347475625164 115.06769875738208,66.6584194816908 115.0163916308446,66.74376793529593 114.9653980551496,66.82971877169916 114.91431602161913,66.9151542251634 114.86580716688239,67.00040819006776 114.82177696860992,67.08879054719985 114.77888828039384,67.17323800851948 114.75557127640656,67.26552453661387 114.72833266192735,67.36249616203517 114.70066120581889,67.4589089343883 114.67246778443528,67.55475652119823 114.64524247930824,67.6509476787541 114.61701831208192,67.74733176052052 114.58805061474789,67.84332478671897 114.55893077818536,67.93894583347644 114.53028376398575,68.03447168357147 114.50218224893426,68.13047306305945 114.47341176148778,68.2259919628662 114.44624191536401,68.32226078740933 114.41811576355896,68.41476120052816 114.4046117539498,68.51009508759118 114.39020808988654,68.60872723944128 114.37735879890558,68.70753337090518 114.36430950671443,68.8069409275904 114.35033848218161,68.90626373747345 114.33614433761791,69.00516498330676 114.32252499092841,69.10443378312888 114.3075009101342,69.20351950926725 114.29358501964752,69.29581537221976 114.30495064930719,69.38908476014535 114.31469881346366,69.48888864024657 114.32522695613824,69.5882323984608 114.33525546180546,69.68692922145672 114.34882191275943,69.78499893183518 114.36281716187942,69.88346954512036 114.37852755333208,69.98145325180965 114.39552591775113,70.07942271076658 114.41347703429003,70.17716239820562 114.43371557154002,70.28007600095586 114.43250955479485,70.38513948369749 114.43187417544908,70.48470343784177 114.43219750612009,70.58432265468184 114.4330766036018,70.68392116528017 114.43498874096433,70.78375004766947 114.43648658942776,70.88398450309437 114.43742163926612,70.98433077737035 114.43751365380925,71.0843780592153 114.43825396901286,71.18404968508918 114.43963914223906,71.28348193752502 114.44261627769201,71.38355453784195 114.44354943233891,71.48396673323114 114.44485772494293,71.58390139134305 114.44601476138273,71.68426144653309 114.44585692770282,71.78474329087037 114.44508238574001,71.88483895918877 114.44452390248607,71.98534326716293 114.44146919860134,72.0793295026894 114.46345828956316,72.16980976972994 114.48913117664989,72.27282533999312 114.48812007752774,72.37892468624707 114.48845802869977,72.47884589977305 114.48741061872047,72.57945185585659 114.48528431937198,72.68021121240054 114.48108026689425,72.78102736384842 114.47533496051962,72.88133004233765 114.46929062205264,72.98132747132192 114.46279222687124,73.0819644437621 114.45331160938849,73.18233139734885 114.44360595613274,73.28209479306175 114.43324305451203,73.38175685810135 114.4216542213412,73.48768558983998 114.39347711580758,73.5914114246978 114.37303419923178,73.69124301480792 114.3524663959029,73.7919993279276 114.32889938442933,73.89223210880766 114.30592677748994,73.99038360735861 114.28454926632111,74.08711009285744 114.26420443703867,74.18636150656357 114.24128234704251,74.28595946631074 114.21997512478268,74.38238728346288 114.20530706448329,74.46305883116631 114.20426406917689,74.54759186950113 114.1979042608997,74.64900082978723 114.19108103549075,74.74921457688356 114.18446793989617,74.8466044211018 114.17896606575498,74.94462789854909 114.17176055683547,75.04667442317408 114.16220478266659,75.15089565227643 114.15062180827601,75.25192563449187 114.1283996898683,75.39122644704388 114.07414535172029,75.52385097746452 114.03640513801874,75.61430301101208 113.99814595154483,75.70742592641818 113.95478193793032,75.80433540805802 113.91177376673876,75.89501174597609 113.87194967625169,75.98048724143074 113.83094386627197,76.07035666797634 113.78583880716005,76.16396644091492 113.73855711392265,76.25762271114091 113.6905721947089,76.34717254059697 113.64282299674207,76.43635093904844 113.59198789112332,76.52666606128058 113.54266610466689,76.6115731250008 113.4943635915509,76.69660946267155 113.44300797111556,76.78541130118836 113.3901754178167,76.87351644547871 113.33799570301039,76.95858231906634 113.284626796734,77.04622417399507 113.22946922375141,77.13204023698222 113.17503945141652,77.21800567035079 113.11700332170142,77.3057283090518 113.06155595911929,77.38651449341793 113.0097059861654,77.46582479712016 112.95518534684872,77.55163499587321 112.89720244697565,77.63952137799451 112.84086801786954,77.72177466507496 112.7862896071954,77.80485086203478 112.74595436821338,77.85697915705023 112.72471487766049,77.92099933727842 112.68859534024513,78.01938214487433 112.65334933168364,78.1136981667285 112.61913020298095,78.20641884505237 112.58506448203669,78.30233552725875 112.54873425821127,78.39938791613228 112.51312277061359,78.49320908974083 112.47854462277354,78.58653551921398 112.44379686280158,78.68145364471073 112.40871771681782,78.77589973186993 112.37383391352489,78.87162374588229 112.33665196763003,78.96933405964384 112.2989073338191,79.06354771564048 112.26322336012176,79.155404682302 112.21971329259569,79.2678839319151 112.15896909694965,79.37047946137629 112.10953392758185,79.4559236230633 112.0472099419534,79.56087421341417 111.96953356644356,79.65214585146154 111.90497046672031,79.72905820176884 111.8392894585956,79.8047416215749 111.7763167492101,79.87972500605817 111.7119619360025,79.95674272764018 111.66494586580083,80.00939328379039 111.63659709462985,80.0741878285349 111.59315564733011,80.16432964719978 111.55078185074973,80.2533020976487 111.50951435531623,80.34088043812235 111.46939881008495,80.43042060670129 111.42835708811921,80.52011888973863 111.38926594104369,80.60872771928047 111.3491116677724,80.7016977223283 111.30520482735544,80.79679115688317 111.2599299894865,80.88897938618256 111.21506235440202,80.97835108273897 111.17063249904898,81.06681140829093 111.12658948379473,81.15465197810119 111.08249628675783,81.24430530007596 111.04611853837865,81.30935435132123 111.03067598292071,81.38307452391909 111.00668822837278,81.48219984814658 110.98268201249589,81.5801358899507 110.95714651746471,81.6791043286546 110.93015667627665,81.7768633186745 110.90305938489233,81.87323381159234 110.876052953974,81.96853735670001 110.84996250336808,82.06428394078203 110.82341571786047,82.16108802442287 110.79680990245886,82.25652798365621 110.77193078558784,82.35198202415961 110.74731114045949,82.4484238117562 110.72334978880276,82.54471377427957 110.70026757855915,82.6427461838351 110.67526841250924,82.74070488313433 110.65104506299612,82.83802013498676 110.6264380766421,82.93525381980189 110.60264477570435,83.03249869324357 110.57891836407025,83.12959181563062 110.5566066708934,83.22693669273828 110.5344118653417,83.32528656854385 110.51060908630852,83.4233543028356 110.49125963636838,83.52178491472884 110.47247546787355,83.61978905756743 110.45554728201836,83.71556558008241 110.44779025338849,83.81329150266798 110.43826648155282,83.91248863572423 110.43175804219203,84.0111838138327 110.42656987799884,84.11078070141025 110.4209841747955,84.20416632912288 110.44061563223248,84.29573507819694 110.46043026328695,84.39366887429763 110.48126258840198,84.49145498949323 110.50117981877187,84.58950052653945 110.52182833145363,84.68734785499272 110.54170457129013,84.785241565525 110.56260826087325,84.8822141242436 110.58541476118974,84.9786072464398 110.61000773652835,85.07485253740701 110.6355642897934,85.17138053359268 110.6609860601757,85.2685089376646 110.68513514531523,85.36586128923184 110.71470322000373,85.46118294383353 110.74574787815345,85.55624935433454 110.77657501605347,85.65156955637114 110.80800600514694,85.74644875166987 110.83963585309667,85.84072409353934 110.87269189652021,85.93356346390844 110.90782647774604,86.02563517928226 110.94457387664283,86.11819039752315 110.98146578506315,86.21201968653138 111.01713829885793,86.30607491532646 111.05257935634071,86.39931165829701 111.08825895628993,86.49279160855706 111.1234855731424,86.58699290172176 111.15808870072914,86.68195987081698 111.19128267009697,86.77751170337248 111.22366409584185,86.8740210435228 111.2536954274967,86.97138684273456 111.28593553455072,87.08694103190001 111.28908108101106,87.20688345122205 111.28969154480346,87.30888175870949 111.2875929869536,87.40979400431581 111.2838966727763,87.5291581925115 111.25112804052901,87.64445578023799 111.22232127725991,87.73942447020329 111.19369635349119,87.83397797940647 111.16491853538923,87.92945742764972 111.13450141115224,88.02659022491879 111.1013886552183,88.12323825835533 111.06726606382338,88.21750475034436 111.03298022670585,88.31276460555978 110.99556761606387,88.40737739748717 110.96172734153991,88.4863801900283 110.95016191347611,88.56223180228746 110.95300526006132,88.6535692869434 110.95536766943601,88.75371106712893 110.95832277119274,88.85294195157428 110.9626646852105,88.95358650885025 110.96405086099841,89.05421811038458 110.96740156528259,89.15296156769077 110.98215022880606,89.25076813311748 110.99960732895376,89.34872997428603 111.0184109311052,89.44689515301808 111.03616443800107,89.54537075983163 111.05460044958646,89.64296144146049 111.07481670501241,89.73985870780619 111.09725203357958,89.8368077471792 111.11951185446442,89.93396052248104 111.14326901449985,90.030795459382 111.16668723902193,90.12776062484693 111.19145138553367,90.22456038950502 111.21524876873391,90.32168130172957 111.24011413694527,90.41878793293826 111.26311335521397,90.5166916302854 111.28593005971864,90.61509084460829 111.30506679189713,90.71438497121568 111.32329958416112,90.81285672844112 111.34160810400654,90.91096870680887 111.36049560864603,91.00872877821023 111.38137109211775,91.1129121846198 111.37538328130651,91.21965077494592 111.36784907849768,91.31967298404518 111.36064194583032,91.41925214530548 111.35373610832599,91.51945556054791 111.34469210137213,91.61981628011817 111.33471091616315,91.71981900114405 111.32365942150945,91.81997644417937 111.31065739184666,91.91937143536967 111.2987955280278,92.01811847710515 111.2880702701644,92.11667658946217 111.27961003760436,92.21583392720893 111.27069031116753,92.31570667385434 111.2611343368364,92.41496653150774 111.25340065746047,92.51416630129701 111.24585263785146,92.6132619373481 111.24059045678044,92.71225637212336 111.23645275067328,92.81223761931957 111.23083245211093,92.91284294514901 111.22363765294722,93.01283336780152 111.21707194470477,93.11253340548261 111.20935086702268,93.21884864989056 111.1753408803603,93.31936241035137 111.14451813123537,93.41438704624572 111.11230584956076,93.50960297453508 111.07948999505557,93.60406537109512 111.04771864455817,93.69796190615193 111.01845122364611,93.7927936597325 110.98920546815945,93.88867529462678 110.95845060125471,93.98496760224519 110.92493176118167,94.07991457089778 110.8919704524481,94.17408216747931 110.85753465312018,94.27361782030225 110.80270766087985,94.36360244694113 110.75072742980936,94.44924311243548 110.6976791952336,94.53436118657571" stroke="none" stroke-width="0.3" /></g></svg>