<?xml version="1.0" encoding="utf-8" ?>
<svg baseProfile="full" height="180.0mm" version="1.1" viewBox="0 0 180.0 180.0" width="180.0mm" xmlns="http://www.w3.org/2000/svg" xmlns:ev="http://www.w3.org/2001/xml-events" xmlns:xlink="http://www.w3.org/1999/xlink"><defs /><g id="crack_content"><polygon fill="#000000" fill-opacity="1.0" points="113.48394717419193,84.51014099735617 113.44137365146976,84.40530335234591 113.39958644819693,84.29460923526246 113.36544741954107,84.19872841744682 113.330207310124,84.10193355201812 113.29750169174355,84.00763812117306 113.26093348859436,83.90762608662335 113.22266184213365,83.7954941754713 113.18930661975759,83.69255450647822 113.15537627353628,83.58621489888986 113.12385433043733,83.4809003819892 113.09654677578835,83.3871577489837 113.0686187331929,83.29437262213176 113.03733866214296,83.19219488390397 113.01124661591355,83.10110524970044 112.982323205687,83.01025098734449 112.94928416625334,82.9035839981743 112.9193718282113,82.80321561599308 112.88905778440487,82.70220286550509 112.86203535026361,82.60796112514801 112.83610525092627,82.5227805836036 112.80780909681077,82.43374615385386 112.77716687115229,82.34076970050353 112.74367097952867,82.23990492173655 112.71149369859275,82.13966083684969 112.68069753824649,82.04423576076495 112.6528528854392,81.95769278433869 112.6266152838926,81.88208939077589 112.59592570303158,81.80126662651928 112.56068675762384,81.71123407430191 112.5201220828852,81.60849657682968 112.48471920042739,81.51251030142238 112.45170085113358,81.42840378929061 112.41739716806771,81.34206271707401 112.38519671846032,81.26434178814645 112.34791245162128,81.18054321196138 112.30706305839331,81.08781827812571 112.26116815214952,80.98381113779344 112.21206223779782,80.86216519046077 112.17534549967812,80.7604083644195 112.14303947114776,80.6763450515687 112.10737350194763,80.58398558357185 112.07327680593522,80.49555334505328 112.0373926942186,80.40570567782342 111.99696999670255,80.30266665313904 111.95863857995587,80.19884018741655 111.92327637563649,80.10119656532477 111.8896334469932,80.00663062699128 111.85796595035984,79.91800415412494 111.8259578526484,79.83076474712593 111.79063422321778,79.73583434787828 111.75709700732936,79.64244217101977 111.72192568713221,79.54715161577238 111.68549411386104,79.44346577557667 111.65365245524761,79.34904658371934 111.62482340307486,79.26467838596345 111.59079836520655,79.17008740844389 111.5558240614975,79.06709170918516 111.52488205675836,78.97321122985201 111.4948827319565,78.88274633204335 111.46275578026577,78.78713161251947 111.42752245570303,78.67993678292439 111.39870153616123,78.58261450256198 111.37334267456968,78.4999331017428 111.3413086966574,78.4017058875961 111.30940417274051,78.29680332605264 111.2810603135797,78.20018111744528 111.25261862830402,78.10283039705962 111.22399302597636,78.00280055563512 111.19664201432902,77.90405175528234 111.19689083357405,77.874826814528 111.18419923713104,77.84583912813153 111.13752967037132,77.74714278357264 111.0951582764397,77.65323794362786 111.05353547320225,77.56153992743437 111.00944726447835,77.46349110601122 110.96614716041354,77.36384108657013 110.92806404741349,77.27195014074086 110.89267457642325,77.18774659879368 110.85347891136058,77.09876309410922 110.81453553537676,77.00938861664005 110.77957630237137,76.92968998450418 110.73458205435989,76.83721974897621 110.68634834564762,76.7319183057234 110.64346675495138,76.63409636064608 110.6015789931209,76.53671850107835 110.56412792845738,76.44635023136625 110.52498406995862,76.356716787641 110.48697963539554,76.26766396353662 110.4451569653151,76.17609183918707 110.40302802735731,76.07979623953571 110.36381853432025,75.99120985467928 110.32386985749072,75.90264372521574 110.28575649601407,75.81936863622239 110.24525503157976,75.73668371302475 110.20146535796789,75.64956727098583 110.19451207990966,75.62101549317902 110.17715391323716,75.60274721221997 110.11480666326196,75.53219052140585 110.045993243173,75.4560900196396 109.97941566803215,75.38101202081799 109.91552528746523,75.31117378381093 109.84964872958736,75.24060005908792 109.78209149741348,75.16976493774781 109.71364835410098,75.09874569928819 109.64212416093856,75.02569639925164 109.5695754195251,74.95055986543277 109.50248728024198,74.8811268354002 109.43559655773603,74.81458525802813 109.37674914059693,74.75683342008799 109.31726833987543,74.70563601778143 109.24479657913366,74.64505603079276 109.1720283075461,74.58479451305979 109.1020016964885,74.52931226704271 109.02543522244842,74.47104294730237 108.94372002028088,74.40812199119478 108.86330470500158,74.34602481204458 108.77723113291815,74.27931087607351 108.69271950312573,74.21038808411475 108.61758370011005,74.14961750681925 108.54135058195214,74.08963601215717 108.46469325423104,74.02906655261948 108.39719257972298,73.9774316281496 108.32278067319247,73.92466685917222 108.2407624193362,73.86458233731113 108.15788500293901,73.8043285414121 108.0713788984374,73.73949132173968 107.98950826962442,73.67661452349816 107.914902542245,73.61991208398022 107.83865780274898,73.56364409391561 107.7595820435766,73.50479468212588 107.68237714453018,73.44769164038692 107.60685946171425,73.3924470239309 107.52320633227532,73.33197843621738 107.43949653984927,73.26836610757721 107.36629221631817,73.21328919513424 107.28564610332427,73.15425489740451 107.2053275666093,73.09267846816077 107.12647896963567,73.03355736263646 107.05074076307619,72.9749423785244 106.97104953162288,72.91557458382457 106.88458024805104,72.84776576414302 106.80816195390526,72.78613741176252 106.75085834397423,72.73975581996547 106.69128570694966,72.69763267328415 106.61205823963141,72.64309584749394 106.52902961270712,72.58496520538775 106.45266759565307,72.53058267524855 106.37654494024306,72.4778398383702 106.29912382914848,72.42403824607395 106.22100173269486,72.37076048308552 106.14110679327736,72.31614216397871 106.06629351278525,72.26473832330863 105.98714183709684,72.21266441805675 105.89261965733773,72.15063276830908 105.80698460659728,72.0890755587494 105.73302215454753,72.03619103650861 105.6532925155586,71.98061819561518 105.56913051372213,71.92195561195882 105.47926382701036,71.85868233787795 105.39966382587147,71.7981750262005 105.32705266934896,71.74454238529061 105.25138052018954,71.68956308415395 105.17067608946094,71.63329277309874 105.08617365493743,71.57357151705469 105.00846933283641,71.5172394861347 104.93026912290625,71.46250518668067 104.84686816533946,71.40482363453728 104.76126622745043,71.34536789781181 104.67855595806374,71.28616421572738 104.59741711186307,71.22848136441232 104.51450770356675,71.16954258842625 104.4348731330963,71.11209795377464 104.35101930878761,71.05388481252457 104.26554434898846,70.99248064797752 104.18664020234758,70.93475680203386 104.10842369380929,70.87910454345261 104.02715939724744,70.82281092656682 103.94726264021011,70.76744495134682 103.86575539598994,70.71329916893555 103.78094632636352,70.65730507831613 103.69828359389311,70.60232070473157 103.61414172246178,70.5479317391781 103.52921393484033,70.49244557141569 103.44344887340628,70.43711801529918 103.35977692607555,70.38170614653544 103.28002629482923,70.33013062881138 103.23308987153122,70.29423820446158 103.17455870299275,70.27638659050936 103.07775373148046,70.24908855951745 102.9782428806904,70.22111435132365 102.8623130291856,70.18738276066946 102.75350335864073,70.14024893555661 102.66259824284114,70.09886299448507 102.57177313471868,70.05846653191861 102.48170987973747,70.01863620660053 102.36495856764277,69.96967495132915 102.26038074532114,69.8955397832313 102.17999155735907,69.83524059905396 102.09990057724407,69.77511999832291 102.01936092644904,69.71522687908384 101.95944337968712,69.66678548006014 101.88826670826255,69.6372598098983 101.79539228424055,69.59796479218492 101.70265431267875,69.55884361364957 101.60865280283151,69.51872647280581 101.51620216761401,69.4773004818939 101.4270156081664,69.43763752095018 101.33703802301959,69.40055718017453 101.24467549869745,69.36356119029571 101.15207554160094,69.32643701811058 101.05995534521273,69.29002939978042 100.96788998505332,69.25463658312697 100.87424159910275,69.21998649925048 100.77901585388672,69.18386536755634 100.68597224683103,69.14628123423863 100.5935918255299,69.11060470118659 100.50068830369582,69.0749327293111 100.40687496619991,69.03986837908829 100.31338320956017,69.00371399172263 100.2206513477517,68.96862748511248 100.1267178288022,68.9346374187282 100.03313354415467,68.89970153895335 99.93949083881644,68.86657174187135 99.84435774381542,68.83377056834553 99.74794219833562,68.80309020347408 99.65174605514324,68.77315148509246 99.55614744539804,68.7424313147693 99.46156451157908,68.71126503970214 99.36664956728897,68.682494876595 99.2700442267108,68.65413623689118 99.17444781391877,68.62229374168882 99.07950302287905,68.59126546377583 98.98400444228047,68.559926695285 98.88900649495841,68.52672681105071 98.79502412103683,68.49323147566376 98.70148628911045,68.46148444242426 98.60610828329332,68.43266423842827 98.5102125787918,68.40166908467415 98.41492757789247,68.36959430491484 98.3199166927124,68.336605822545 98.22568615757181,68.30245502660816 98.13159101845108,68.26882014129764 98.03740505297702,68.23499958525868 97.94392946869152,68.20126858706429 97.84985803284377,68.17012362106283 97.75396728575085,68.13939959818268 97.65859322151032,68.1048659077254 97.56553826217163,68.06905382621531 97.471893111837,68.03637736929569 97.37748820489523,68.00355139794596 97.2827642318065,67.97070704714396 97.18809406049616,67.93669554937945 97.09428679752106,67.90165105003925 97.00072072505611,67.86744566168852 96.90653493804889,67.83387130038474 96.81179293392145,67.79927039173545 96.71831446875697,67.76227056473685 96.625397328131,67.72607024627195 96.53224330081265,67.69039630416128 96.4390057576541,67.65513544245609 96.34172419389873,67.61912566008486 96.25062075537018,67.56822209945501 96.16385911608072,67.51767037017039 96.07779992724672,67.4675235091833 95.99108165404495,67.41882143059492 95.90361317358288,67.37036278250389 95.81630136008006,67.32134954404687 95.728769440564,67.27226602466409 95.64228810308899,67.22209271816092 95.55575172557496,67.17365068835879 95.46846345139247,67.12679947665212 95.37945612435207,67.08125015312119 95.29067293929539,67.03366645930038 95.20332535614297,66.98569176062246 95.11523334323444,66.94003276910342 95.02585946159743,66.89450829943902 94.9372269524244,66.8472083528479 94.84888968468645,66.80012927005166 94.76081629673301,66.75267381930644 94.67299817011985,66.70566862247534 94.58483314229312,66.65993787261418 94.49591689677702,66.61541651095686 94.40583245333946,66.57122080748465 94.31679973348062,66.52510976332046 94.22744644600765,66.48009429684522 94.13828744833876,66.43368080293021 94.04993316606993,66.38685647065617 93.96113259934079,66.34065078079689 93.87274684676547,66.29334564796382 93.78426009417048,66.24617789681166 93.69654589529176,66.19799159087962 93.6085118673803,66.15071115248573 93.52053773297038,66.10271514898275 93.4327733034709,66.05460174085603 93.3449253188112,66.00627424574844 93.25735740357771,65.95706015098311 93.17070291525279,65.90733765935116 93.08358735630887,65.85880632414587 92.9963770229474,65.81004779388762 92.90849699866997,65.76147649542256 92.82154971456995,65.71098154863452 92.73439530727993,65.66028942750476 92.64905695190168,65.6068941961174 92.56431448945376,65.55454140838643 92.4819001213139,65.5046076782448 92.39330730382663,65.46646580560807 92.3016069083062,65.42751960233501 92.20998286219451,65.38954662722418 92.11745039525876,65.353780211859 92.0242018808889,65.31857117354542 91.9305016628232,65.28374627388365 91.83715843673758,65.24865967255897 91.74310696802284,65.2148997208829 91.64948768082851,65.18002153578699 91.55560351210525,65.14672390595389 91.46060347869046,65.112985700214 91.36701560903332,65.07632956430344 91.27375332646758,65.04105553260143 91.18005673467948,65.00559794156169 91.0861692652202,64.9701294976412 90.99259016147234,64.93414543997434 90.89994176479257,64.89788123096356 90.80631042645868,64.86328794877383 90.71321522542735,64.82697183892923 90.62033034278664,64.79235579501776 90.52623707398503,64.75868602552559 90.43251788383144,64.72351703176624 90.33897637759915,64.68921660231216 90.24460229391997,64.65617295226352 90.15014222003673,64.6225799826035 90.05575061832286,64.58844227627554 89.96148766768283,64.55331693451627 89.86791054241179,64.51693602991531 89.77465043781056,64.48047342665491 89.68127695428485,64.44358885987388 89.58799083761241,64.40540629891773 89.49609999217982,64.3656746702383 89.4041286415347,64.32754883184548 89.31122896468605,64.28930073200368 89.21914807677972,64.24910694130095 89.12802244288747,64.20956418761435 89.03567914837797,64.17214632299961 88.94360112663134,64.13377455540719 88.85054348225256,64.09712788199704 88.75788402715075,64.05845963018709 88.66568477149175,64.02041779036227 88.57330143584046,63.98298936020516 88.48028732181322,63.9460086105104 88.3878353245305,63.908137999024746 88.29537308194256,63.87177212472075 88.20191963529271,63.83627188805332 88.10857542421734,63.79969277203468 88.01573845605803,63.76333546335315 87.92256888753937,63.728098659613536 87.8285545390248,63.69295935626388 87.7348784986014,63.65595244608955 87.64273412425855,63.6184461522809 87.54980517316942,63.58393381132081 87.45571935548229,63.549404039326205 87.36169057381757,63.51352361374917 87.26702981738369,63.479695074803715 87.16700983358699,63.44302594430321 87.0774045882107,63.386216061454945 86.99252773031512,63.33374398825151 86.90690668431237,63.28085579538767 86.82226609968158,63.226972320976024 86.73835305744069,63.17465532081056 86.6525034036397,63.12402084685109 86.57551456183201,63.07721373560961 86.48967613066186,63.05154318045936 86.39324131376586,63.02153899855766 86.29699008174543,62.98947466644705 86.1893186882586,62.9510937764271 86.09493932162677,62.888134163454154 86.01124766745174,62.83312154688218 85.92757238221937,62.776730180356495 85.84373284939724,62.71964705826344 85.76141210627861,62.66127125289786 85.68037500544138,62.60427859867893 85.59915530236944,62.54827056048796 85.51657590202956,62.49229481089853 85.43356606653963,62.435038722765235 85.3511050073687,62.3772542774288 85.26786721246555,62.318131938528374 85.18689935632209,62.25741818414552 85.10610857763734,62.19755027851042 85.02784744615863,62.137447812851114 84.94901807392895,62.08051036802768 84.86810922316829,62.02204528540869 84.78814744448655,61.96379155863464 84.70756210914718,61.90646092830579 84.63073922384324,61.851312810750706 84.55102786556914,61.80159702671298 84.46622187280772,61.74900584137401 84.38238573248414,61.69616983287559 84.30124443273482,61.646364738091236 84.21777902089734,61.599650247662936 84.13055014091451,61.55164094011313 84.04236991843398,61.50229235511851 83.95501702780602,61.45220558363512 83.8679865743941,61.402003214026614 83.78247466555288,61.351796418379585 83.70805490424407,61.308641314029344 83.62728749234748,61.278804454267465 83.5354369688845,61.24599482349492 83.4409043815571,61.21395480313944 83.34419261131491,61.17957644336842 83.24920869170039,61.14350390710411 83.15514438964084,61.10762574254771 83.06056961502301,61.07065136723085 82.96691023265166,61.03261561413065 82.87316455435048,60.99435967642939 82.7802481746469,60.95476613232941 82.6870376123916,60.915321186492655 82.5845233952163,60.86943088723777 82.49348093600825,60.80931812292078 82.4094740887652,60.75690922039943 82.32484860567695,60.70265307526208 82.24170958124569,60.650290129860906 82.15636895071775,60.59952861571551 82.08406521046655,60.55433275297932 82.00224370800983,60.531703978000046 81.9050434127466,60.50349539039789 81.80907091420264,60.47437125509819 81.71286372345105,60.44661972935801 81.61597703180212,60.417718878006745 81.51828449034765,60.38828037493824 81.42212354759944,60.35676644867905 81.32810241701205,60.32721434510362 81.23325314279931,60.29950534873617 81.13816642245801,60.27251981337508 81.04243279175579,60.24735907282788 80.94611541178519,60.222602318047436 80.84793708347324,60.19854086064371 80.7503131780358,60.172711969001696 80.65191695585013,60.14800245228597 80.55632785308656,60.1217022520808 80.46172559048902,60.10022172010929 80.36354070925746,60.07831074545647 80.26532670154428,60.055965713715096 80.16849826802517,60.034467650248644 80.07106660351116,60.01427143917084 79.97313388551886,59.99399093925009 79.87655836437487,59.97488452040253 79.77761470394236,59.95685950250896 79.67624249778704,59.93669654633705 79.57849471507296,59.91635700420489 79.48201897203195,59.89836305277413 79.38222232020055,59.87988985530107 79.28000244995181,59.85953056709514 79.17741115523083,59.836984412572626 79.08041067909052,59.81432071459837 78.98358990827471,59.79417903904375 78.88402949624461,59.77196863864081 78.78392309174413,59.749449201864316 78.67563110887721,59.722379295930175 78.56865731064198,59.6885349215301 78.47264981895152,59.656852938874884 78.38079295184133,59.62803766697061 78.2899161744719,59.60074391647089 78.19609908803349,59.57419115587123 78.09453518486411,59.54407104614613 77.99097672228113,59.50942044234717 77.891031075734,59.47336817180851 77.79967437406805,59.43927790165509 77.70854055723025,59.40780222326525 77.61649939463854,59.37479498718695 77.52614839712831,59.344026162727445 77.43220869975553,59.311976969208814 77.34096597544469,59.28029285245882 77.24936440591915,59.250032108807005 77.15285086897542,59.217254882524045 77.05964539867338,59.184273807471534 76.96491970403588,59.15168387332803 76.86797206479972,59.116072191784305 76.77520581942343,59.081326834624086 76.68487659325302,59.04757626432823 76.59568699292164,59.01486316911051 76.54414378985882,58.99385333266628 76.48875505897348,58.9877327176278 76.39356826603033,58.97493385660669 76.30106357440631,58.96255393661124 76.20812313822242,58.95217334987719 76.10728992912412,58.94123417480718 76.00712191233544,58.92850057459456 75.90964057705635,58.9164051932023 75.80898238591763,58.903656432351625 75.71259829107757,58.89001704749209 75.61043100033021,58.8777946119229 75.50061460340496,58.8605009700685 75.39301162513533,58.84057574398389 75.2857573906075,58.81709359228946 75.18625403789761,58.79193281920843 75.08929052818448,58.7680523596968 74.99164625095904,58.74284871183171 74.89558498452716,58.718269897609986 74.79956675346277,58.693593455903425 74.7041383423648,58.66946540535911 74.60883590059231,58.6457921467762 74.51483484741517,58.623009627828566 74.42161168219634,58.60186802094323 74.32706507136305,58.582148416552386 74.25654057494184,58.56457649607938 74.1824363900244,58.5645659110089 74.08193150597215,58.565540974058564 73.98049426676275,58.56680185580425 73.87631436631058,58.567238946273044 73.80159661037095,58.56166422011918 73.73098406485346,58.57860929107745 73.63249167095537,58.60247643349196 73.5102364485092,58.632176016429696 73.38503866241768,58.632633946969904 73.28615068240725,58.63021839586043 73.18572387462282,58.62960371420808 73.08339701010487,58.6275255902225 72.9819883026137,58.62484748204523 72.88230697138255,58.621534147180896 72.78426418052852,58.61984937361217 72.6866087334663,58.61986555763521 72.58893689995524,58.62230263441104 72.48929978412008,58.626744168839764 72.38771369038622,58.630659867423574 72.28685693090092,58.63309154661697 72.18705682515305,58.63601786036161 72.08799346129564,58.63928849942484 71.98896972133268,58.644630003677676 71.88868471130337,58.65038793275179 71.7881314109371,58.655483846980985 71.68689674680594,58.660321847465404 71.58556825745035,58.66258966101843 71.48543046092277,58.66434031166885 71.38574272654544,58.666599739697034 71.28636079720467,58.66964331728973 71.18677818773338,58.674195341392604 71.08695409740334,58.67871476031984 70.98708214931376,58.68588397769353 70.88714677620578,58.694075862146775 70.78735166693694,58.70234275415268 70.68792896260476,58.7099420345283 70.58902954126873,58.71928201323463 70.49003926362676,58.729486388267915 70.3909618027424,58.740786052255764 70.29111504604586,58.752208996934876 70.19100703833219,58.76161200173309 70.09685625275894,58.76999059262813 70.0076125969935,58.799209057697404 69.91407913329722,58.831904498254154 69.82051602900609,58.86604328564523 69.72675341252359,58.90052352793316 69.63337286292,58.935010036934706 69.54034415936542,58.971156141460646 69.44708370828425,59.006430298818884 69.35482939728959,59.043520955040776 69.26261014588904,59.08082064116283 69.17143143898292,59.11971193158504 69.08038035797122,59.16029907356845 68.98908966117892,59.20059225426763 68.89845795090383,59.24191897202972 68.80806979014251,59.283512737940335 68.71801533232332,59.32677617651825 68.62695127786554,59.369092339293985 68.535975001956,59.410950486147065 68.44502313387568,59.45257892624365 68.35472575098593,59.49400725126224 68.26507794301553,59.537905941253015 68.17409364273709,59.58045633071837 68.08360632635781,59.622795402818745 67.99301937542685,59.66558741205192 67.90570476649307,59.70545238261228 67.8271510966333,59.75966561189925 67.74581013108319,59.81683559421098 67.66458316969567,59.87547079179979 67.58196333859331,59.93266178244252 67.4994374663747,59.989841822504076 67.41631424220947,60.04543445070533 67.3346324952367,60.102032903624135 67.25268778502533,60.15985324048017 67.16952963465909,60.21605852417641 67.08422598840419,60.27423655682748 66.99198750459855,60.320532663342966 66.90261251692239,60.366082846742756 66.81196877891526,60.41004405446581 66.72173199273647,60.452711453394315 66.6326310659929,60.4967381342592 66.54384537596279,60.54142490962053 66.4556202330284,60.587698151108306 66.36688031377534,60.63405029157986 66.27778939994303,60.680247181271845 66.18779596884568,60.725632512469 66.09680881695898,60.769223578771566 66.00557680674801,60.81123219597692 65.91496035112597,60.85270210700982 65.8253135750573,60.89548990473211 65.73591830947689,60.939317515456544 65.6464061153714,60.98398673896701 65.55870956356975,61.02673421595616 65.4767585024516,61.078251052491964 65.39388723047315,61.13283131114828 65.31159767758597,61.188078628887546 65.23038555600561,61.245788368957626 65.14824708889456,61.30272776918891 65.06708560589928,61.36067214431378 64.97991062448197,61.422018517457445 64.87977913969024,61.45964076500573 64.78533092612469,61.49282528763902 64.69231045905542,61.52689311488058 64.59987027977286,61.56332257660783 64.50643589534072,61.600283642812414 64.41222131294172,61.6353394576518 64.3180995101884,61.67030571936095 64.22690305236597,61.70241115069858 64.1416690565941,61.747869992418856 64.05273867961344,61.793727933623366 63.95931593915873,61.842733102958135 63.85730522543105,61.8697522495104 63.76135886288076,61.89574959512703 63.66591914447482,61.92314652250201 63.57043571561655,61.951937347792054 63.47421700860487,61.980686225037964 63.37781734565516,62.007987733075716 63.281090071139666,62.03607807404281 63.1830298833488,62.060814626780726 63.085703212777794,62.08436706007495 62.98844247124026,62.10833217512735 62.89128986277276,62.131143255734536 62.79470686367046,62.15578734739016 62.6971495186694,62.18002587942071 62.600370186259944,62.20256241700176 62.50461937315461,62.22894677321924 62.409420176040214,62.253837604480175 62.31656839499945,62.285974431922895 62.221937387651344,62.31795245410146 62.128007497991575,62.35089554907571 62.033948591248304,62.38462460599621 61.939097332338626,62.41821332504219 61.843283507448426,62.44990181550161 61.74726366650375,62.47998920765231 61.65148075216914,62.50903815756358 61.55614513618236,62.53852957933267 61.46064278582538,62.5683590752074 61.36500233256056,62.597724922480054 61.269709593880776,62.62729136950144 61.1746054839161,62.65743542925542 61.07917081612761,62.68802313451581 60.98323186702244,62.71751990400819 60.88768817026257,62.746586702082254 60.792907555023575,62.776276165080986 60.70385674022781,62.805682687601546 60.623687918158204,62.85554339548178 60.538265910782556,62.90751918749911 60.4533500157394,62.95995780104751 60.36834850884358,63.01260286968943 60.28361939162625,63.06499989674689 60.19939396359614,63.1189445957946 60.11366469337775,63.17186902313773 60.02739589465212,63.2235427429228 59.940734007104055,63.27439330513389 59.85317224270078,63.32458153094783 59.764656968282175,63.372212003571576 59.6767832147584,63.420197612189554 59.588148931637136,63.46733168674196 59.499383983371196,63.514032832544025 59.4099691785775,63.56020890808355 59.32049147706231,63.604422432259575 59.232408718783695,63.650789233988846 59.14340596536513,63.69682186197631 59.05454612513819,63.74267922266172 58.96620235037058,63.78839092720912 58.878840817509676,63.83585177089438 58.79127796684716,63.883764038883854 58.704071745205226,63.931980796762325 58.61710123204916,63.981171731903174 58.52973832266991,64.02985025802172 58.44278370957405,64.07898900154979 58.35556946040139,64.12814142359773 58.26890885425637,64.17659856963323 58.18347112676688,64.22801252937204 58.0960101095879,64.27824535285801 58.00872348880563,64.32675706875746 57.92229459072632,64.37703399901515 57.83458087713279,64.42583919838825 57.74774561678046,64.47461163171845 57.661574377170055,64.5244029456525 57.57541986556794,64.57498432917961 57.48895899723524,64.62537999386628 57.40237791202463,64.67585768404565 57.31548988856629,64.7254779689049 57.229214610664414,64.77550805096737 57.14262312792574,64.82619615473058 57.05568065357514,64.87505866723093 56.97061595722542,64.92609152268076 56.88534253939039,64.9776834996017 56.800409504440836,65.03018836593611 56.71494605321671,65.08259028397805 56.62893594108469,65.13458013274132 56.54225744635381,65.18536167835694 56.4555093347718,65.23564949383774 56.368312661730826,65.28547517040188 56.28044339386002,65.33442079504307 56.19209448470253,65.38221458478817 56.10383965227641,65.4293238914896 56.0155187895938,65.47691263328014 55.925980642496725,65.523218235541 55.83597615700955,65.56804827599234 55.74041692803873,65.6144188920161 55.637053820074,65.63713857016862 55.539970753661315,65.65899472537355 55.443351093772115,65.68186002602046 55.35130829952722,65.70513407074381 55.26546737502893,65.74526274848834 55.17629103888554,65.78943594983129 55.08632817745551,65.83338045265646 54.99644601225212,65.87735372345577 54.90637099641947,65.921075416551 54.81632113658749,65.96457238000453 54.72661012753197,66.00809534568721 54.637013733791186,66.05265680366647 54.5463444456079,66.09634909385602 54.45548485474615,66.13864124056585 54.365171779794494,66.18118601459932 54.27583808886361,66.2234842246215 54.18882147542689,66.26952872222964 54.101249521439634,66.31787342166751 54.012294842747316,66.3647962292341 53.923380279490175,66.41126116709664 53.83361979540485,66.45712910114774 53.74318865269838,66.50076184202676 53.65359672296873,66.54472159318482 53.564121330631686,66.58879451873344 53.47524686569336,66.63354991670684 53.386416700142306,66.67950221812983 53.29680764116493,66.72457454799618 53.207014477665176,66.76963827970127 53.11620289537541,66.81321134871175 53.02592253036406,66.85528984207134 52.93723201586626,66.89958614722606 52.848364948293835,66.94480666397263 52.75948724932666,66.99048377885025 52.6701791960358,67.036250644666 52.58063821918239,67.08068560293091 52.49200419825547,67.12628775164383 52.403303506328776,67.17174110902373 52.314965487517966,67.21868065367882 52.225644539122136,67.26429901749643 52.13707043192445,67.31002793422746 52.049124297170444,67.35636087791123 51.96210247437975,67.40394671119849 51.87575504469746,67.45311117944631 51.78954126173028,67.5031500714725 51.698095115438434,67.55635661506372 51.597141392770176,67.58722256181012 51.50214678883464,67.61734555629715 51.41292113005552,67.64519918880025 51.33428360546354,67.69599562515404 51.24989030483834,67.74928992604778 51.16659500199017,67.80344263010282 51.0833744115869,67.85906955457415 50.99840886920455,67.91382240350032 50.91286364241586,67.96580904430583 50.829142604690695,68.01927992363795 50.74515471799723,68.07340733982785 50.66136953090149,68.12729821683172 50.5788104531567,68.18229762133916 50.49633070343666,68.23915252267311 50.412081818953205,68.29442491904197 50.32803834839599,68.34865921094114 50.24412596537956,68.4035932812543 50.15829104969904,68.45755308736527 50.070806720956774,68.50814045191706 49.98387838810323,68.55779536887289 49.89688336962887,68.60757687741582 49.80983808774163,68.65623296037974 49.72404027839348,68.70661224532581 49.637645177377784,68.75722240318261 49.55171488513318,68.80708253768664 49.46712713260394,68.85964869794117 49.380584204258014,68.91177963423073 49.29299609667555,68.9613245531189 49.206123064009795,69.01071921314127 49.1196352531788,69.0599367167726 49.03421186217823,69.11074430668297 48.948689576534846,69.16221265014897 48.86317232402658,69.21393369293479 48.777646287499884,69.26567797294379 48.69197577048791,69.31767431986174 48.605219444429935,69.36914490949462 48.517147535882806,69.41846809999984 48.42917155043753,69.46627748721947 48.34153675588016,69.51476629591573 48.25334265082384,69.56198790415809 48.16577992004413,69.6102532605141 48.07750502597451,69.65759186388448 47.98980724807089,69.70517119114488 47.901604567540346,69.75350045521321 47.812018661427786,69.79947242083048 47.722989823509266,69.84509825108148 47.633688809296956,69.89074112255415 47.544029357183064,69.93538843331201 47.45504734558176,69.98014836462754 47.36651238386617,70.02599363886735 47.28055275772869,70.07041345444735 47.19556174812532,70.12911288383937 47.0891995474321,70.16742707150725 46.98249731448523,70.17683207146676 46.881790028130546,70.18292504186304 46.78091786495861,70.18779676444439 46.679955709855264,70.18990217471341 46.57876540305207,70.19079876439868 46.47726181075396,70.18806540802996 46.37626011591603,70.18274063968848 46.2763508305724,70.17547186587667 46.177065419336046,70.16954591243774 46.077717256628034,70.16446189862957 45.977550959969825,70.1605766517634 45.872748985559724,70.15400161650442 45.770783842363166,70.12932758521518 45.673937578833815,70.10384108747054 45.57701417990119,70.07960370965051 45.47966549785685,70.0543660183477 45.382589308642494,70.02773738228223 45.285977596783376,69.99994161556002 45.189778703396236,69.97134455282306 45.094238722087184,69.94236223151347 44.99918026022847,69.9147637345273 44.90295481246565,69.88980111393363 44.806845858348844,69.86433775953367 44.710327115621396,69.84165492485593 44.613497376229,69.81950330431212 44.515963737834205,69.79931643991864 44.41783625196311,69.77851332955335 44.31976160371648,69.75694675844657 44.222137894790166,69.73453972980931 44.12542940237772,69.71260904883458 44.02792188503767,69.69364202280151 43.93003974422821,69.67417184145715 43.83219258637324,69.65594543543429 43.73448405204527,69.63840941069762 43.63676410416452,69.6231450395804 43.538512787859915,69.60992671584431 43.439314522515005,69.59792401477888 43.3402902767149,69.58491451537896 43.24138095274629,69.57344858478346 43.141809253186885,69.56209890377612 43.042618414944236,69.5497273971709 42.944063127642316,69.53865468058989 42.845200074193244,69.52962606812112 42.74449899506018,69.52124931671557 42.64388570441407,69.5077978711482 42.543575381401375,69.49332429887254 42.44482370037402,69.4746456304857 42.346126430448834,69.45838355127842 42.247198402531616,69.43955181409916 42.148893559918484,69.42049539596961 42.05069165438998,69.40124858330785 41.95255090573693,69.3819376575014 41.85433729998028,69.36259626533639 41.7559002337957,69.34281700339568 41.65842265449504,69.32197362159928 41.561411074880176,69.30376533634897 41.463143932649345,69.28802749558277 41.36396778671449,69.27137933118668 41.26511132663615,69.25324906375904 41.16667919437613,69.23467438478498 41.06812576095894,69.21590659267568 40.969578828431814,69.19598213573654 40.87170944775798,69.17514178698303 40.77428181972071,69.15518423197064 40.67694899442208,69.13668126207388 40.57902214161057,69.12037034799528 40.479830205348236,69.10447361931284 40.38065229046923,69.08608234385181 40.27594759010497,69.0651164141172 40.17989602943744,69.01854967084131 40.08982726787161,68.97346046730803 40.00169919031078,68.9270789801958 39.91323023594438,68.88460055352296 39.82204290228167,68.84498233169425 39.73055043406924,68.80362919259395 39.63997955402753,68.76251473423662 39.54880215052238,68.72362860779475 39.456357342027275,68.68551687905111 39.36421313218142,68.64624823024425 39.2723693595449,68.60768218243945 39.179898469455274,68.56995741343965 39.087197893203836,68.53159750406523 38.99470021803465,68.49245583111627 38.90276943625178,68.45251280655172 38.811045140987304,68.4126853216615 38.71928519272801,68.37282515661028 38.62796284312581,68.3329810240707 38.5366285954843,68.29487433441167 38.444244105481566,68.2590466982306 38.35076368991195,68.22399161570016 38.25717519280238,68.18839351594836 38.16365022959011,68.1527648631511 38.06990074886274,68.11675349686207 37.97669551618332,68.0794086135307 37.883595920867606,68.0418904395214 37.79099975715245,68.00316739282331 37.69853721650348,67.96431934028573 37.60670554615996,67.92464845714665 37.51502986600134,67.88598377761969 37.42269349627519,67.84828714489001 37.330115362210755,67.81039366058654 37.23747715771376,67.77242949086154 37.14437718129037,67.73381425628217 37.05275903621251,67.692842700235 36.961276223503596,67.65334168686344 36.869846883513944,67.61399009734876 36.77778813491115,67.57624267822808 36.68496122508618,67.53848514232153 36.598139592566234,67.50163334033469 36.50539935934374,67.48717431714185 36.406871754658184,67.47213636867966 36.30819917851963,67.4577068029999 36.20946190352205,67.44375810855557 36.110143971263646,67.43037663189676 36.01097089891358,67.4154954200076 35.911925238215986,67.401006764506 35.81257469442733,67.38569117305775 35.719832576284325,67.36973878758539 35.626831239855704,67.37791830882895 35.52753132966398,67.38788814323341 35.42779405742242,67.39705072087722 35.32858306103941,67.40637954120302 35.22959759197417,67.41687815355019 35.13052772507106,67.42803436433113 35.03122334622512,67.4397887976144 34.931715230752495,67.45100404084945 34.83285832126019,67.46214929560651 34.740486140808635,67.47409365801931 34.65329536109485,67.51009723425636 34.55900245542261,67.54563190272884 34.458947245587645,67.58246116549033 34.353292895969844,67.59294749731623 34.254112440407575,67.60380814200317 34.15502021248858,67.61414646057806 34.0561570374678,67.62645659138863 33.95617902841793,67.63839848988157 33.855344566818296,67.64813753049985 33.75430922101105,67.65489573177757 33.65409354929195,67.65949736263092 33.5544928164456,67.66487264132036 33.45423290961122,67.67049439467154 33.35451127630241,67.67420495359376 33.25540992576618,67.68060151874937 33.155679985053965,67.68708448946018 33.056243581860016,67.69373513948699 32.95672307735149,67.70157147694063 32.85717642604917,67.70891564794488 32.75778371083704,67.71747382252877 32.65812148966336,67.72578805907793 32.55844153203254,67.73433615911334 32.45855566146079,67.7424847460732 32.358582569179184,67.750181627425 32.258965540708886,67.75722982319493 32.15979462455204,67.76540018289676 32.0607905476252,67.7743700190981 31.961210640263367,67.784945153134 31.861636238146485,67.79340562156457 31.762927783690408,67.80415977046819 31.663439041275264,67.81545655899052 31.56467667675466,67.8256930685815 31.46596968286297,67.83975015851668 31.366166684555264,67.8513075185781 31.266638598449585,67.86357079461618 31.166974992938105,67.87397674662873 31.067750050492712,67.88537825520544 30.96809772944487,67.89627409731055 30.8686781389967,67.90670639621901 30.769010774597643,67.91774172246086 30.669300726156404,67.92709219640328 30.570021275062977,67.9374941542269 30.470725429974326,67.94953438995435 30.371960786868783,67.96912202323092 30.27285833945902,67.98716629151524 30.173661247149692,68.00485748422923 30.074173932095597,68.02109875165813 29.976115676015358,68.03669166347942 29.878427203913333,68.05413752747037 29.778618918668435,68.07136502999916 29.677843139322132,68.08643081256227 29.578015030442863,68.09990922380848 29.47936929618178,68.11318998499644 29.3798373653181,68.12705000874935 29.279147862746417,68.13942860241278 29.17708670152841,68.15094489753129 29.076114801403616,68.15917022292156 28.975966243949237,68.1684105732642 28.874988628923397,68.17564705089444 28.776420534284956,68.18297706580725 28.677251736545752,68.19141015221503 28.577645249883144,68.19922900362042 28.47720405954298,68.20769829279313 28.375323553940838,68.21462699365291 28.275571843537225,68.22063606522099 28.176623739502297,68.22756892741279 28.076431563130136,68.23457297880972 27.974118917124624,68.24126133079935 27.87173023143383,68.24582925226736 27.771606125931044,68.2501190100096 27.671095846913683,68.25472116844057 27.57030339398703,68.2587389241279 27.469187592066113,68.26285590563901 27.368116568084464,68.26615290996057 27.268579371442478,68.2696849190761 27.167095715091207,68.27382742612241 27.064597188129994,68.27646238791618 26.966975325681073,68.27903115179218 26.869638925896485,68.28430301081936 26.769459554423108,68.28956514387852 26.670938138499366,68.29519896840638 26.57254797020605,68.30215689390559 26.473620967857162,68.30952846313815 26.376566332800042,68.31774321907614 26.277840866209182,68.32770224582421 26.180179286617246,68.33719531223129 26.085069262000463,68.34898572800952 25.985607708275506,68.36208568025103 25.925757062534988,68.37019047712234 25.87457018505941,68.3979850731247 25.782567789335992,68.43705717478471 25.68405122511956,68.4776062975955 25.586484292682055,68.51496930833832 25.496787053719185,68.5507154414836 25.40743437760046,68.58823880250443 25.313206004696944,68.62770020844883 25.215879624295294,68.66697223019574 25.120607785606456,68.70450034631925 25.029645078803032,68.74103815717304 24.937220945380457,68.77914425752455 24.808977117451622,68.82548452185398 24.677462972828266,68.85315636126303 24.581922482758458,68.87524086426173 24.48392624362285,68.89844679487743 24.383327767847067,68.9210041039365 24.288754755072304,68.9424852591947 24.192583872477393,68.96576148495326 24.091258257864308,68.98855127659347 23.99129326794467,69.01063829768714 23.892394739680856,69.03200708919195 23.796046404176565,69.05298270697301 23.692327556327545,69.07523046964278 23.59049949176139,69.09426809134833 23.494264242148127,69.11392970199117 23.394900685335315,69.13299956008157 23.29330756958278,69.1524086386754 23.189536205462975,69.17026380826015 23.090362169136913,69.18706172812506 22.996579304918455,69.20321007530248 22.899281743148634,69.2209529056372 22.801524224425712,69.23734683567932 22.70925784670131,69.2542363490049 22.618298638691925,69.27126863806637 22.529764041624162,69.2893658611262 22.438109920033714,69.30889448746777 22.34354814483803,69.32924738869531 22.24845492201088,69.34976934952554 22.15270188319754,69.37062267312794 22.051994811680615,69.39220259527184 21.94660630849781,69.41318628923418 21.843871409795746,69.43220470257722 21.738563005037285,69.45119261860059 21.640493367704252,69.4669171270674 21.550007934718277,69.48357287835938 21.449492754129384,69.5017734100811 21.342536241172933,69.5198416312534 21.241807222416,69.53520536710552 21.147384069169636,69.55072592411481 21.04548502317267,69.56739503370784 20.946740584390994,69.58241636779817 20.847596622718253,69.59867901067672 20.750032318259365,69.61339887288943 20.659197468609264,69.62892388877914 20.56446477605206,69.64563424197526 20.467784908482624,69.66325106593317 20.36768705365837,69.68150266592565 20.269218233235573,69.6991515464692 20.16480119949091,69.71834730476101 20.06517546013094,69.73474511066689 19.971531225321122,69.75248069163406 19.868747843627695,69.77118607222772 19.772272390465293,69.78857905304677 19.67593191056301,69.80746452635037 19.583838521621438,69.82530705993146 19.488435460720908,69.84642484818492 19.384214187338912,69.86751375741513 19.280047112977343,69.88892004664723 19.177945024626037,69.90862162306674 19.085176187534554,69.92804750666826 18.99426551448305,69.94833604303092 18.899993269761733,69.97061880484138 18.80153970396391,69.99376500151583 18.706503461343644,70.01673107001015 18.61151299341004,70.0407801662669 18.507845270622216,70.06656421883898 18.39540722072619,70.09236970438405 18.28989934823428,70.1151881961395 18.19242405310255,70.13763566217676 18.093097664642922,70.1604792570664 17.993887278029508,70.18351918770996 17.892751631965538,70.20695378431665 17.800823914503862,70.22895797798913 17.712815961652286,70.25270875887607 17.60674620046963,70.27939820259986 17.50599772270215,70.30338584955523 17.423254272497612,70.32672243161683 17.344339202674607,70.35120667376185 17.249850434313018,70.38050152164952 17.143492387709546,70.41005222250588 17.052041499203497,70.43704774096491 16.96123587305987,70.46543718993918 16.864989391744047,70.49455411956365 16.776973938403472,70.52254975184161 16.685873193011435,70.55250070198333 16.59057458916029,70.5827129286965 16.4959550305881,70.61333242781954 16.39688196218721,70.64432181980334 16.301543880582916,70.67422082960732 16.21089036124686,70.70349257511775 16.117446732526563,70.73369039765387 16.01730986886353,70.76475650723516 15.912539235280892,70.79573513742761 15.807239876876581,70.82546374533925 15.712237897736836,70.85241469154961 15.60261289509665,70.88241062929382 15.49420214626284,70.90837728409764 15.402903963157462,70.93262829449473 15.302950817714935,70.95748913924983 15.075650614758782,70.993900843243 14.834847884171051,70.99279566475536 14.728625789352993,70.99145059380739 14.634973702686022,70.99148020671862 14.534890551735174,70.99070422303858 14.302018611996651,70.97143737196994 14.078165879594028,70.91649304002242 13.98143897704574,70.8927243941396 13.883827141160054,70.8678102515729 13.783963924022517,70.84180016139467 13.684184259343406,70.8145076774071 13.58826428344034,70.78795488732318 13.486711879303854,70.75901299804953 13.381989101015266,70.7275540417519 13.294186615553052,70.70024098501337 13.206418973210798,70.67436011556313 13.12033805606906,70.64777909957313 13.022597012381881,70.61939664416711 12.912543029643581,70.5841309179876 12.821859888292856,70.55431265319902 12.741577371450884,70.52795599620165 12.648101083455867,70.49892112351581 12.547501889747213,70.46590382331578 12.458675641950563,70.43644665074736 12.376872589843106,70.40922063337756 12.299264333086633,70.38430885064744 12.206419219799843,70.35629957278412 12.112960000637884,70.32692513950364 12.043069947782168,70.30442756176595 11.972836941934963,70.28425488920641 11.881308169860036,70.26030550511872 11.77465129879242,70.23255149830212 11.661920868704666,70.20184122653853 11.555372253072658,70.17075323298891 11.456679883831141,70.1411093433394 11.371918330647539,70.11459902484617 11.296303076805533,70.09211256254773 11.226151005072138,70.07184032591923 11.14679817325395,70.05252204204874 11.052418195492143,70.03048606189033 10.826120716241412,69.9784848337763 10.609481879567774,69.88901875941535 10.514450289519983,69.84303064931409 10.420008936891856,69.79628026487369 10.321474325998665,69.74795224197504 10.224313637597717,69.69833703479031 10.146716163392131,69.65797164283683 10.059416098790415,69.61562308095652 9.971427613505943,69.57154428634412 9.883882536285228,69.52981299105171 9.792064919409269,69.48507634116706 9.70557568939766,69.44382271432055 9.624560870553356,69.40497805797197 9.543349744186981,69.36828023621298 9.455970499426424,69.32922003534976 9.370901774569942,69.29209212788585 9.288732758502277,69.25682838660855 9.208071037594756,69.22369113830732 9.123901070794522,69.19032158257187 9.028532138496711,69.15383285090365 8.928340753159455,69.1144541590842 8.70538857748641,69.0190313701252 8.507229564185074,68.88663812580937 8.432788306154578,68.83198884252357 8.360199560937273,68.77974437542231 8.289843866908162,68.73020911376332 8.204325079552376,68.6723551778659 8.115979204870754,68.60999509729683 8.033226173895379,68.55218019921443 7.949513542990232,68.49269725865449 7.855222780392212,68.42613496843728 7.767264722494097,68.3598662915703 7.690369027237342,68.30303212263038 7.6081858305537295,68.24167984100347 7.534120958442541,68.18599129876172 7.439808148592154,68.1172711053437 7.344769310306733,68.0417559698334 7.262710912408013,67.97629948286036 7.175380287344359,67.90459025491607 7.095878536861251,67.83740344009703 7.019324770347392,67.77260563233989 6.940356265248804,67.70518455317695 6.865673360471976,67.64034963550255 6.793542860147693,67.57805914306773 6.716531085261053,67.5118832605726 6.6264808469015435,67.43402367592688 6.554552367383738,67.36652856561759 6.490104880450112,67.30920212903301 6.486690944489223,67.29459067928836 6.469244638877988,67.28371520786224 6.3710066522402435,67.22066168507824 6.28423186903617,67.162838416562 6.194457666465213,67.10293806693115 6.086852477642433,67.02964928843672 5.983317972453609,66.95227730959515 5.904733438362731,66.8894536358447 5.8352913843252745,66.83419294733525 5.754058255728822,66.7719975086195 5.660391510605996,66.69927627531489 5.594194847116339,66.64231381063723 5.526056463375081,66.58989184395405 5.444913032632407,66.52611256676285 5.475864253885293,66.52755903919466 5.489215411046103,66.5318338157547 5.387390641353278,66.48898149703982 5.298772268815636,66.44953944974898 5.216033409969051,66.41391147406449 5.1249897829865265,66.37612377127506 5.028369656553767,66.33643468533467 4.919117673319974,66.29163133704712 4.817037856630214,66.24570465420051 4.72765526102161,66.20520853712404 4.633145298178212,66.162911309358 4.540314909722435,66.12075203715416 4.4463252776039255,66.0787013776051 4.344884975249831,66.03306476399185 4.242156301356555,65.98516816859636 4.150070408689098,65.94029407069151 4.056980541539086,65.89637056354897 3.9569386494963656,65.84811068604729 3.8598148733639692,65.80020265520099 3.7808470496563005,65.75969700326434 3.701756406951467,65.72357007339119 3.6118190140707838,65.68283086098599 3.5304730372700828,65.64692198642189 3.4470537437993576,65.61273214601258 3.2635951262739176,65.5350729597461 3.0953805375029644,65.42153896406629 3.012038381552662,65.36042568408986 2.9336787196010627,65.30304327511557 2.854872941362471,65.24736425715069 2.775008311410387,65.19126343310802 2.6967556084370434,65.13794705191397 2.614531250680212,65.08309644822404 2.5242550606610665,65.02294897451443 2.4372084960862552,64.96321245046057 2.357382849326861,64.9098885291507 2.2776492555748,64.85779020332059 2.114878704171458,64.74087142990528 1.9766720645267588,64.59412499024063 1.8635828878003715,64.46323287094069 1.7719386413162974,64.31983669272299 1.7174201995526093,64.23788018662876 1.6590034547788464,64.14821453708842 1.6009263632153545,64.05788590928604 1.5432505459712873,63.96692736725913 1.4895376647346543,63.88175108469126 1.4405200812980536,63.8072314033663 1.3855818846611945,63.72612157586876 1.327598826108162,63.63735389237945 1.2703417302650504,63.54990336702897 1.212892326560872,63.460398215051505 1.1570983595364046,63.372955752818704 1.1001320929710694,63.28274840060127 1.0384813007874905,63.180641919623135 0.9807346674858433,63.07856120819216 0.9315436430778339,62.992265527375494 0.8860423461032748,62.91541954572158 0.8358611735193471,62.83197473329957 0.7818896675247309,62.73852843015732 0.7275554224303482,62.641852839329324 0.6784137022523904,62.55204931873225 0.6377885921054341,62.48172908619077 0.5946455900969775,62.41160600106978 0.5488272263787941,62.33677509172555 0.5000746879616369,62.25935708237148 0.4485122403294227,62.17593459582935 0.3957252239389354,62.09043275533375 0.3380090528476132,61.993899020167106 0.2838230580097775,61.89864639471012 0.2320346668917076,61.807137888867345 0.18011762557233235,61.711957478441875 0.13092054471514802,61.61981547300638 0.09109775766025696,61.54462427933129 0.04957039554438125,61.471759300416544 0.0029584207069615065,61.38806007254817 -0.045840787902756475,61.30122291854818 -0.09817193081205566,61.205150269817715 -0.14434361008604257,61.1174135974925 -0.188119976427073,61.03581345520717 -0.24012561609724703,60.938425071195596 -0.29007436592528757,60.83886311627687 -0.3334532412155451,60.75118355697162 -0.37904298376602397,60.65920253785526 -0.4199488306405329,60.573505964143635 -0.46375173894039445,60.485605708666206 -0.5061221666921079,60.396331089569216 -0.5460741473083287,60.314832422949024 -0.5864897183133205,60.23178390889035 -0.6237313799604585,60.15681026279142 -0.6710400263696201,60.066929798217764 -0.7187441771816179,59.971554478994186 -0.7663027010759038,59.87757026985666 -0.8138300005508277,59.7793065818001 0.8964198024310435,58.862112524417526 0.9434159557044239,58.940102394851394 0.9936398310183421,59.020584808324294 1.042353609273085,59.100433867982424 1.0951393504412081,59.18370395517089 1.1548592402349178,59.28365445703953 1.2087535745155846,59.376973858898154 1.263032178761787,59.47188550058358 1.3116717501811048,59.56070405948869 1.3616586715111256,59.64944883750499 1.4111222549903872,59.74217133804704 1.4575300016811519,59.827775402688594 1.5054583471396514,59.918036820786355 1.5467353541777986,59.996457621448585 1.5900249761897403,60.074906699602884 1.6411213246557224,60.16937236315488 1.6876603503149423,60.25884947469195 1.7299039459703105,60.33900287064678 1.7770965756130586,60.427623879719675 1.8249190238703767,60.52022592732815 1.8779158078168876,60.623614135082974 1.926810107622255,60.727669359779426 1.9668552441153633,60.814512903041035 2.0052326472953514,60.897789527479844 2.0456763189843237,60.9837443885339 2.0835992099463434,61.06601909380858 2.121511366381421,61.14514190698131 2.16525524582693,61.23480223748476 2.209446194875195,61.32696815324799 2.256481818954679,61.4251195829359 2.3032486266790557,61.52756807461997 2.3513338379096735,61.635426486035016 2.3965910347391315,61.74572803885845 2.4314983037559785,61.837406659022754 2.463879362201359,61.92095441887942 2.498057887330158,62.00703408046913 2.5375478562427043,62.1023603126341 2.5790459445801943,62.205600718459436 2.615209263475287,62.300176915167434 2.6440920041956764,62.37836087458616 2.674582580050834,62.45376486737211 2.711827608417664,62.53997812593246 2.750726058325423,62.62869850363911 2.7888680181124235,62.7148700183704 2.828757496458698,62.80224095372559 2.868087098623543,62.888202334973684 2.9126519588743074,62.9805835495216 2.959970988959114,63.0813329667144 3.0011593502690506,63.172207114884756 3.04002770346978,63.25640342763818 3.0800293601891853,63.3403749981583 3.121216831880463,63.42414233297327 3.167694154358756,63.514812173666485 3.1748984875444504,63.545280765592906 3.191342968912849,63.56677313179128 3.1819133309102625,63.573051147192025 3.1831374545624715,63.57061270638206 3.266565898396029,63.63417833124923 3.3493165729177448,63.69734020202879 3.4242235804309846,63.7549537546171 3.498168770102673,63.80896116889938 3.580413213831588,63.867908690579966 3.6660341732049337,63.92924579947272 3.749056874886117,63.98919546958407 3.833408553653369,64.04918686366732 3.916873911110055,64.1093317412843 3.995821837747356,64.16510271642252 3.9904436966579975,64.16769060199873 3.994327563831572,64.1600513659379 4.097882391175405,64.1968592589123 4.202041040689164,64.23570353555893 4.296974402256542,64.27127162391719 4.4031326841019585,64.31052928101627 4.506395165432139,64.35243792350607 4.5922680912456,64.38522813970975 4.676116506757782,64.41560893099569 4.768164351250613,64.44734272837592 4.860515526962384,64.47981827693228 4.943339918008285,64.5065545167481 5.028736076759845,64.53227711278232 5.122238143970046,64.55984586635081 5.21671642911862,64.58779694140456 5.309980037967009,64.61435525643725 5.408449686150557,64.64249975781847 5.493795546794715,64.6663700339022 5.5741849718623,64.68509727869758 5.667711954308828,64.70740881359963 5.766908609602093,64.73133525019193 5.874072635603282,64.75845195018988 5.974223237745136,64.78508769189392 6.06182291607363,64.80640996699792 6.265382512514789,64.87249695615817 6.4640627998058395,64.98287900774558 6.548963082097954,65.03058733238355 6.6492190222340914,65.08606972930943 6.745606061024586,65.1455827545551 6.8172598922519985,65.18541864912439 6.902986405977475,65.23333441708505 6.999356624617292,65.28990525467445 7.085056381850661,65.34114591200121 7.147410844538385,65.37549165931289 7.210564098242714,65.40632566557623 7.293183712826285,65.44781748431599 7.378778604719052,65.49142742094979 7.4537618483613395,65.52834592115359 7.611942305406505,65.61315346932254 7.763956427992442,65.7244074978329 7.855848209635883,65.79181290602259 7.935876889080333,65.85435249046864 8.001789841814924,65.90169467507457 8.08143491101292,65.95985154450524 8.16562347837847,66.02231821249252 8.246447312986735,66.08325154997742 8.323516667106627,66.1409391695149 8.40337878701098,66.200777112953 8.479976091634414,66.25862263393093 8.550018013198189,66.31033901746173 8.627095233903733,66.36602647334773 8.690581873268142,66.41245260622468 8.760170585116482,66.45834607335742 8.848401085061429,66.51953444162052 8.928512069519428,66.57506072418556 9.01446917526793,66.63432550099772 9.087835650873387,66.68627016893518 9.158569887557356,66.7326979208101 9.239531095013298,66.78671620032918 9.32236768261361,66.84106225008497 9.39889555403574,66.8919128043773 9.480647308517566,66.94369720955339 9.575848847910299,67.00637069292661 9.667622636216851,67.06807778383848 9.756499788481985,67.12887154650396 9.721064479526017,67.11275812005915 9.685386763855666,67.08753701648376 9.772637245834073,67.11791179323197 9.865513442065184,67.14897875403395 9.969053874779732,67.18463677187603 10.075429929746072,67.22232939295317 10.179293826596352,67.2604942245291 10.279848755579241,67.29782341300184 10.377517297747096,67.33464019516309 10.4813351777441,67.37386514208505 10.583825913610019,67.41455482668736 10.680925833758574,67.45264238677092 10.772000312277338,67.4888407814722 10.868335581917739,67.52577344259082 10.962791088582243,67.56363480786185 11.059130079616516,67.60051185576222 11.163532108637586,67.64306920390607 11.248183731170393,67.67678636493997 11.332940265493173,67.70848556294406 11.421701506241975,67.7419649097756 11.510689122973826,67.77431536958848 11.478009254136186,67.76332921719943 11.448856638662884,67.74500146063467 11.551445342700516,67.75765464867314 11.669046918128322,67.7731064879888 11.794668855509286,67.79373091815955 11.914184093499749,67.81510891935056 12.023591886001812,67.8365388260967 12.11915032905662,67.8545039893911 12.207003336679264,67.87040545078571 12.289356840884185,67.88376624187399 12.378336323983175,67.89756240868395 12.482603445359254,67.91440478979123 12.607621553979946,67.93755650180947 12.731516867312113,67.96452842832873 12.831220534793013,67.98700087753694 12.931986271607176,68.00913976736882 13.047278526883325,68.0370426838952 13.157485495074702,68.06578229977332 13.260325430287104,68.09345720480357 13.351141199579633,68.11840810225756 13.449860759588155,68.14469732929507 13.560793865980806,68.17696306930597 13.660866189735478,68.20724765413722 13.741594359339553,68.23200001146269 13.836049981765639,68.2589388135889 13.940921901929947,68.2918305974722 14.044447477210802,68.32431842589504 14.1467682503788,68.35907908765178 14.23256818326865,68.38845676937119 14.322049131675131,68.41872854588674 14.41718951311517,68.45130222916227 14.508393519247948,68.48338345554566 14.599912366829997,68.51545008448679 14.693581097361102,68.5489460858274 14.788296519517612,68.58305521038905 14.755672476073872,68.58669064046789 14.722181275209248,68.58315023102149 14.821512271566124,68.5976712357226 14.927236775359397,68.61347979588798 15.020246415741827,68.62964802528583 14.978969033716407,68.64231365944993 14.949390382582818,68.64862240769325 15.047106582498431,68.64303937119637 15.153394738491578,68.6363123474137 15.242963564181325,68.63392255548189 15.330285450310198,68.62910580869605 15.432556848421507,68.62314452878962 15.524315880750486,68.61869725863491 15.616270131391097,68.61362980821728 15.712631204519532,68.6074325197155 15.815631278115646,68.6000820823689 15.92165155393506,68.59303002990686 16.02313697576775,68.5874253991258 16.120795997359366,68.58240805886159 16.222789109922836,68.57637435145504 16.324320181578525,68.57111717107036 16.429891202962793,68.56473334237572 16.539052393922198,68.55924209748369 16.640074015425057,68.55541520203703 16.74646259794342,68.55042136072748 16.8526615848691,68.54684684906185 16.94386763491358,68.54527797865383 17.046352534297956,68.53991198098484 17.16513372466419,68.53412761385907 17.28059488466565,68.5307259743439 17.378435293365115,68.53099750501055 17.470385338317765,68.52961282580706 17.580456175968056,68.52570872008573 17.68712319858765,68.52404586468032 17.784438181127317,68.52263397246422 17.88363385792125,68.52047402209219 17.982678137710025,68.51784060815658 18.083520061939403,68.51439829812536 18.176411089359128,68.51196057255018 18.26176399413735,68.50812253858336 18.355397899092477,68.50116414637833 18.457683587883267,68.49231768080598 18.560144648992377,68.48374306098147 18.65917853037134,68.475286912686 18.762330349922816,68.46557375528776 18.869184121903064,68.45604242777944 18.97440991306271,68.44721716655998 19.070487089589847,68.43999330942233 19.164006992298006,68.43107041968379 19.257479797376085,68.42187647333823 19.35921209446674,68.40926518467448 19.465014602672554,68.39817306961021 19.56637010816618,68.38678813891353 19.667944863525037,68.37632228083567 19.763027711623685,68.36589082721783 19.867068370183215,68.35328365067105 19.96568788263056,68.34324625020633 20.058872066798106,68.33155902484027 20.158151835069095,68.31928307172319 20.255654513789796,68.30664730953069 20.35657176663663,68.29335494386483 20.459595855388216,68.2801946518321 20.566692774812914,68.26703143335786 20.667524205916212,68.25647023327603 20.766423850002667,68.24482713807265 20.86604290418286,68.2343156568077 20.96219841359908,68.223156847325 21.06588477617216,68.21124348843107 21.16355512979791,68.2013547187014 21.254550215052536,68.19087184942727 21.351728808883724,68.17878754079047 21.459009247199504,68.16563288872626 21.55931533029979,68.15591975692196 21.651835487129127,68.14551617383242 21.74689000732047,68.13488082225751 21.838910281515652,68.12377441472225 21.935261439268967,68.11117752781561 22.03661864757435,68.09815533694523 22.138804984000338,68.08580214757222 22.241648291937206,68.0740422296549 22.347618417711267,68.06283558548178 22.457111166931256,68.05291192129243 22.564653123465693,68.04550474074536 22.67105116839926,68.03931943727912 22.77226782197254,68.03548272820527 22.873713958599367,68.03084381715058 22.97899680424973,68.02768301741722 23.078924203146666,68.02554371224413 23.174196537667967,68.02386414274004 23.271339589170303,68.02082470635301 23.37079323467554,68.01817544700222 23.473223002723405,68.0147673641555 23.57037924075713,68.01367423031542 23.665026102103432,68.01040640137072 23.767188723931827,68.00702221991489 23.866827845783753,68.00424972962855 23.965299907574614,68.00138206161485 24.06231969566455,67.99849888641096 24.164219401249426,67.99406153971641 24.268157243654866,67.99118206329922 24.366014113707447,67.9889305893945 24.466238747690326,67.98551912982738 24.5691350213811,67.9826466540781 24.63612212699361,67.98587971989275 24.699890318355795,67.97626120968427 24.7990434727425,67.95693785073446 24.900246597822008,67.93804739211551 24.99723571216541,67.92047808598412 25.09151493423837,67.90241518730429 25.188203722863364,67.88228936782329 25.289937256206695,67.86076985837339 25.392291257212516,67.84069197136168 25.48704838615108,67.82317825283049 25.579189457861403,67.80331491117556 25.677395054064718,67.78057342365649 25.817035886375233,67.74849494409231 25.957006946134175,67.74815663660047 26.057286596529817,67.75108548386493 26.16200028311698,67.75448039842631 26.264297153871915,67.75989693016786 26.36549709547211,67.76439416603392 26.468426355829063,67.77007089616151 26.569495040179273,67.77612895796918 26.671102331965358,67.7820789341704 26.772577690095957,67.7888487022964 26.872393728866182,67.7954657823996 26.97505530774352,67.80163682502491 27.077347302283584,67.81007498271865 27.174784712717283,67.8177716574653 27.27329399185689,67.82359516235323 27.37374058590053,67.82967343598881 27.472652566305385,67.83557772942905 27.571535752094935,67.84033104009163 27.67074256528222,67.8448906019114 27.77023032105619,67.84860614903778 27.87010562991029,67.85241190584784 27.967713534991578,67.85581206041101 28.065325850546806,67.8570222973108 28.165034964716945,67.85774351180697 28.265989326434795,67.85843104086436 28.366190667500803,67.86010684484454 28.464221107460926,67.86106781209772 28.563577168969548,67.86053387109052 28.66382635177923,67.86075592186786 28.76447124177933,67.86055823820448 28.865807540029877,67.8617049122982 28.96475402540009,67.86343193615988 29.064394419584286,67.86348671068176 29.16331170055136,67.86505506360542 29.260853766608786,67.86397962884945 29.359679542715217,67.86244227576121 29.45946852059277,67.85983489721238 29.560270313113023,67.85826021963848 29.65992035599805,67.85730024563216 29.75844158820609,67.8556118888408 29.85758094644342,67.85234951209057 29.958827249570813,67.84918093443443 30.060119324581116,67.84866653443494 30.159959452368827,67.84851968024648 30.259901698418666,67.8476764747271 30.359945432870894,67.8472600212002 30.460097555590767,67.84606015165517 30.559790983704126,67.83801882493006 30.6594228546665,67.82758125401587 30.758839348661713,67.81826035689711 30.857956873815155,67.80728278497445 30.957445202256054,67.79684309779584 31.056608017489772,67.78600091824896 31.156075786884667,67.77457248461042 31.255331162366385,67.76421214180112 31.354301527858087,67.75201392333372 31.45317176558966,67.74057247295453 31.5524683315064,67.72644108469049 31.65263850023192,67.71604152837054 31.751872665811852,67.70477272720454 31.85198843301811,67.69387211034245 31.951695862482588,67.68539883726152 32.05099734631469,67.67485070836851 32.151177245169556,67.66577217090928 32.25133107778902,67.65752167420035 32.351215239380046,67.65045338442617 32.45065201356391,67.64279757362898 32.55010392992451,67.63468434331911 32.649692591256866,67.62614392391859 32.749338024615916,67.61783110887518 32.8492081589446,67.60923361987889 32.94911931156202,67.60186098227824 33.04898177446695,67.59399915724694 33.14909941372184,67.58730124396806 33.24894823650437,67.58081050426469 33.34943216771892,67.57433402360913 33.44957204626378,67.57060307196103 33.548998230498526,67.56502370779941 33.649106915709105,67.55962177259256 33.74868094974581,67.5550542445963 33.847200038720324,67.54846974903533 33.945438768501056,67.53897692875462 34.0440484133583,67.52719239229262 34.14365316776181,67.5147946095929 34.24348078456902,67.50437490865471 34.34311213414358,67.49346708673889 34.43655766523009,67.48499985680114 34.52391262942154,67.45199054375101 34.61677436489492,67.41700471663779 34.71476504466937,67.37745813032171 34.82062911596721,67.36289987980015 34.92051253880704,67.35163352362642 35.01974615969934,67.34044961003241 35.119055243735914,67.32869463324624 35.218729234167824,67.3174705140118 35.31862838163832,67.3068762530261 35.41853887867988,67.29747993366308 35.517963030195766,67.28834695755991 35.61766288727978,67.27833948923842 35.72396353672435,67.26982414818835 35.8284650544663,67.28696176275955 35.926779825237915,67.30211621265998 36.02562812859096,67.31657542395936 36.12424039728227,67.33137516335461 36.22313180213734,67.34469684532998 36.32242819808228,67.35872430453534 36.421650772264584,67.37323449489261 36.52083358073607,67.38837257216731 36.62558748929458,67.40547402999404 36.72316205591364,67.44606925340578 36.815596576378454,67.48366556575522 36.908584473920214,67.5217979117281 37.0008634753819,67.56151113917518 37.092994446483914,67.60129428812267 37.18394849701132,67.64197684031181 37.27559144273885,67.67997787499125 37.36801596595236,67.71785424068334 37.460532775432625,67.75572263250623 37.55335947419255,67.79362122494865 37.645964822343544,67.83267721580708 37.73773363447641,67.87232129238203 37.82965817168221,67.91094197883106 37.92157646092819,67.94938379880459 38.01398112201968,67.9866196939475 38.106427131017405,68.02366309237969 38.199378419387436,68.05936520333478 38.2927509723051,68.09493569705249 38.38609622253244,68.13044156418428 38.47988123519411,68.16561225604866 38.57396321535185,68.20210512529925 38.66720975067239,68.24100450397981 38.7592007072564,68.28113681656677 38.850880697631425,68.3209622142847 38.942608892101596,68.36079139270747 39.03411127326294,68.40054952705722 39.12580143883807,68.43934910969186 39.21790367300408,68.47746090267728 39.31061486408709,68.5152847723983 39.40317385486428,68.55415011903654 39.49501802412645,68.59329241559576 39.58747623789978,68.63140976500475 39.68026441020206,68.67098806947166 39.771810521749366,68.71253800111734 39.862565713653815,68.75356077100697 39.95480725257664,68.79365358167694 40.04663269399854,68.83774264802159 40.13549517224443,68.88449731476612 40.22427015255628,68.92893417442784 40.30783345284795,68.97033618539234 40.39939137444087,68.98785380048531 40.49685986095194,69.00593433359379 40.59514907032263,69.02167930397243 40.69450335038607,69.03823409560023 40.79365255688914,69.05707829666828 40.89215674393776,69.07725456575915 40.98990147915794,69.09806896058906 41.087387922263325,69.11777928178884 41.18530406649943,69.13642412199455 41.28340327270143,69.15493627359852 41.38126534774805,69.17288672038622 41.47932989106113,69.18934611562538 41.57854483571625,69.2052440988435 41.67810105015303,69.22392893411276 41.776203549736266,69.24489981715232 41.873847693039004,69.26451800799718 41.97186518358612,69.28382059134486 42.06996160204373,69.30312280118397 42.16802563056503,69.3223426381236 42.26606567633693,69.34134781225018 42.363608222684476,69.35992347337762 42.462250293750465,69.37617576787133 42.56001100420688,69.39468419393042 42.65765393559136,69.40875022700536 42.755272883650214,69.42183139416309 42.85388592518538,69.43000400232974 42.954193621377435,69.43916913844087 43.054388297267685,69.4504224634058 43.15365981901851,69.46280356607353 43.252801539459945,69.47410287426148 43.35256145170886,69.4856702799581 43.451833449665514,69.49871072704484 43.551186925876166,69.51073313628622 43.65114936865867,69.52418512766938 43.75103305673286,69.53978826466974 43.850180294036164,69.55757652584882 43.948950849191604,69.57597627073697 44.04722600249171,69.59552295712454 44.14603660249129,69.61475536569758 44.24437842564801,69.6370443002387 44.3416857689917,69.6593796995743 44.43894420299728,69.6807664400727 44.53646840898339,69.70144122108843 44.63478283196684,69.72179491483593 44.73291754105679,69.74423997385432 44.831092403507135,69.76732175545246 44.92831562516615,69.79307040950545 45.025679575495886,69.8183387051503 45.122692265692336,69.84649567917998 45.21854043689331,69.87557001191452 45.31405006923104,69.9039627830464 45.409641438165394,69.93146598316349 45.50544033857127,69.95774481163743 45.6016918354864,69.98269646887451 45.698793627649465,70.00697944987714 45.79536140359017,70.03239491020756 45.88769714459947,70.05512516561078 45.98252575205809,70.06070047120129 46.08220933505581,70.06456284342183 46.18259986272517,70.06969918021093 46.282959085256934,70.07569044992148 46.38252237430806,70.08293691170284 46.48124315031531,70.08814469478543 46.57966687441728,70.09080282773435 46.67846859131747,70.08991323293256 46.77746312207017,70.08785645850341 46.876357752098535,70.08307269899062 46.97528572631671,70.0770924454594 47.06787907596113,70.06972631666751 47.14968093802944,70.04025934555897 47.22889940143644,69.98478676010647 47.32051922166175,69.93719820525483 47.409586545296534,69.89107920252623 47.49927277541967,69.84596333398942 47.588644742843144,69.80146048592277 47.67742994146589,69.75607972970423 47.76638892432399,69.71048968603412 47.85474612593981,69.66515858263418 47.941935086321394,69.61737451621109 48.03003159088703,69.56957895028089 48.118013026616325,69.522399268617 48.205604082869655,69.4741185173975 48.2937272139178,69.42693550577155 48.38108997879526,69.37859531988535 48.46884256975422,69.33090880439215 48.55527220494709,69.28251192923858 48.640519162838636,69.23192924694655 48.725821354222724,69.18015501526097 48.811414354804796,69.12837019241012 48.89703206627374,69.07658846178128 48.98287136413945,69.02492966188892 49.06934380724499,68.97350309793197 49.15667877584331,68.9237982009077 49.24366700610064,68.87433811266378 49.33016317517736,68.82542154354752 49.41493578109064,68.77434885721908 49.50022374229317,68.72135819919966 49.58727607526901,68.67083401534747 49.673451176398835,68.62035250524171 49.760122081847676,68.56946707562109 49.84765215009496,68.52053500804709 49.93424488048429,68.47098226547575 50.02098118631306,68.42143741795937 50.1066431819095,68.37192308238575 50.19012304817479,68.31942865131171 50.27354018459884,68.26481441299434 50.35754456553875,68.21060554186695 50.440522966356475,68.15617363088738 50.52270965763221,68.0995165803846 50.606597875535265,68.04363182113761 50.69102017428023,67.98932731142305 50.77514488307305,67.9351119602546 50.85998238581725,67.8809351808345 50.94535299003897,67.82905758953859 51.028501319524054,67.77546965165877 51.11155472037668,67.71995270616041 51.195938322394035,67.66509263636259 51.28064794354485,67.61159647959826 51.37050271199823,67.55464159491923 51.47191620462054,67.5220244580131 51.56756684193618,67.49169588520631 51.6580656862554,67.46471795073867 51.739154191047064,67.41677216279231 51.82591656273832,67.36641558719383 51.91337236292324,67.3166233109129 52.00182802601703,67.26825263349004 52.0908267812838,67.22136269427727 52.1799656859799,67.17534148619293 52.26876098438315,67.12999500720734 52.357037595651285,67.08308748242457 52.446326985570494,67.03732937800014 52.53553626254258,66.99143419673885 52.62514820596849,66.94696341190813 52.71382870127608,66.9015158240018 52.802834213912405,66.85577323077649 52.892216946063,66.8102908870461 52.982455133701684,66.76523105334202 53.07344845655858,66.72281191308596 53.16295528768379,66.67986752846133 53.25191250252459,66.63521892966995 53.340975504521765,66.59042305254901 53.42978418363173,66.54448171508716 53.51953840268329,66.49928271763687 53.609478049830145,66.4549800605453 53.69943710466586,66.41084075415101 53.78913735080213,66.3675673229041 53.877469062781145,66.32242333630201 53.965809937949736,66.2762572342886 54.05375515315942,66.22987180246841 54.14127381830072,66.18155588379747 54.23104394606503,66.13407793417758 54.32246113955573,66.09076587740415 54.41307753136629,66.04807845061458 54.503538669906035,66.00597395586686 54.59304106408403,65.96284364027254 54.68251864536596,65.91834045055383 54.77274890082357,65.87456426775604 54.862790092512554,65.83107150099919 54.952639522945475,65.7874593882915 55.04240981896622,65.74354071875433 55.13215341494548,65.69970373625709 55.22219811902778,65.65510859447919 55.31772502856363,65.61094190593491 55.41946941664842,65.58475356126264 55.517473537420834,65.56155820623708 55.61550692576181,65.53948750081707 55.70762808357047,65.51994724717788 55.791700776960276,65.47838395353634 55.88071954069902,65.43404742942117 55.968831103573805,65.38848039948442 56.056576754708594,65.34119774035672 56.14475933459837,65.29412722153658 56.232321102674355,65.24676096906195 56.31917377507389,65.19838114179994 56.40562608559619,65.14897965218745 56.491906681958675,65.0989626012506 56.57779487837536,65.0486464856352 56.66294453371826,64.99717458302177 56.74798240704436,64.94503321659926 56.8331680779455,64.89237332686166 56.91901273278408,64.84043460686391 57.005457012618166,64.78858563161275 57.092863148764174,64.73945548103109 57.17887237154926,64.68910400614959 57.26561183682921,64.63880513605105 57.35239850491976,64.5892432576177 57.43859696081213,64.53898748674142 57.524926579365754,64.48866846708867 57.6112446014221,64.4379916404132 57.69824397115177,64.38772327185332 57.78578509670455,64.33855247653204 57.87284117541726,64.29011817931432 57.95928985765936,64.23982999523203 58.046817276375,64.19118178320635 58.13278790396918,64.14180805775463 58.218718560253194,64.09010617466191 58.30661549583086,64.04094331953101 58.39363564627329,63.991900151093574 58.48080197737621,63.94264226464213 58.56814852075913,63.893972924243 58.655262006140404,63.844701879649286 58.743083377051164,63.7961439412213 58.830972475346336,63.74805301339444 58.91935361869689,63.70004390495842 59.008637380504325,63.65384011434706 59.09750638288625,63.607978019599564 59.18615012061692,63.56213179157342 59.275048347100515,63.51534425345424 59.3648733112249,63.47095442501566 59.45315970246627,63.42535749293473 59.541392348407186,63.3789358614748 59.6293429110993,63.332166835817134 59.71700200619464,63.28429724605934 59.80461121937462,63.23716398686475 59.89056356761506,63.18788939191905 59.9763987769574,63.13752359396845 60.061705969356474,63.08642728276406 60.14615999625654,63.034291511259624 60.23035196490381,62.98036786232512 60.315723030589936,62.927570175750134 60.40075209795141,62.87490805651899 60.48600453384093,62.82226223188747 60.57144016400279,62.77027809078101 60.661473244375294,62.71510874389078 60.76211425240828,62.68113536145792 60.85818807583784,62.651037005960646 60.95398547447331,62.62189224836997 61.04921563918035,62.59261512974651 61.14423712063907,62.56215813651537 61.239785534390094,62.5318736003827 61.33550958110468,62.50217295959304 61.43105977889912,62.472835016974926 61.52646189293842,62.443036621107886 61.62219328751279,62.41342307290638 61.71780223085852,62.384427584551176 61.812632992908895,62.35471491536057 61.90670436124629,62.323605210042416 62.00037956172032,62.29042736475981 62.09458242850283,62.25664712877238 62.18938213866746,62.22340005717997 62.28422494275907,62.19134937658778 62.38039728513931,62.15814187937318 62.47867517048313,62.13237090486829 62.575742972051934,62.10564234518816 62.67374810837314,62.08280255919276 62.770289128802055,62.05881428812164 62.867498092651296,62.03401472401246 62.96504979420533,62.01110675324018 63.06198059060976,61.98722161655097 63.15904331150707,61.96373401918434 63.25491168350731,61.939565421913834 63.35024502940428,61.91186402436366 63.44627740061566,61.884668631309474 63.54168710478499,61.856158867039554 63.637688890720064,61.82721397967664 63.734485636633615,61.79942810369822 63.83157804352577,61.77311834184226 63.92306042407526,61.74953687113499 64.0064575557891,61.70508224801173 64.09528549315009,61.659277864990756 64.18665482626898,61.6108683721956 64.28401539991575,61.57629362744229 64.3773731903038,61.54160788160289 64.47060530852072,61.50692321731995 64.56314624541437,61.47030996832038 64.65678109225536,61.433417641654785 64.75155996973251,61.39870025109529 64.8458043267324,61.36558911916963 64.93317235726572,61.333613006443585 65.00909461897064,61.27920408041729 65.09070783340387,61.22094003124747 65.1729377773895,61.16393635168209 65.2547597944944,61.10580193081531 65.33851405690311,61.0495617990278 65.42267371037651,60.99413901253219 65.5101197590123,60.93933266623838 65.60213922195032,60.89431822639518 65.69158174827396,60.84968342963703 65.78176588134536,60.8054699159942 65.87261468099008,60.76211047262373 65.96385744394611,60.72035043340927 66.05429302575256,60.6787116596775 66.14367541175315,60.635891906042225 66.23225629621558,60.59121495977342 66.32071430886234,60.54534459846848 66.40924784077085,60.49910017575721 66.49814102414892,60.45248047626309 66.5880023037222,60.40724917640303 66.67820779641127,60.36268010144265 66.7687766456111,60.319852926184616 66.85808740746275,60.27654227142851 66.94690264754628,60.23127261816834 67.03351174473359,60.188050331194155 67.11331346495942,60.133355789854626 67.19585971156741,60.077569766640885 67.27732777363515,60.020080668253954 67.36003919741103,59.962771766663906 67.4431623330751,59.90717919871247 67.52502938769939,59.850451532256756 67.60685762085922,59.793814432515724 67.68779201478743,59.73538684847791 67.77007817846835,59.67755177620674 67.85634821037465,59.61848152330796 67.95080862983411,59.574932831602254 68.04105938457938,59.53229812249882 68.13172287121634,59.489876433827625 68.22190735344587,59.44770449893524 68.3118820671278,59.40365007803586 68.40336227699234,59.36167032926985 68.4942671630245,59.32006343441986 68.58498216106966,59.278325642563445 68.6752929747181,59.236361575039 68.76551457843676,59.193019346155744 68.85681152169695,59.1510037646422 68.94815498563833,59.10935436554597 69.03983393828554,59.068887980966565 69.13145697119307,59.028049278749116 69.22424282123116,58.98847374950644 69.3174302701957,58.95077773268672 69.41074193797934,58.913267668268304 69.50454622353277,58.87778319146911 69.59794083614375,58.84149762343507 69.69217344265466,58.8066926924692 69.7861209197435,58.77214452921676 69.88044244535745,58.73773139580742 69.97570806122634,58.70443511297902 70.0767358726976,58.67203565244547 70.18173948478146,58.66204236554221 70.28075549038957,58.65274704638792 70.37961201536254,58.641432228341266 70.47924656112747,58.63007050637391 70.57920197825982,58.619766089859 70.67941689263509,58.61030496981425 70.7794122536278,58.60265842380781 70.87893439112577,58.59441364899004 70.97833058599342,58.58626766306862 71.07758551660932,58.574769095972364 71.17701714579081,58.56205023650723 71.27667214632477,58.54915592118319 71.3767555635233,58.53758527522635 71.47663292471242,58.52666241849228 71.57611497831402,58.516087671201845 71.67433496043044,58.504923897611796 71.77221522063502,58.49096703425597 71.87068703062238,58.47633972743166 71.96925172084231,58.46067811610958 72.06909985657191,58.44480695766938 72.16927264617708,58.43061463153669 72.26874525906045,58.41650029948062 72.36722385988759,58.40264044316898 72.4646841794121,58.387049082287675 72.56390362139759,58.370134835023194 72.66540583324507,58.354414278266134 72.76728137131083,58.34074156263074 72.86895726242147,58.328452635428164 72.96913162162207,58.317543051354455 73.06751469719023,58.30574115986298 73.16490700694152,58.29306815837874 73.26398258902225,58.2783539576534 73.36478908610783,58.26488780396525 73.43929177460771,58.25440405054135 73.50710048189615,58.221848492214804 73.59845918781471,58.1828144430793 73.71729605746341,58.1356586630823 73.84216290544266,58.11720038623218 73.93722625992757,58.10025572298971 74.03483066788483,58.081960974007075 74.13340002635474,58.06371505986449 74.2583177923584,58.04394939819183 74.38667573796704,58.04749084439109 74.49077795888697,58.05097989448696 74.59577532555782,58.05645821880677 74.69951909102093,58.063625436100665 74.80170212481129,58.07156684091492 74.90356508959444,58.08024295173679 75.00462458849366,58.089630689932164 75.10560076665593,58.09934831033287 75.20478926065641,58.10959688625592 75.30497370544063,58.11937179834392 75.40222631108952,58.130087101557855 75.49255854595927,58.13758215294888 75.58337443598452,58.14275578549524 75.67248217046262,58.1461790436363 75.76988663391,58.14703769852752 75.87272060678151,58.151066406300345 75.97141434436038,58.154405172188724 76.07327309503859,58.15854340193315 76.17229288232981,58.16381587585755 76.27087186846433,58.16819911549381 76.37724208498746,58.17440960218788 76.48353603090779,58.18391807433334 76.58698565380644,58.19443389326975 76.72992075050254,58.21415238451319 76.86704466901772,58.25951059185114 76.96562495664699,58.295663084376784 77.06225051927777,58.33296113788392 77.15599759912024,58.37041536185712 77.24566742265762,58.406733664241976 77.33861510508925,58.44327189758079 77.43207636378317,58.48209285791691 77.52282917510445,58.5195389525999 77.6185720793715,58.55929283698662 77.713253097859,58.601313278195136 77.80535872441772,58.642661206167915 77.90059483971305,58.68644051086327 77.99269719770543,58.73147918324209 78.08619124313611,58.77689662856412 78.17729891797437,58.82470111591643 78.26082982504802,58.86825006566644 78.34245008585059,58.90915633055128 78.42826732361141,58.94895265683155 78.5220511097603,58.9917245859498 78.61732308521206,59.03756524474636 78.71062590692826,59.084353475629406 78.79881154290288,59.1306002535248 78.87740363826885,59.171356811638965 78.95897236519224,59.207159084591204 79.04965386213493,59.24463945333866 79.14092528930608,59.282288965624126 79.23561345431433,59.31980427142942 79.32872331174238,59.359253865676116 79.41733586393937,59.39536850661165 79.5074562674445,59.429829097029156 79.60067098952952,59.46376400521639 79.6970608432739,59.498712112459366 79.79122710136706,59.5346664504656 79.88251161783549,59.568200675112365 79.97708010390569,59.60070336403306 80.07328595016183,59.634844897102276 80.16786996866114,59.66876131748721 80.26308935165444,59.70228264446102 80.3583110726526,59.73661233529205 80.4520986719216,59.770261793603346 80.54633910502046,59.80287144261564 80.64403811000993,59.836347461522415 80.73841840908291,59.872590257454796 80.83163677282057,59.90518563111877 80.9251027569792,59.938387698254026 81.01929599497014,59.969036207750094 81.11491883832171,60.00048399612261 81.21104333951523,60.031807388086015 81.30692622832329,60.06424077547971 81.40282799957888,60.0966486540539 81.498557847507,60.130299130745456 81.59163903786173,60.163495443696554 81.684931310163,60.19342697443876 81.77939760691021,60.2226985721666 81.87526177661971,60.250701799502934 81.97077004950764,60.2793281115768 82.06591861156305,60.30590927747112 82.17673159212771,60.337057411580105 82.27657998580192,60.393663527139665 82.36450362361771,60.44279942695134 82.45231355440188,60.494246185868946 82.53797347276742,60.54488466429125 82.62575165557907,60.594895991456745 82.70332265972563,60.642344837278145 82.78531907119154,60.67362854866426 82.87811604665508,60.70767643180949 82.9710829406679,60.741889449426445 83.06437577742304,60.77446142914151 83.15789497757652,60.806882600782586 83.25140279817137,60.83791511760218 83.34597897349418,60.86848069084669 83.43967828737256,60.89873037860015 83.53297319244176,60.92678168595226 83.62932688333079,60.954427750982596 83.72732233908872,60.98453476485721 83.83541351492629,61.02051913145175 83.93679182507992,61.07273193611753 84.02551536452297,61.12071887021522 84.11324555378395,61.167772440129966 84.20068524985187,61.21488418528217 84.28807193831356,61.26132839637478 84.37685536964504,61.3082910123908 84.4684539828383,61.35828529684896 84.55811898380075,61.41252446013376 84.64349599652957,61.466304157955115 84.72835953513142,61.51960088565144 84.81758964703481,61.57693079117788 84.90226337473385,61.63976082409381 84.98325032792985,61.70030468454833 85.06317340841576,61.76220432563776 85.14227120938773,61.823730373529806 85.22303510389779,61.88733333359759 85.30048217730231,61.952749611287786 85.37723577894617,62.01608790771604 85.45279261558622,62.07987323183993 85.52899717565232,62.141490842591075 85.60639661485747,62.20389217452864 85.68387698499154,62.26597968236413 85.76245978130285,62.328438498550774 85.84117067808542,62.392522938184925 85.91876369366227,62.45733539948441 85.99450260941441,62.52150405232748 86.07091506099461,62.584084214056645 86.14789797629972,62.64681019555407 86.22608765793699,62.70924728360336 86.29241539702883,62.765339030009144 86.3707879065812,62.80035886302335 86.46112353334752,62.84030386453068 86.55267000938191,62.878586090560674 86.65469740645493,62.92151896519717 86.74380262675395,62.98612443193901 86.82537649320622,63.044894550506584 86.90622506338683,63.10595131746677 86.98547452648869,63.16669791002793 87.06545716562104,63.225949894931375 87.14627583603783,63.28548224975329 87.22117259671897,63.34242248779761 87.30667946327897,63.38045133449009 87.3979429261069,63.42032615158688 87.49077204622874,63.45574877320928 87.58444171487442,63.49012384394677 87.67899642472715,63.52525256041576 87.7720984103342,63.56313715548179 87.86443228960508,63.59961704531488 87.95776115142152,63.63449575066916 88.05165929129068,63.67000972415871 88.14505120999347,63.706582530643026 88.23791907515053,63.742976441594635 88.33143024200265,63.77849897098186 88.42508962811903,63.81533650731187 88.51771281629277,63.85327602528297 88.61054888707228,63.89018511797058 88.70353036570472,63.92785585975002 88.79621212743966,63.96609645176493 88.88812361299574,64.00445785570307 88.98115619986987,64.04109437158102 89.0736907463654,64.07965243985892 89.16670596366214,64.11734930150328 89.25905399542093,64.15741442439035 89.35026928277065,64.19723633300032 89.44231059883211,64.23512514366469 89.53509272936607,64.27359010884648 89.62677612037956,64.31323416733407 89.71858654398399,64.35080958138737 89.81122662783132,64.38740258093206 89.90423577026287,64.42376694801811 89.99706555827703,64.45985991925865 90.09021443518807,64.49456871595592 90.18390086249774,64.5284505288752 90.27787923336504,64.56187212882506 90.37226887240308,64.59492126950225 90.4671436912936,64.62769757541308 90.56119495725245,64.66139262024659 90.65576151892316,64.6941116176217 90.75048314285701,64.72880501528134 90.84372476708205,64.76514279420655 90.93750841448923,64.80037517434575 91.03067769089758,64.83808252992648 91.12312018565027,64.87555570397505 91.21578089458055,64.91219674028804 91.30913858623401,64.94752541236596 91.40294249984355,64.98300615611068 91.49557561023023,65.01930032240314 91.58904758716301,65.05248222810629 91.68365811406255,65.08604078513774 91.77745543995998,65.12098389433814 91.87164391919418,65.15479406916916 91.96551273416544,65.19007544126501 92.05928316667611,65.22492661477389 92.15314097432382,65.26036617348146 92.24715547076046,65.29671238153648 92.34029472545986,65.33530651864358 92.43267982583062,65.3745429873797 92.527691067352,65.41570779488752 92.61645264722641,65.46920904345919 92.70185956130229,65.52197138151209 92.78606167617673,65.57467058422235 92.87179718972246,65.62452236033855 92.95779672411318,65.67447340886108 93.04496251287182,65.72264384564268 93.13232110686923,65.77148495473195 93.21992199820137,65.82028892659932 93.30673902914762,65.87010352354118 93.39352265242941,65.91887688214288 93.48090897885851,65.96694926368066 93.5685200527042,66.01497862869067 93.65611631518225,66.06276903203441 93.74427847256217,66.11011894970433 93.83185469793712,66.15823044834214 93.91986030390754,66.20513951350527 94.00780660295023,66.25221132474326 94.09642580480698,66.2983215366286 94.184788964629,66.34515053136897 94.27303121813581,66.39108851866187 94.36229191766847,66.43605662649857 94.45085215058646,66.48192788021834 94.54032520847277,66.52581795152463 94.63024272462144,66.57084258748209 94.71961601177446,66.61719954969018 94.80812843858435,66.66457409607511 94.89612305099736,66.71198728739333 94.98428479609134,66.75897253614392 95.0720965259593,66.80583962470439 95.16093686198771,66.85108790768035 95.25040781962242,66.89746907854634 95.33836256991644,66.94577050301552 95.42585628816845,66.9926667190163 95.51488979149156,67.03822975866113 95.60382254814229,67.08596262749698 95.69180361674779,67.13521226059362 95.77831638443844,67.18540348755688 95.86523117543014,67.23413788674232 95.95231927066395,67.28302598552159 96.0397966974882,67.33148962343212 96.12745827170419,67.38072461042448 96.21420391568856,67.43126781724256 96.30024765529073,67.48140521858342 96.38359443969497,67.52831331226277 96.4739792933921,67.56145058883511 96.56781133686924,67.59693553800201 96.66142997339726,67.63278761940543 96.75486911937392,67.6691912570564 96.84735022797966,67.70580553823821 96.94047446925548,67.73980691700041 97.03467718620897,67.77338738854908 97.12895265174627,67.8078519106464 97.22249807672046,67.84280005604968 97.31604970067981,67.87640923400981 97.41028933038092,67.9090840164491 97.50479031007649,67.94194340110631 97.59997508292159,67.9751703592116 97.69357735110684,68.01118500958508 97.7862511483436,68.04475419567368 97.88082769830797,68.07504007978972 97.97661859521205,68.10676239146143 98.07127225395399,68.14090913570091 98.16531873446885,68.17467960182488 98.25955320958018,68.2083645234303 98.35335416152832,68.24236180056384 98.44727925706975,68.27497206199908 98.5415430038224,68.30670380434813 98.63595274836304,68.33722154407873 98.7320225897503,68.36626084060605 98.82787739608035,68.39878221775818 98.92228849528834,68.4324277736535 99.0160914578998,68.46521437597728 99.1106238457951,68.49623128896998 99.20578471705325,68.52733059882834 99.29993364399404,68.55870761050228 99.39523508479446,68.58666759348137 99.49171870535208,68.615919748272 99.58709106859928,68.64733929521361 99.68190267095335,68.67780695969702 99.77667039998887,68.7073055991278 99.87240885093284,68.73209451997718 99.97068930661409,68.75019716175515 100.06998605664718,68.76973962075756 100.16827122317143,68.79124941138387 100.26665763425913,68.81215055113032 100.36535081963474,68.83499893306384 100.46270578197708,68.85865700137239 100.56030926141463,68.88155472663912 100.65822892395605,68.90577025182932 100.75648329076836,68.93057824209474 100.85299238491213,68.95678888495803 100.94852255555263,68.98076917226327 101.04612204074147,69.00463619515602 101.14454660021687,69.03018261477544 101.24228442279787,69.05665530046086 101.33917923356906,69.08349778326692 101.43632609302328,69.1104251338883 101.53528812232672,69.1389330702008 101.63318466019248,69.1699801842085 101.72748216526274,69.20014422122688 101.82149535540044,69.22822145397492 101.91716241387157,69.25620872988675 102.01267935797817,69.2840605096743 102.13038722677979,69.32028155398204 102.237581497839,69.3817202730167 102.32464412851893,69.43095769599378 102.41186568153674,69.48041134523363 102.49900765340668,69.52935185386684 102.56202298270908,69.56436124829378 102.63461931851644,69.5798008333427 102.73292422596654,69.60718237738004 102.83043347721008,69.63409244556803 102.92741313341915,69.66125803582337 103.00670329581155,69.68208341059525 103.08638092172862,69.69003772615224 103.18320338725259,69.70018475751252 103.28288133423462,69.71022923232763 103.42074061977719,69.73020339722851 103.55371277614968,69.7816774593649 103.65194449985425,69.82132848013777 103.74496832986458,69.8596108068711 103.83708097159345,69.89571367631132 103.9297533448222,69.93219588825616 104.02397050507562,69.96829479932978 104.11874685632425,70.00558919670011 104.21162828746188,70.04138882012595 104.30807659294308,70.07852185415356 104.40455472870151,70.11745273567486 104.49960635198947,70.15556619695333 104.59693720887702,70.1957425483591 104.69219319996371,70.23634594394449 104.78092752776536,70.27318191434047 104.87323396408361,70.30966598833906 104.96846596421318,70.34928670531505 105.06066723000352,70.38697221106455 105.15483001027961,70.42556677015605 105.24679564361664,70.46377114219273 105.33688992595935,70.49987082496966 105.42953514691877,70.5370984031896 105.52732302439018,70.57738090800056 105.62379732086038,70.61934337760135 105.71361049417256,70.65767347985933 105.80810915284246,70.69785977803966 105.90601802520796,70.74222648319598 106.00619165960003,70.78931829824693 106.09659062018906,70.8341691994028 106.17930828802436,70.87196343031525 106.26840333603803,70.91321077948452 106.36198936517893,70.95744615058145 106.46025972145164,71.00622705873546 106.54487465288013,71.04962195049573 106.62419258895646,71.08648223230126 106.7193569602959,71.13245890455197 106.81670486008112,71.18284174280167 106.9082283831229,71.23125599489492 107.00121639791213,71.28152208653079 107.09347284208482,71.33359554907996 107.18663481204241,71.3873548981611 107.27757456107787,71.44256305678392 107.36181860473499,71.49406750794886 107.45030943316155,71.54848284263497 107.55677445022827,71.61785632112165 107.65813893763058,71.69323036528704 107.73879544344032,71.75540632308568 107.81034549467385,71.81019395452594 107.89119264178618,71.87010494673943 107.97325288629013,71.93437059105182 108.05347749357267,71.99647537256352 108.13043986419336,72.05844130928253 108.209289342138,72.12007662857035 108.29333635719289,72.18857971658423 108.36613223780148,72.24949037501057 108.44155700080005,72.31024152223175 108.52368968421167,72.37806746288959 108.6032320225457,72.44518319418272 108.68033678385673,72.51126434319188 108.76029159708882,72.57990311726572 108.83986620624935,72.6505915087539 108.91179039301538,72.71557070255429 108.98067251993761,72.77664812672828 109.05465364276522,72.84047252662634 109.12892690214206,72.90517968273824 109.21198020525317,72.97572228479972 109.29727039452067,73.05314142631273 109.37212585827038,73.12312415565259 109.4477197266233,73.19332931993466 109.52281537289055,73.26458340566222 109.5887061156193,73.32749052813872 109.65659382290673,73.38843208344981 109.73024871565433,73.45385890595634 109.80312916339183,73.51782445437321 109.88190082932813,73.58553157000347 109.96486693171929,73.65886403444907 110.04293038441219,73.72994097624179 110.12108021583194,73.80094037964055 110.20999041995603,73.88383290865218 110.29199932154876,73.9680652158597 110.36544834799841,74.04401839229659 110.43652182336233,74.1191929977406 110.50266742535798,74.18815323385883 110.5714306781107,74.25765018076906 110.64275066832774,74.3296913019693 110.71482901568561,74.40204104340746 110.78770481825866,74.47550822422623 110.86179333857584,74.55045197128769 110.93139271438076,74.62185208697848 111.000702598922,74.69039581329628 111.0757642938114,74.76516214843191 111.19372289882199,74.8941669855266 111.28522003047274,75.03970574976081 111.3391449711943,75.1270939040673 111.3956427027307,75.21931225694256 111.4507549415231,75.31298062630378 111.50303215490999,75.40188107164741 111.55538538993055,75.49110432328644 111.60366593443081,75.57320750581049 111.65607497578513,75.65804508799681 111.70877406627294,75.74724172544376 111.76202269399262,75.83498818049618 111.8140061455063,75.92350945021036 111.86321305221729,76.00418147512258 111.91277739416398,76.08371157975931 111.95900668265304,76.15469610350259 112.01427838477801,76.235277129869 112.07511863992059,76.33114175718848 112.12989787975744,76.41844798405268 112.185119427051,76.50577497256383 112.24198013754382,76.59902537961848 112.29398165758433,76.68569747276969 112.34252693899259,76.76371125146233 112.39250513404845,76.84216033846856 112.44612746775623,76.9263269403433 112.49804222813242,77.0088027147127 112.54787477442268,77.08528440010303 112.63351419531439,77.23045471963772 112.69843464575256,77.39048510937322 112.73584092811394,77.48096234547596 112.77296814309042,77.56981491989944 112.81111102256074,77.6610550151374 112.84911506859667,77.75310701111565 112.88404915557855,77.83670537819889 112.92272709926145,77.92556056339622 112.96569129784886,78.03084713710403 113.00139285476926,78.12283109021317 113.03510144165473,78.20337813886017 113.07325168414712,78.29500955675374 113.11255927915026,78.39215209714288 113.1497844025806,78.48629619768461 113.18358437959608,78.57110384853132 113.22157712294353,78.66309646940336 113.26175023395176,78.76644801348712 113.2971550211935,78.86038464320123 113.32955910400388,78.94447966585321 113.36595883155793,79.03594452585206 113.40194508587942,79.13007964591314 113.43785410214718,79.22203399774705 113.47593069726935,79.32211286489773 113.51241776846874,79.42151552510266 113.54629521300815,79.51520738662158 113.57924941379264,79.60553415792643 113.6101155127997,79.68935551077242 113.64263922453335,79.77253899111247 113.68057798618929,79.86856812008648 113.71802152366085,79.9669031029775 113.75392247319455,80.06130063255488 113.79272599608544,80.16416894275557 113.82324853391702,80.25077049791766 113.84878895539127,80.31467218475952 113.88358118422684,80.39366664614887 113.92323416953482,80.484024663595 113.9671994086766,80.58297870101057 114.01196573468846,80.68985494283808 114.05212192430847,80.78913641063106 114.09301950605483,80.89086970892338 114.12790441831129,80.9821255920013 114.16224527383702,81.06483124359586 114.20181025779266,81.16028284744526 114.24459880859224,81.26547342724672 114.28731946659686,81.3776059078254 114.32429596354409,81.48026710298238 114.35850089072476,81.57398445635312 114.39125533978489,81.66290662226092 114.42503551068246,81.75038708875286 114.46202822334327,81.84562730607371 114.50009053024363,81.9452633685892 114.53895374849394,82.04929653161183 114.57356193727013,82.14532214609739 114.60716812055054,82.23381982954157 114.6411995432183,82.32295394197794 114.6740537526256,82.40512042377405 114.71395337264899,82.50205165209088 114.75178031441058,82.60047286975131 114.7870797927172,82.68688771782394 114.82588936435688,82.78263930051739 114.86383716696491,82.8779515229091 114.89802950987725,82.96153283077444 114.93335525348803,83.04281943143314 114.97038530638582,83.12708529928292 115.00461123886953,83.20135108405869 115.04569948458214,83.28564715011818 115.08802122772508,83.37674561081982 115.13029879145454,83.4643172563142 115.17231894928007,83.55336825921769 115.2086779751706,83.6267751113537 115.24919759451187,83.70385923453522" stroke="none" stroke-width="0.3" /></g></svg>