<?xml version="1.0" encoding="utf-8" ?>
<svg baseProfile="full" height="180.0mm" version="1.1" viewBox="0 0 180.0 180.0" width="180.0mm" xmlns="http://www.w3.org/2000/svg" xmlns:ev="http://www.w3.org/2001/xml-events" xmlns:xlink="http://www.w3.org/1999/xlink"><defs /><g id="crack_content"><polygon fill="#000000" fill-opacity="1.0" points="62.75330147640436,118.97956875484559 62.666732759901365,118.91813704248784 62.597095379908986,118.8377961095338 62.53257472333773,118.76177967963073 62.46650768533248,118.68680472840573 62.401338295307774,118.61046074074045 62.33627858986971,118.53434651880931 62.27207270818242,118.45832219193728 62.20623704150492,118.38429815720316 62.13898434497611,118.31046043559874 62.07207502854605,118.23598049340055 62.00509252397673,118.16172259205669 61.938023253067875,118.08703585941788 61.87168547976493,118.01119753768879 61.80682952026535,117.93442030181244 61.74239674904582,117.85769356797576 61.678242394568585,117.78054520583788 61.61492215847891,117.70304183500045 61.55143821130792,117.62619424458916 61.48703640162552,117.54940281877512 61.42360667781996,117.47121670296868 61.36131692851174,117.39270715062338 61.29912744261921,117.31466316473913 61.23232797314459,117.23979210476953 61.161551539281966,117.15771463205935 61.114016583781414,117.06026296357088 61.07174993174268,116.96894098262179 61.03011963373436,116.8759425575579 60.99372913188723,116.78112643273813 60.95863310266879,116.68837481433174 60.92261023814633,116.5953198444521 60.888275109468665,116.50045241640244 60.8534275163549,116.39573316355384 60.84667897177049,116.28645515766064 60.8411319167306,116.18675512244495 60.83718662413921,116.08634268667663 60.83459075901434,115.9855825138175 60.834498540241825,115.884886100946 60.8322809572753,115.78507883477064 60.82505453103892,115.68544934678546 60.81837128738396,115.5852111009491 60.81298159641404,115.4854332542545 60.806057819006874,115.38620606070539 60.79855762526438,115.28670141546978 60.79073240767097,115.18679599726725 60.78405919457334,115.08700983141138 60.77632357126564,114.98780035319494 60.76770159918765,114.88820213699505 60.760737930149,114.79480252442337 60.72910718314871,114.70688568706417 60.69550307737547,114.6126134686008 60.66233835922463,114.51810379666392 60.62945164506764,114.42394373275614 60.595320580326614,114.3298467747725 60.562527223289905,114.23479217554421 60.53045772228475,114.13989088631432 60.49827092460651,114.04443209197666 60.46878822340656,113.94787742263182 60.44046979223519,113.85194395223785 60.41161750919197,113.75707506426055 60.38050721707567,113.6634043137341 60.346752193837155,113.5701349930338 60.31218407999953,113.47633457642779 60.27775229690713,113.38155457737517 60.23207763905599,113.29010185002525 60.18410490152865,113.19938075904732 60.13623902350379,113.10797713886375 60.08927740537951,113.01659166091042 60.04179870555724,112.92608149724283 59.98958374657086,112.81445186213294 59.96635286661557,112.71333996074301 59.92695662196246,112.6441695350003 59.880876672402074,112.55631879683595 59.834008281701024,112.46274262553828 59.78953781917033,112.37018861484411 59.745159231048085,112.27995415116328 59.70017884551271,112.18455923235949 59.65835298235268,112.08835299512516 59.6180593934348,111.99565982886394 59.57913430274132,111.9043373708423 59.55251860943598,111.85286007755731 59.512960812863966,111.81130088016921 59.45653754364699,111.7325811845489 59.399297105751074,111.6502746605411 59.34478469332602,111.5706942526931 59.29086576242405,111.49380599617352 59.23657669195791,111.41627223959507 59.18144120375289,111.33815541103522 59.12262665011239,111.25328587744947 59.06265237038096,111.1608588297661 59.00728034056043,111.07018876908714 58.95518745478734,110.98391829621788 58.904389562118865,110.89910433377192 58.85506553365516,110.81757714726054 58.80707228684272,110.74085371868696 58.75465880220816,110.6612348960528 58.699997443726765,110.57693957825344 58.643609381149844,110.49098220296896 58.587108770385036,110.40259401590995 58.531039440388845,110.31496715446802 58.47748793553707,110.23071262623962 58.39347498106247,110.08760139634263 58.33856994219118,109.92481160455849 58.30578996772286,109.82803555396988 58.27304860874934,109.73511072219974 58.23959971816622,109.64447097996104 58.205261530362804,109.55657665093054 58.169590169059155,109.47112347544895 58.131806563965945,109.38568657966712 58.09246216180501,109.30037036137881 58.05040412231786,109.21223010156571 58.006879939711325,109.12022573230107 57.964951492688606,109.03388574551539 57.92404413357466,108.95597489506183 57.8780635862147,108.8706190709273 57.83303827093317,108.78440329657975 57.786014425860834,108.69851226003584 57.73743282283332,108.6037998532374 57.670424473843056,108.44547121187536 57.62878274060443,108.27705610574318 57.603487930885116,108.18468143253935 57.57679874024929,108.09065515195522 57.551160169376,107.99060705139193 57.52704670185602,107.89675614407817 57.50284873782299,107.79936524474446 57.48072849034042,107.70512026637053 57.45686619506796,107.60217628445622 57.434484522188114,107.4823698506906 57.41697276351837,107.36775619125468 57.40301623228842,107.26311476228115 57.39053642759468,107.16223878313657 57.37947662755723,107.06372955021715 57.3686217232991,106.96444335973686 57.35882276782731,106.86412065152334 57.34959381341537,106.76657804298743 57.33922835248838,106.65535317492373 57.333180558645104,106.55358487214176 57.32621128612492,106.46813407446751 57.31742774999461,106.37298904425813 57.30801559608854,106.27558145879028 57.298287047591515,106.18117261497454 57.28689996028674,106.08481826455555 57.27447649970414,105.98377477573158 57.260494935664745,105.87387382019558 57.24777972220328,105.75998857841607 57.23600720501272,105.65320426438812 57.224735171400404,105.55839499432041 57.21102557667747,105.46931632982326 57.19475359501461,105.37390036611937 57.177282042384945,105.28115880737104 57.15680826055347,105.18522250192773 57.134458705124715,105.07823968922713 57.11275505747632,104.97722954158883 57.09070852648743,104.89232143011576 57.064480582946715,104.80112857647752 57.03733104730226,104.70472882949989 57.00895937489506,104.61580276423936 56.980047766755376,104.53407060981854 56.9470723224946,104.44660596902612 56.91239077604337,104.34761059211861 56.87911568372556,104.2611844075735 56.845499178825634,104.18449334279246 56.81046000641211,104.10926912891189 56.771713521799285,104.02400802765949 56.73208854210623,103.93210048541995 56.690570948264245,103.8321491497005 56.65355329087537,103.74219921572845 56.61724351029346,103.66369772967732 56.57834554948201,103.56998272275104 56.541848309753476,103.48110191390683 56.50529656774736,103.3914100946149 56.469889315324075,103.29920949668866 56.436111285772384,103.21075122811052 56.405689961002004,103.13060763983859 56.37673435015175,103.0574182552308 56.34415648936443,102.96945914272514 56.30733408932111,102.85847760232336 56.27514226250274,102.74877613010125 56.249589794946225,102.6586869344746 56.22594956816835,102.5733907942312 56.2046733591181,102.49384616671496 56.179614850757986,102.40241186859588 56.15240138744199,102.29446466093671 56.13168069591554,102.20260143872463 56.11513494800941,102.12673425507774 56.09500126740154,102.0416318024884 56.07164037012401,101.94352212943683 56.050428091859416,101.84939968083663 56.00344840359143,101.66323691442665 55.97966698077417,101.47460196453794 55.9731321402627,101.37877298751103 55.96524850260174,101.27134057650642 55.95928011805154,101.17011104186318 55.95290025531417,101.07150262752776 55.93301699519636,100.81777860015366 55.95968309659147,100.56413273788564 55.97897075737554,100.47149950310863 55.99485318160585,100.39304330192716 56.00967959677254,100.30344422065446 56.02478409395092,100.20872318481253 56.03872603035013,100.11125030336267 56.052645611338875,100.01844025479585 56.06407281180984,99.93153709867349 56.07604855054931,99.8249435462103 56.09071333201541,99.7044834730887 56.10652316226002,99.5974546825028 56.122059572561156,99.48689099575721 56.14073559832442,99.37556430760492 56.15675507188891,99.28609790407332 56.172347756512515,99.1918606085325 56.19016128630995,99.08465117344939 56.21023295615951,98.97378595946165 56.23140745991421,98.8697839686619 56.24581364324718,98.84520094446101 56.25211231215565,98.81524264008839 56.261416145001704,98.70574182924754 56.281860746042994,98.46958158378112 56.343994065149595,98.25493910956314 56.38271363665174,98.1583427185207 56.42623373769167,98.05624652050545 56.46655754556562,97.97024624555276 56.50922197142301,97.8747009229704 56.55586208235984,97.77682643211209 56.598123084135295,97.69626215068112 56.63909926041048,97.61763709247744 56.68035290681116,97.53710267539464 56.722689800763334,97.44893867824759 56.76890998859144,97.34910899564666 56.81763810797405,97.24751625613395 56.86649728040882,97.15179610805059 56.913925991753125,97.06261931120541 56.95956293759715,96.97817018625278 57.005888351291915,96.88485163464625 57.05678704168321,96.78019276673048 57.10699718368957,96.68544464006355 57.15356594796738,96.59780709163664 57.199472057299445,96.50904224493307 57.2432942751119,96.42161762505008 57.286184150975686,96.33023927747323 57.32939761610372,96.23468444419898 57.37104858113636,96.14228126481152 57.41041091567656,96.04988808600754 57.44756219443187,95.96153993255119 57.480891537949304,95.87168889011386 57.52402384998926,95.74358930673414 57.57975851838471,95.6231976745963 57.622565194117755,95.53226525022733 57.66273714618365,95.44473566709075 57.699266330007184,95.35648337695909 57.73464257835731,95.26756665023957 57.764922363190216,95.18279585887616 57.793854101149655,95.09140530786078 57.82396892528385,94.99445431083068 57.85229483564859,94.89996988196545 57.87769372879258,94.80912683661191 57.90161922231566,94.7152317065016 57.92702082539537,94.6159959838347 57.95248822459411,94.51736002733679 57.97610625358514,94.42399206130573 57.99736756226293,94.33278610997735 58.01862941536225,94.2389192312774 58.04122072598695,94.13971527832867 58.067554023264606,94.03392859792497 58.09376701522695,93.93798804285117 58.11458242699533,93.85394870833544 58.13611267302915,93.76177379755008 58.16100858957774,93.66326435009768 58.186835510945535,93.56506372091125 58.21464954531281,93.46580418475381 58.244271931712845,93.36622118115211 58.27585673846997,93.26696980099385 58.30777985195035,93.1725101127332 58.33681965930625,93.08877876768783 58.36135966265192,93.01382253771696 58.3859506281784,92.92573001738431 58.41445889206728,92.82982283149113 58.4408012046341,92.7413720326872 58.468111372631185,92.6428679796997 58.4999770091437,92.53810245019628 58.53158879583447,92.44115481386538 58.563402408240236,92.34261159117892 58.61145139842716,92.19714634912773 58.683370944035715,92.06266260294694 58.73992623222608,91.9693726123529 58.79710862106685,91.8791938186583 58.8542121604167,91.78987241780226 58.91215480532834,91.70200187172257 58.966319981371555,91.62033368059944 59.01668720572748,91.54121126849243 59.0648887565099,91.46131296302045 59.112317720243084,91.3776538341348 59.158958265936526,91.29320116085844 59.20314780091172,91.20835775112567 59.24604027489636,91.12285808128439 59.28529817766074,91.03970457766695 59.3231321908121,90.95197093246446 59.36241067442842,90.85962917786509 59.40179698989912,90.76512348250577 59.440084935883874,90.67468705480277 59.47695425595585,90.58091881767979 59.54299003564757,90.43615778444159 59.63705281043404,90.31062010898135 59.70099521143657,90.2292348689743 59.76382957963178,90.14969866443928 59.825258239418794,90.07234004102054 59.88445340042661,89.99668500824393 59.94322190203869,89.92053199220938 60.002187034343905,89.84368480847333 60.06091468849791,89.76695695057542 60.1194258529884,89.69020889423318 60.18071791566319,89.60989739861434 60.245752682323456,89.52807933714946 60.30976194095965,89.4503206727874 60.371527450470474,89.37594862879969 60.43036548991486,89.30526789400972 60.48889171342184,89.23215163386533 60.5505913612413,89.1558430724228 60.611765288585964,89.0804983354649 60.67394667854528,89.00370870886547 60.739233879399,88.92393131968991 60.807458262708145,88.84332065518362 60.87354897621392,88.76872242025277 60.937916202641574,88.69408130325994 61.0050697161517,88.6173840178956 61.07014222467115,88.54356481627096 61.15345447788633,88.44474144468828 61.25264035984317,88.35758047183829 61.331118502316414,88.29268980925809 61.410332077366256,88.2266983337108 61.4918386427203,88.15952281532564 61.57174886295128,88.09521131129343 61.649285052133315,88.031105408738 61.72539357908028,87.96769965646978 61.79627729351987,87.90551304678714 61.86848617194473,87.83714088269677 61.9451438473588,87.76531274986462 62.01773903217853,87.69696086988645 62.08628216980548,87.62821013143606 62.15473764158889,87.55688594139359 62.22094098464312,87.48501834421175 62.288952025297334,87.40778318193291 62.358553996007636,87.33067768271727 62.422859614206565,87.25574859081352 62.48408595315581,87.18130080354098 62.54360628628911,87.10424671745376 62.63549946485336,86.99717605403659 62.74678523869564,86.90491306170415 62.82855760194148,86.834774597472 62.911681511835816,86.76516607164301 62.99376518469853,86.69758960105509 63.072705483978766,86.63225114570552 63.14735993629553,86.56912298186705 63.2236468282897,86.50366953390207 63.30167050904544,86.43864356714127 63.37541262817199,86.37573302998553 63.44874377599589,86.31296414609307 63.52942052693383,86.24570255026974 63.61541084429712,86.17906217777187 63.69327321818515,86.11896769864356 63.772044095842276,86.05830620322799 63.85627184177759,85.99691080632978 63.9398236426559,85.9379213857902 63.99928809685071,85.89534439034414 64.0580941611881,85.8460011540277 64.13600342889589,85.78750954322724 64.21227023701262,85.72935756326653 64.30248252886479,85.66439860526242 64.3973457703045,85.60118316322647 64.5519929629049,85.5088842391523 64.71223823186297,85.44919177441436 64.81351401904814,85.41505446709401 64.9216802423368,85.38292590547269 65.02835920425956,85.35327887470089 65.14922556052541,85.32307627000763 65.26728242749299,85.3002886897297 65.38586430835757,85.27964285464437 65.56760539449425,85.25743557568094 65.72604451901478,85.26616950658088 65.81812273157526,85.27402828567288 65.91467115487279,85.28184202930954 66.01068366784126,85.28850913800892 66.11832626448339,85.2946317299183 66.22728803021266,85.30337788379579 66.32809097531891,85.3118158104422 66.4214741862602,85.31976926312902 66.5099886265104,85.32498039740975 66.60698668219393,85.32812608040332 66.70850806457032,85.3312888863086 66.81216033224912,85.33390807360855 66.91238883388385,85.33742619103862 67.00966912173013,85.3393033153554 67.10689469971882,85.34113929937396 67.20721048523464,85.34141006699092 67.31011328071904,85.34289028431702 67.41645932172864,85.34398523395464 67.52504223373595,85.34789911876497 67.582967173416,85.3530965888584 67.64180448474832,85.3457895236781 67.67444031245047,85.34916099496972 67.70179153358582,85.33659508116321 67.80150806570434,85.30048672132988 67.89792844274358,85.26861994393315 67.98962391971904,85.23794511046876 68.0813878626753,85.20839009241321 68.16952097233926,85.17969566298358 68.26507107284723,85.14755874706384 68.36183485960915,85.11774204011256 68.4640391983607,85.08548258938127 68.56843524858546,85.05795724408942 68.6653670423427,85.03341151849001 68.76606141909527,85.00922013772573 68.86249437232998,84.98819842890906 68.95877859071793,84.96642990908401 69.05289703491778,84.9468796464626 69.11482026171056,84.9402084849447 69.17719871398664,84.91774696748055 69.26795777602001,84.87785480250858 69.35876140251382,84.83743762489388 69.4547855660349,84.79267987592931 69.55025645351918,84.75249209278222 69.63893756042934,84.71360352272018 69.71110825817323,84.68580177564021 69.77444814926142,84.6439265683043 69.85358840132993,84.58414409692028 69.93269493640948,84.52306072287463 70.0095886838856,84.461101050823 70.0870172437324,84.39524818904701 70.1654168620702,84.32939961296974 70.24216523535532,84.26297588185255 70.31981131739263,84.19547205352565 70.39702016180084,84.12869908266573 70.47270018508178,84.06198703119745 70.5476050317252,83.99427215665634 70.62138454535538,83.9265135095249 70.69291986291341,83.85770386035728 70.76444617935378,83.78613175797219 70.83539512458994,83.71573350474695 70.903168728955,83.6434335714609 70.97231403554179,83.56893052737661 71.03957252538187,83.49609113882362 71.10331838647971,83.42172965375396 71.16719546605566,83.34535100062503 71.22915513029693,83.26902638222198 71.28941683942315,83.19109623335163 71.3487850524258,83.11299445908497 71.40864722255255,83.03112729703247 71.47170841218517,82.94950236389003 71.52968654250768,82.87280204703833 71.57284958576268,82.80926525659129 71.60846638886012,82.73457818248981 71.65630333737148,82.64618058724724 71.70323268481904,82.55819627646339 71.7528081438588,82.46900961309046 71.80167293101633,82.38328808351912 71.84840596517896,82.30003166679818 71.89792141842989,82.21168203422208 71.95313061982607,82.12082991452588 72.00288314922152,82.04307176986407 72.04869507401843,81.96242586766323 72.10156955176349,81.87610533737087 72.15196127233816,81.79380080303176 72.2217526489051,81.68254571285044 72.31074990501514,81.58481631999987 72.37905190959584,81.51287353871905 72.44968912343879,81.43943181697568 72.52137882981626,81.36751504740126 72.58994704670056,81.29941184324035 72.65906185990337,81.22848474966844 72.72987383720128,81.15789415511553 72.79751239622328,81.08905432959772 72.86717314621797,81.01636440583707 72.94020756409294,80.94175632997062 73.01207682700235,80.870324200159 73.07976342032448,80.80197789288759 73.14476619777017,80.73294985645947 73.20988469256271,80.660431658066 73.27709535298328,80.58412356454593 73.34465878409773,80.50847220708424 73.40935101291173,80.43448196049636 73.47297669933523,80.35917349799408 73.53512721737752,80.28422789234556 73.5954135139391,80.20753590692296 73.65711736455039,80.12791215029164 73.71976246552333,80.04689389006396 73.78264870351597,79.96652861765405 73.84318571233364,79.88854162081365 73.90194104174843,79.81015483128535 73.96259851270223,79.72841453056215 74.02254222626297,79.64950968099319 74.07854967595755,79.57193604653675 74.13832959564051,79.48830898014982 74.20162427748132,79.40480653066328 74.26343576999265,79.32429059329105 74.32599550467255,79.24422966766885 74.4180250146955,79.1354000813207 74.53112639419419,79.05095445997779 74.61047478847642,78.99349055616183 74.68911437229123,78.93650475778662 74.7685831074518,78.87891350726703 74.85081326139533,78.82024170173455 74.93374664579773,78.7633310981858 75.01385019106343,78.70911117413296 75.12493633621168,78.63384273953103 75.25308934609241,78.58141528578061 75.3474235180942,78.5482704399124 75.44590114649992,78.51293329677229 75.54717131936206,78.48212530511803 75.64245170057605,78.4538560602643 75.7362326136941,78.42681161998034 75.82997012911133,78.39823713173901 75.92986823530327,78.367794512727 76.02874052267673,78.34118981907437 76.12184633257425,78.31536058317714 76.24389309642571,78.27762300040403 76.37326745793956,78.26843831275458 76.47290174543937,78.26492336057825 76.57093558244053,78.26017200571573 76.66997292490795,78.25321203732707 76.77124110968464,78.24535424056076 76.87224544689907,78.23771791357758 76.97192492717178,78.22922748510767 77.0701408381347,78.21955158544789 77.16899432603252,78.20696225173384 77.26847045924123,78.19397738270882 77.36740141875737,78.17897320360035 77.46730441832663,78.16315133214349 77.56541089162288,78.14681580132518 77.66109068483827,78.12805188074611 77.75928426768643,78.1057416518246 77.85838883816191,78.08431814687604 77.95448677304046,78.0611634493646 78.04962874107706,78.03636585083494 78.14738482644368,78.00859893973885 78.24640424632737,77.98228722535133 78.34436899212871,77.9547474171986 78.44201743314497,77.92829561148226 78.5708037156978,77.89766490911366 78.70405372418264,77.8969177062433 78.80806714093907,77.89447344468306 78.88591045168143,77.89308524881187 78.96162853289499,77.87529263323786 79.06836741998391,77.86021865841155 79.17404005082948,77.84810981519328 79.27930774041124,77.83842499765775 79.38425707895188,77.83146328030044 79.48426490032863,77.82667681850636 79.58141641067226,77.8218631135407 79.67553277889618,77.81798330272494 79.81910631237712,77.81548460084933 79.96598550091981,77.84715582767952 80.06661653273329,77.8726614626084 80.16376310126245,77.9001961594475 80.26057773962998,77.92845045545825 80.35817502466176,77.95978784547489 80.45382765479596,77.99221275608505 80.54664563654093,78.02572361120309 80.64209776064028,78.06007165208125 80.73904725950457,78.09817404536727 80.85917327999353,78.1458787662969 80.96919042094551,78.21164987677848 81.05206673443324,78.26592038622513 81.13437400040135,78.31997383515869 81.2182041009892,78.37448982527184 81.30561413722886,78.43153134396728 81.38998249676659,78.49004438795656 81.47260861186003,78.54669109307568 81.5576276093704,78.60509949378576 81.64352055388417,78.66553348314325 81.72799742845861,78.72774504385896 81.80978208965296,78.78999499043593 81.89148191147518,78.85222842015278 81.9724330569519,78.91562331937327 82.0522446434675,78.97857016219075 82.1305210017044,79.04061500676788 82.21058254085197,79.10090753544765 82.29125492172172,79.16249617504975 82.3708358038217,79.22311990253893 82.45073846962455,79.28179493520744 82.5400959677229,79.34378542647167 82.6125597123519,79.42546234917748 82.6783394321992,79.50039724351645 82.75198441070265,79.56728534810176 82.82644192353418,79.63375299460039 82.90165678236008,79.69953032234694 82.97627380325595,79.76571185883748 83.05658339681804,79.83503459667273 83.11691919262894,79.92230250753967 83.17491553638561,80.00385070286336 83.23167296739499,80.08713628302762 83.28713447301067,80.17055383599181 83.34269269285151,80.25330226530137 83.39915183509858,80.335834285851 83.45531245117343,80.41945322261961 83.51178320621172,80.50772599195746 83.5525862220836,80.6038637952597 83.5911073591903,80.69675806454318 83.62820709079467,80.790444551614 83.66519863770742,80.88853779760124 83.68448512212312,80.99144135173546 83.7019124033126,81.0903112621456 83.71867180980601,81.18937282218037 83.73411727887095,81.28779324273223 83.75210484343529,81.3851830809576 83.77138414255057,81.48319424870955 83.79010335942036,81.58212453563446 83.8067365992207,81.68091365690395 83.82513531989582,81.7830520910082 83.82690178229774,81.88734746544407 83.82762988358486,81.98787073639039 83.82705511600545,82.08845399703445 83.8254386800869,82.18858773053245 83.82428417134342,82.28809325598483 83.82461823685637,82.38841562713834 83.82215469383333,82.48911697322207 83.81956154286728,82.58922917606475 83.81589940292172,82.69580451189876 83.78561265014378,82.7979963043376 83.75659220042594,82.89368345764194 83.72792217525017,82.98913532274943 83.70040965492841,83.08442764875423 83.67497708618686,83.1803650499627 83.65019831727851,83.27696534643668 83.62561349867644,83.37394770587866 83.600795423963,83.46985944117965 83.58008807945535,83.56654731173943 83.55936619830835,83.66457734916408 83.53767579588013,83.76205508870764 83.51754496055158,83.85996523111764 83.49583913269484,83.95829225543136 83.47281639584423,84.05637157752729 83.44848741401808,84.15279509261234 83.42807530661989,84.24937410027538 83.40867874042699,84.34728736146 83.38863834605897,84.44563735862276 83.36783589087861,84.54301936295853 83.3496382290362,84.64073008161864 83.33120196327788,84.73866960861594 83.31426400077802,84.83701964769907 83.29650566940965,84.9357500152156 83.27818599928979,85.03464518104956 83.25816611602251,85.13287344596274 83.2388314821016,85.23173405444342 83.2157817299428,85.33003083745785 83.19273299343364,85.42776663629195 83.16814416477344,85.5252528854241 83.14303950036667,85.62229176700934 83.11756180253683,85.71945298046045 83.0907405277393,85.81599295463269 83.06462591052005,85.91248990071065 83.0381092100261,86.0083884972175 83.01413671650947,86.10462019851492 82.99072286828806,86.20171285145722 82.96701361707231,86.29892767427586 82.9431802262694,86.39664211818692 82.91713125796775,86.49364596219502 82.89182798446772,86.58999210097592 82.86734484377686,86.6871205551675 82.84120352226685,86.78403168614109 82.8152544231522,86.88082826623025 82.78821582515127,86.97774289999707 82.759966880685,87.07361310600461 82.73335719656548,87.16980738533151 82.70575524244003,87.26622592162245 82.6780634672464,87.36196155083735 82.65035924015345,87.46295487750587 82.60290075876523,87.55676407027482 82.55743588879275,87.6460887064357 82.5111316249079,87.73502107749707 82.46484763417386,87.82362107493292 82.4188308083765,87.91233945129562 82.37271242812325,88.00111966504326 82.32649138055164,88.08984797310069 82.2800514410511,88.17884807925248 82.23238608518048,88.26698804444484 82.18523878137138,88.35557995188827 82.13622641129783,88.44320549768183 82.08771591226082,88.53093516070948 82.03815313380015,88.61750325459316 81.99098870933645,88.70484186998233 81.94393759576496,88.79298088120255 81.8969579921919,88.88070581884108 81.85191390737802,88.96920103543692 81.80738228202891,89.05827049399115 81.76370398194236,89.14775393138169 81.72063243854718,89.23769967471596 81.67804609101495,89.3274131651886 81.63771488011987,89.41799567622911 81.59810192826129,89.5092925429205 81.55923777534026,89.6012836208426 81.51984955661541,89.69343408681922 81.48013337020188,89.78522583294028 81.44102854156138,89.8765488264833 81.4036956217561,89.96945163854325 81.36324045028975,90.06265327155505 81.3198111013815,90.15345451442197 81.27458710302271,90.2496126059152 81.20631709970792,90.33176036051705 81.14056327941493,90.40843425744565 81.07263925640444,90.48317715922886 81.00420066522776,90.5568369923598 80.93559056404125,90.629084764283 80.86894270423409,90.70295844813833 80.80168247385639,90.7767164180029 80.7356865666519,90.85092410765803 80.67041111020569,90.92660769125217 80.60344747728534,91.00223651524765 80.5345290885033,91.07588702634392 80.46538979851988,91.14872551715105 80.39534619870717,91.22105038429125 80.32455399822545,91.29166520658056 80.25557297817053,91.36295296069585 80.18728534240992,91.43558556223509 80.11861484243084,91.50831782845214 80.05026473370069,91.58085009224173 79.98265319863731,91.654424697064 79.91408936492167,91.72763827796719 79.84541150959899,91.80056245412582 79.77689436621455,91.87271435329019 79.71076031178045,91.94580086851732 79.64686707345133,92.02133164267754 79.58343082832667,92.09777158272513 79.52104830752167,92.17562413746714 79.45776317156441,92.253374499028 79.39444414068872,92.33079200051908 79.33177246765878,92.4076922251294 79.27151413043683,92.48636066132993 79.21125073724761,92.56603950344834 79.15070149605997,92.64572444336062 79.09019695887233,92.72519511383099 79.03014658785182,92.80500390492334 78.97017796443052,92.88457540171359 78.91120864820384,92.96535125300875 78.85057572380656,93.04573681339919 78.7894120590792,93.1248479873202 78.73221910566252,93.2002618988157 78.69167019430968,93.2861654129029 78.64821192272939,93.37715853520562 78.60210910206513,93.46632150188168 78.55805542982564,93.55510800458683 78.51550398642954,93.6450666642433 78.47293082450663,93.73522234599805 78.43142060339068,93.82575086208438 78.39032998071688,93.91658117353803 78.34985186388313,94.00780358634267 78.30634014010201,94.10501729410822 78.23641331921486,94.19200159583811 78.15493441411542,94.25938839769263 78.07542641288457,94.32141204710796 77.99615377410379,94.38231045076137 77.91796691700627,94.4434780781026 77.84087215425251,94.50636651645529 77.77766430630066,94.42887607861103 77.85555041923543,94.36534882106002 77.9348835524097,94.30327906501142 78.01421338280191,94.24233635584888 78.09240352008118,94.18135066777127 78.16535068524904,94.12164463417942 78.22096926217509,94.05294222135754 78.25843039371803,93.96728057074841 78.29907147095842,93.87569249054796 78.34041532446147,93.78430162557733 78.38226703507543,93.6930313838619 78.42509312688551,93.60233638836647 78.46806352344429,93.51150230787354 78.5129031475829,93.42112971407775 78.55866790185706,93.33264035548073 78.60139234361291,93.2431548366039 78.64670295521668,93.1484257337094 78.70993389183253,93.06415844183572 78.77110015590647,92.98504386399846 78.83090479907845,92.9057585368796 78.88986149322722,92.82499969816382 78.95026277849882,92.74484929576282 79.01046091806202,92.66484477169526 79.07110827050819,92.5851858734546 79.13156139260371,92.50562751498393 79.19194343849873,92.42579247674023 79.25331125046456,92.34569353646263 79.31698020124965,92.2675516804173 79.38028172373694,92.19015563125454 79.4432513293629,92.11279396804699 79.50593290507385,92.03457291271141 79.57021795608775,91.9571061585814 79.63550245936655,91.879950616809 79.70355520268447,91.80473371565925 79.77275413274543,91.73185360761563 79.84119500950922,91.65918089743737 79.90934169747064,91.58641422877648 79.97705849197547,91.5127263359414 80.04586973994614,91.4397018677397 80.11450169384852,91.36701049021842 80.1832117419751,91.29393230077241 80.25330854806633,91.22149337582475 80.32411486436563,91.15086422463052 80.39320689787164,91.079518372621 80.46175708030178,91.0072996016779 80.52949719702487,90.93492116744791 80.5951108196262,90.86080597213598 80.66045945013818,90.78503874554299 80.72737330145243,90.70979746032543 80.79487395229069,90.63577347968894 80.86220414697603,90.5611551404777 80.93131242807746,90.48837309760408 80.99900698558008,90.4155141065838 81.06559793960601,90.34225119445115 81.13003385326891,90.26710074164464 81.19020836100263,90.19594485120989 81.22937433009156,90.11077910699977 81.27225424081682,90.02116219196257 81.31142615205266,89.93089849391605 81.34866425706464,89.83822339172512 81.38828047094526,89.74569047031193 81.42798440626234,89.65392719943728 81.4672032284788,89.5621729805512 81.50617425191871,89.46993136506394 81.54616900586738,89.3777544920101 81.58719299315163,89.28563141548088 81.63036617209148,89.19466479188647 81.6736743795749,89.1042261161648 81.71772636508884,89.013978095573 81.7626320407598,88.92415940698984 81.80831599199406,88.83441763675398 81.85575107205904,88.74583072704944 81.90288585179175,88.65753556498542 81.95076019986477,88.56889795551818 82.0005649384658,88.48189734095189 82.04883279108614,88.39460143256072 82.09745774291817,88.30767912425372 82.14426589358351,88.21971403643923 82.19174004835186,88.13193221925266 82.23781887342848,88.04361825884143 82.28399790796469,87.95497062482534 82.33007557596216,87.86626875866924 82.3761454636806,87.77744830211402 82.4224656542824,87.68877882784332 82.4685261655356,87.60031686891159 82.51378191393701,87.51140074261377 82.55705612471505,87.42697531873304 82.58177731654789,87.33496197336544 82.60965483418644,87.23857250350652 82.63709715652236,87.14271486439124 82.66381219901771,87.04614899863765 82.69209114761324,86.95017396152984 82.71879752195105,86.85444519948899 82.74463435709211,86.75806254411724 82.77058363711137,86.66187637000266 82.7949831671739,86.56507059694177 82.82048201531984,86.46797644923541 82.84630858142047,86.37182509934368 82.86986106801488,86.27523416859083 82.89353996214035,86.17814416985036 82.91701261650785,86.08081034343611 82.94139236287855,85.98297488909436 82.96816956153677,85.88610481513541 82.9943009982402,85.78954645864567 83.02101905896326,85.6933857853047 83.04626804054213,85.5970869150275 83.07125596938558,85.5005005603922 83.09558339151035,85.40406104947905 83.11843790120575,85.30713588153273 83.1410647110234,85.21071838236423 83.16010153576484,85.11329442405444 83.1800256521327,85.01555208685305 83.19813129236898,84.91779223300671 83.21577853828276,84.81968143334188 83.23278738043358,84.72093349056317 83.25134665460803,84.62232447387447 83.2697758514405,84.52341761136849 83.29074679446896,84.42521080415797 83.3106383162014,84.32758773664973 83.33010804223397,84.22931381341947 83.3510691480424,84.13021896685316 83.37565454400058,84.03271624945283 83.39833551282183,83.93608765879773 83.41974240587346,83.8391167228152 83.43989069525476,83.74112486903168 83.46163931475307,83.64337696637098 83.48227874501208,83.54573063343177 83.50347672183295,83.44685791480153 83.52873913973272,83.34914128374155 83.55329922784851,83.25225570322517 83.57821402604344,83.1551279702647 83.60403538866986,83.05774430557676 83.6319959169906,82.96088372144408 83.66085762187346,82.86478898638217 83.68988322289104,82.76908477103572 83.71719647412469,82.67975048290626 83.71960106836336,82.58641785307523 83.72218644742576,82.4865971100917 83.72462382446676,82.38735851273607 83.7242850169395,82.28768201578809 83.72544829604479,82.18720097204272 83.72706109183332,82.08736077708356 83.72762991290035,81.98794730724183 83.7269081485731,81.88847583353294 83.72561104096769,81.79279467299828 83.70823478667157,81.69815874097267 83.69166413383573,81.59972336702465 83.67319552102367,81.50214140159984 83.65387452836188,81.40391287541928 83.63554447113255,81.30462777790741 83.61997551233176,81.20546756867954 83.60337150031103,81.1073315569619 83.5860814223965,81.00923775249836 83.56890036656443,80.9154941136491 83.53496648662706,80.82658579861044 83.49843047433096,80.73432127810072 83.46033934456416,80.64247096542168 83.42332676784888,80.55436780273017 83.3717290835217,80.47435149811159 83.31637669193587,80.39194378303637 83.25991288802909,80.30940488479068 83.20398569091745,80.22610813408308 83.14871599247337,80.14297659384208 83.09284702730878,80.06098877964152 83.03492892502565,79.9795528002755 82.98218655982103,79.90185608008068 82.91057504898187,79.8411020020051 82.83556408237726,79.7745753422282 82.76022867580538,79.7086916750345 82.68548562458164,79.64197076464632 82.60958974543242,79.57605249930721 82.52889940861834,79.51480177582397 82.4558646401094,79.45925558577304 82.37012148758657,79.42460363215903 82.27681024799784,79.38329395110092 82.18465767561067,79.34141099290618 82.0934311932452,79.30077057197047 82.00031199821062,79.26102094299593 81.9073937667468,79.21966166552173 81.81552674072276,79.18000999959533 81.72417436873974,79.14185935301987 81.63182682234653,79.10556606749017 81.53923997826944,79.06986409652913 81.44786842863815,79.03680062534055 81.35576362804039,79.00603810854122 81.26151686464637,78.97576851329194 81.1644928178029,78.9445185784523 81.07019658171502,78.91314857470765 80.9769293541224,78.88442456224934 80.8798669368978,78.85362996099497 80.78202709147074,78.82080983364679 80.68538260883243,78.78691978638996 80.61620076192504,78.76387804447853 80.54462445008993,78.75457210165555 80.44974684412206,78.7360850802802 80.3523150205401,78.71755795943875 80.25292823694735,78.69577570303758 80.15615968285317,78.67366541528793 80.0612921652386,78.65062174479355 79.96499080267495,78.6268547933726 79.86943073845842,78.60087170161931 79.77668082696677,78.57534978745535 79.72981120785492,78.55740852057234 79.67339710596161,78.55713371109945 79.56754202909366,78.54987438140304 79.46473853616864,78.54081842846789 79.36485829355466,78.52934153514495 79.26985656350988,78.51795599912684 79.17512749533036,78.50713237301369 79.0808082157648,78.49682235444146 78.98763761084462,78.48776460805634 78.86365586404717,78.48092547103366 78.74319913670834,78.45351622796997 78.64822292941358,78.43099388084443 78.5826329894722,78.40873679861913 78.51378746410725,78.40879271384115 78.41346305430447,78.41074425895852 78.31392719657494,78.41472446991968 78.21523832256959,78.41860266324133 78.11610112721131,78.42595036456486 78.01384581321292,78.43331350366977 77.91233639093429,78.44100248293906 77.81355085952605,78.44855323512424 77.71458060943932,78.45980523173125 77.612539411773,78.47114795103025 77.51253329581591,78.4822241326602 77.41451017172673,78.4951294186252 77.31573796295368,78.51034869478596 77.21731054145941,78.52624605275136 77.11857585023117,78.54462301474159 77.01875870440139,78.56292761574464 76.92035360362267,78.58205056717794 76.82329031051131,78.60214894439586 76.72682208161466,78.62429632564275 76.62820908822796,78.64790341037917 76.52819613160031,78.67103516031773 76.42953821258752,78.69360086833932 76.36066291230092,78.71081829416612 76.29804857756488,78.74989398282743 76.20514655590465,78.79755683221273 76.11694035786908,78.84167441437945 76.03189811134709,78.88737026092888 75.94084351335603,78.93529332050507 75.84835146833971,78.98106635798486 75.75731188722534,79.02549423575617 75.67183120927137,79.06626920100832 75.58682553563641,79.11051772160384 75.49662432827493,79.15448768471065 75.44118219190418,79.18138754197533 75.39181076667018,79.22550657785096 75.30960254690544,79.28814079763865 75.22964625039273,79.34727739074447 75.14997043940119,79.40602133593752 75.06727754988226,79.46549249390719 74.982680457932,79.52406528536922 74.89780886265467,79.58075826933955 74.84622360518873,79.60979529691393 74.80854951015134,79.65320557011101 74.74219331880953,79.72605208059956 74.67579277483343,79.79903426601632 74.61157595608039,79.86961237083922 74.54792631709508,79.94335475525823 74.47915475353741,80.02208274539922 74.41101129661219,80.09678022900557 74.34585608534051,80.17051072615526 74.27832435280278,80.24720964835889 74.21073541359428,80.32279264026108 74.14587538274696,80.39631333471453 74.08263654056664,80.47070817836227 74.01928599878615,80.54716580737166 73.95450988740285,80.62654878508867 73.88879687713488,80.70539172949526 73.82434268478436,80.78369168034729 73.75957400870516,80.86214773284284 73.69711476099863,80.93846381594727 73.63642769307457,81.01591583131206 73.57335680630413,81.09691467579822 73.50763781720464,81.17925314739385 73.44151444413316,81.25955034954596 73.37856914119307,81.33585119789024 73.31900108242596,81.41096480778901 73.2581518082776,81.48982399685381 73.19375257607923,81.57120408243186 73.130513004856,81.6490391673926 73.06741344783532,81.72817659429909 73.0009511522336,81.8076090153199 72.9372195042859,81.88286920315639 72.87413766703166,81.95815278313961 72.80867173030074,82.03489133181401 72.76321185006739,82.085220300721 72.72990147328747,82.14534207145388 72.67552582953716,82.23340126380681 72.6217785998126,82.31629010528877 72.56406639448359,82.40676624866262 72.49990403669024,82.49339605513096 72.44379690272248,82.56870251475327 72.385698566852,82.64893304824345 72.32220539059045,82.73256037110048 72.25842892916603,82.81210211366755 72.19604883158819,82.8886440034846 72.13216732406472,82.96715580202644 72.06714181441696,83.04387048839332 71.99199220165151,83.13570909134162 71.9008233921937,83.22034434058745 71.81975940221866,83.28740524515224 71.74323540734333,83.34901430331735 71.66719230095731,83.41387735565843 71.58775049952308,83.47976092749352 71.50867665753549,83.54530762064239 71.42879380901726,83.60998194398742 71.35004652121552,83.67381131427412 71.27055554809805,83.73903209643053 71.19118575015301,83.80220794680761 71.11525784270538,83.86537756729301 71.03891617188062,83.93175274877875 70.96285708294867,83.99695920745555 70.89011569478086,84.06390363623942 70.81683541655867,84.1330376104069 70.74490806384105,84.20228082128878 70.67531024033252,84.27283734045932 70.60707108837195,84.34500390864794 70.54123988081537,84.41801485508152 70.47838583366698,84.49284764782874 70.41667730305818,84.57074884790542 70.3564379849709,84.64905035093642 70.29824270615708,84.7301878779175 70.23801192645892,84.81381963434718 70.17839466336697,84.89680467398364 70.11885536631203,84.98113321069727 70.04104610773766,85.08095104323817 69.9486124724924,85.16675129244877 69.87165167204896,85.23994643453197 69.79884246235005,85.30784106851189 69.73056363346792,85.3771207111667 69.65627506357058,85.4495953697969 69.5812319368042,85.52154968080521 69.47697595644281,85.60969090227452 69.35513849352134,85.68196281465003 69.26311387800963,85.73556145031989 69.1736009044122,85.78781592320892 69.0830640735973,85.83780336769264 68.99713741093831,85.88553269082472 68.90794823315643,85.93419204669742 68.82548946201007,85.9779778206673 68.74387490871304,86.02452582469779 68.65584506943185,86.07120301144948 68.56781323225758,86.11842396947328 68.4713101403075,86.16660263711627 68.37722316839444,86.21093562513911 68.28316903153326,86.25440309376702 68.1927874705933,86.29398585077898 68.10714804260088,86.33299851364472 67.949342560479,86.39604341413688 67.78356122783822,86.42452724257497 67.64422981831206,86.44422310451957 67.50220882826386,86.44477028590056 67.4108255002744,86.44500954670966 67.31717816795808,86.44773257058183 67.22008312412291,86.45014244779442 67.12043339723141,86.45412722236864 67.01766228866305,86.4571144518881 66.91494987809781,86.46070054726559 66.81517996775706,86.46342166577533 66.71884094358738,86.46790718229924 66.62037015729558,86.47283986712618 66.51738933201726,86.47889195154536 66.40590406315134,86.48376197958589 66.29935000016737,86.48670679020805 66.20020991912995,86.49037121745594 66.10921897632969,86.49476830802 66.01686588975612,86.50220493763265 65.9128797110705,86.50959546644224 65.809432405437,86.51610214873908 65.70151617965621,86.52246940761383 65.66005506285734,86.52488720675052 65.64492830500156,86.53793687039074 65.56872618656327,86.56266937392171 65.49251146583926,86.58740600027353 65.42174809072706,86.61445761858593 65.3382295737714,86.64665651757753 65.25670181036907,86.67790138424657 65.17028237271215,86.71283290181474 65.14217041827118,86.72038295631428 65.12776421471315,86.7349528735705 65.0554333411835,86.7814922852751 64.98117524430928,86.83032915861905 64.89397460667382,86.88740909341836 64.80600363097183,86.9406481625868 64.70042538118211,87.00522506175558 64.58640741728213,87.06216615819223 64.49669839354965,87.10308012425786 64.40801871632719,87.14219852251703 64.31470254798049,87.18344899204021 64.21921526314581,87.2231036774233 64.13229345521931,87.25696901087174 64.04232496346943,87.29401561773645 63.944071911045704,87.33400305834712 63.84540970910868,87.37246682798855 63.75016974448373,87.40733935565783 63.6541095063852,87.44335741477147 63.55505397255837,87.47934958544612 63.46010567684054,87.51281779247111 63.368873130093355,87.54504857622943 63.28024811858302,87.57792081931018 63.19196673516271,87.61305211923093 63.13467388251396,87.62840532777177 63.08299186667667,87.66056886831528 62.99890703304507,87.72271807270076 62.91387908687046,87.78468760134855 62.83128423578561,87.8454797388977 62.75316263839689,87.90319911657089 62.67703637887068,87.96461617640442 62.59752611792231,88.02974327112183 62.519722192599,88.094830916189 62.44145469098098,88.16189857194382 62.36522373231012,88.22715349947828 62.294809461559545,88.29086075926129 62.22259728220548,88.36084522880306 62.14592913992302,88.43367139473027 62.07264702579571,88.50324096483209 62.0017694003424,88.57319974675913 61.93272409577839,88.64235079040621 61.867818069183734,88.71142266802869 61.80255358039555,88.78372829682425 61.73696637238609,88.8575646135606 61.6929131259276,88.90998355363084 61.659207583614624,88.97335400292224 61.605538427620424,89.06047086657983 61.55393302512444,89.14469691659312 61.5009010950648,89.23197379753773 61.44679073919634,89.31722456298314 61.39702557600405,89.39810218571894 61.346403070278356,89.48131234183649 61.292873987517986,89.56765176385498 61.23706023711098,89.65452257255863 61.18065625287421,89.7396188812258 61.12068829204374,89.82762098837142 61.05668157400819,89.9147666314772 60.994029399886394,89.99698398687366 60.93278831038553,90.07514950373935 60.87390881889555,90.15031952025198 60.81318235212801,90.22847404140875 60.748513214007154,90.30929061640417 60.682708514220394,90.38906097837464 60.61606136625102,90.46784655161544 60.54803127890631,90.54636130157809 60.478861199969494,90.62407629577532 60.410638330176575,90.69900188321768 60.344197591441976,90.7720695669958 60.2794303300241,90.84376542575548 60.246748153065006,90.87293947320923 60.230400050904684,90.91042249614569 60.18939043824899,91.00086845998777 60.14591267541744,91.0929542743863 60.10579931005819,91.18196915211877 60.0654493532536,91.27309213929865 60.02409780291705,91.36901482133567 59.9797038414591,91.46752684998049 59.9361706018738,91.56238958208021 59.892823789581875,91.65737216576088 59.84919994963893,91.75139173314307 59.80595949554976,91.8459994174105 59.76054852673998,91.94284017433164 59.71449534370565,92.03894077737588 59.66977626957264,92.1311170715466 59.629469276951745,92.217450454024 59.5916522088365,92.30416904373389 59.55509992958672,92.39066456055996 59.52175163968073,92.4760288356454 59.50669179635084,92.52164113578405 59.506122582857174,92.57017659030603 59.49269711023482,92.66644975601085 59.47825813805826,92.7641282423042 59.46613038934332,92.85446417885427 59.45447843992939,92.95212830220242 59.43836233557165,93.05911875501201 59.42191869786755,93.15809442250305 59.40391951560348,93.26541448956225 59.377237871649804,93.38378788186365 59.348397952077384,93.49149827001848 59.32097093393972,93.58802958122357 59.29444388750176,93.68014960049122 59.26761614335558,93.7724347358843 59.240043673770906,93.86535307353127 59.21158092004169,93.95964304457732 59.18216091829655,94.05361679384585 59.150514429292116,94.1542429070481 59.113149374031714,94.26155412324053 59.076536258083664,94.35548952811119 59.04424284253829,94.44091714775739 59.010420182288236,94.53359196875236 58.97417371553305,94.63127872000368 58.93604871956436,94.73105252367681 58.89719037925827,94.82767588186726 58.86030416556988,94.91907157262824 58.824514571425055,95.01024498152343 58.78783842727074,95.10694744192995 58.7494446687823,95.20565781278857 58.712554539087776,95.30024180571554 58.677725558580995,95.39245291440102 58.642636387505426,95.4905388083764 58.604597456350774,95.5937375705205 58.56787366301679,95.691372670351 58.53260833191795,95.78979000181604 58.49709365640686,95.88738614462274 58.46509341832508,95.9819366726928 58.445418091446314,96.0467836235034 58.43922643689167,96.11250650094641 58.424395904646914,96.21677044084318 58.40859607690246,96.32128540029453 58.39596344222698,96.4220152992836 58.384288819403,96.5223720267226 58.37558502215026,96.61996117566599 58.367587545285396,96.72200071074808 58.35904940619308,96.82760042359236 58.35135451816244,96.93151908184373 58.34417022939023,97.0365226746297 58.33893634756059,97.13393583496115 58.3389016882828,97.22268274227324 58.33789771505685,97.32368333314554 58.33360575377885,97.4329017176869 58.33001258712342,97.53710736049275 58.32805291484236,97.63482310623924 58.328246410092866,97.72725198990382 58.32873492673214,97.82212365360094 58.32627059536866,97.92887720366352 58.31970479583291,98.04254191271245 58.31045606879739,98.15750781268457 58.29890807509946,98.26956905398136 58.290545727777605,98.36398270520543 58.28227312057223,98.46184218779287 58.26900201746658,98.56852711081109 58.258981726469024,98.65913126676664 58.24809536615606,98.75628536353972 58.25798893819071,98.73469989858546 58.27794064916439,98.69853904576657 58.28916608892144,98.78902900327985 58.298690060185784,98.95904469077796 58.28777931347696,99.13285282830877 58.28351295157311,99.22722614432553 58.280491148614324,99.3150231852169 58.277580851807464,99.40673716004542 58.27328134184381,99.51150815728282 58.2668334136931,99.62077578672032 58.26214714185775,99.70807991956748 58.259926958955774,99.79672643185252 58.25663585485586,99.88878343761372 58.256489790465615,99.96777420767162 58.257131245345334,100.06085923194962 58.25634615082312,100.17358287726185 58.254388357098826,100.28014160501725 58.25380559936668,100.38214060945708 58.252409008234906,100.4867376964354 58.25115402109314,100.5964910380218 58.247197694748444,100.71704846445316 58.243274820211845,100.82306384167765 58.248085435981984,100.76822023731457 58.258545208408115,100.71218106109512 58.28341636511769,100.81111599335364 58.30725795748417,100.9076523942914 58.33094364463043,100.99771271158637 58.35665773325029,101.09926662786556 58.363014927691516,101.10834779707125 58.37717430691083,101.11261090712449 58.41557656368975,101.20939709429423 58.4521551155559,101.30209429333156 58.49182364801392,101.40784176951459 58.531278721980065,101.52397434615304 58.563407633666664,101.6250020761399 58.59036269608929,101.70957959629332 58.62161894710453,101.81005321327025 58.65291521574935,101.92347525279523 58.680171529435235,102.03159457772672 58.70364948006235,102.13540230856549 58.720380132950545,102.21962502508568 58.737001018572734,102.30137079260179 58.7585467593626,102.4059490420608 58.78099592148806,102.52604066871723 58.79782723721752,102.64023489963083 58.81072220771323,102.74625447314935 58.820599141455865,102.84885978499817 58.83002385564136,102.9538116542144 58.83737127341958,103.06006578844324 58.842702450732546,103.16139893798291 58.85023043530192,103.27803394351278 58.85206366692473,103.38427424483037 58.852850608467286,103.47979752712025 58.85435382432989,103.58361548534076 58.85723265979552,103.69397476321173 58.860104628815975,103.81512454291273 58.86070958087868,103.93548395867757 58.85808506235138,104.0466951752647 58.85388894299394,104.14536274059704 58.85284642706999,104.25533236250448 58.85088263188714,104.37177643111974 58.848097604642106,104.48120692256796 58.84436494598869,104.58343156954028 58.8432816331575,104.69065178892517 58.84181395131695,104.80468213770484 58.83925097699802,104.90275396972442 58.83871808431156,104.994577679117 58.84147894115185,105.097287167905 58.84469923092016,105.20347234858146 58.84883397243951,105.30701257515314 58.85416345949148,105.41702563164198 58.85842516551988,105.5216122063975 58.86345599420212,105.61412076120205 58.86990364860869,105.69931536394496 58.879887610511,105.78797335070655 58.89192510860915,105.88542837951034 58.90538938830721,105.9875240468744 58.918661010951325,106.0917882815758 58.93159892043552,106.19312795940093 58.94476166959484,106.29677518397523 58.95795905878045,106.41030505308962 58.96687894131878,106.50797588554377 58.977612378161766,106.59563499499684 58.98905513944087,106.6970212183843 58.999370881143605,106.7956844367022 59.00957548526923,106.89528639847498 59.01857036079612,106.99576915028864 59.0267244585925,107.09382592879858 59.03361343174576,107.18809519573405 59.039436234087034,107.2721156176196 59.04567282700346,107.35025108154827 59.05582883487836,107.44439275373128 59.065012134792156,107.5476828049607 59.073134547243214,107.64766311240227 59.0803247635128,107.75134721307747 59.08521585530082,107.84895522726347 59.0912823650934,107.9522283741733 59.09497595820324,108.05774173118203 59.08351954693393,108.08703561912348 59.084211096482015,108.11690029256803 59.10392630273386,108.21016539996282 59.12758647400514,108.31136730779023 59.14915334807031,108.41373965692348 59.17187935020659,108.51621197247074 59.195209531503544,108.62770423287324 59.21444508980761,108.73178211408421 59.232245637354524,108.83014391164447 59.25191094540377,108.93224094672618 59.27188751103278,109.03792478807259 59.29148582483892,109.14407942494141 59.31037415269729,109.2510404909248 59.328065205676126,109.35626000941336 59.34497227228855,109.45917717760393 59.361591384009856,109.56006551342769 59.37785379830061,109.65718336193034 59.3736560451636,109.68785873800196 59.38869503756578,109.71849649895073 59.43209430113378,109.8091720953516 59.47486747654671,109.89541345735617 59.51794700699523,109.98047207907707 59.563663255184046,110.06648769505301 59.610419611240395,110.15457116706824 59.66037349466246,110.24676888018416 59.71043258119696,110.34436051098648 59.75668685959421,110.43851709509035 59.80048029780533,110.5299202717723 59.843061116942195,110.61982269579306 59.88276305256875,110.70510984893089 59.92200134827443,110.78634012149384 59.96572082637055,110.87318771674455 60.012039244321144,110.96742837982858 60.05666924412843,111.06371929795496 60.09969808980493,111.16176282418652 60.138749548119065,111.25894723776037 60.175045278757565,111.35342019552547 60.21176937173705,111.45168515719455 60.26208762770966,111.58879407441843 60.284267911662624,111.73127283956784 60.291889578657084,111.8344584773899 60.29811567694813,111.93627988308147 60.30227356005169,112.03471561223559 60.307904126970094,112.13281108464469 60.31410227526093,112.23607595877617 60.318132694590155,112.33755200879119 60.32290278748027,112.43719454003654 60.32926901645716,112.54234483388196 60.335556375760284,112.66788703826265 60.31523266010706,112.76675400674581 60.31758414634254,112.84753669726983 60.325103589440836,112.9493159099996 60.33287668237239,113.05029495945617 60.34286503594874,113.15034077877512 60.35508950259455,113.25034539820282 60.37222659573282,113.34877338060943 60.406094023461584,113.44197002319403 60.44068455197132,113.53583175564495 60.47498324262774,113.63062809375856 60.506912575908984,113.72676252132202 60.536261069253314,113.82323800777964 60.56456466485571,113.9191220185599 60.593480316766936,114.01385151571586 60.62520465478241,114.10790622151562 60.65716267124587,114.20247914426932 60.68959327623608,114.29649023409516 60.72366026231439,114.39040664229712 60.75672146765563,114.48506096320642 60.789780128655046,114.57926923968442 60.82332915402516,114.67338613178119 60.85854345224332,114.77396794144562 60.86736009891484,114.8799448110279 60.87598689089649,114.97960140691147 60.883797989753425,115.07978676170215 60.890469893395775,115.17955486881279 60.89826360243259,115.27903864071574 60.905795547900674,115.37896828237872 60.912790631868724,115.47925616419491 60.9181896803396,115.57918711325374 60.924813168859,115.67850570362911 60.93205446551494,115.77835224175811 60.94227518383218,115.87815782251695 60.95466733888352,115.97707138036391 60.96786752187012,116.07568644384085 60.98063578791353,116.1745744269325 60.993168348963664,116.27405553410242 61.002077002247916,116.364163716685 61.03395804383075,116.44798435168916 61.06843078565734,116.54090796963654 61.1034365616727,116.63481538159708 61.13606940535258,116.7302466523595 61.16658745236626,116.82390664297439 61.20052370282908,116.91608299144123 61.23458091898208,117.00962492569532 61.26561486357938,117.09609424007017 61.31833241262339,117.17133566700606 61.3771403461856,117.25210130033963 61.43958970944246,117.33047073230281 61.5016066441661,117.40863870963234 61.564178516156076,117.48577032577231 61.62829660594084,117.56221934971273 61.69219057334309,117.63956276707742 61.75540775549469,117.7169409050938 61.81913078833703,117.79356956923851 61.88331587834176,117.87000107309767 61.94751870487655,117.94601071410327 62.01285971330416,118.02070710080366 62.07942105518177,118.09482513733008 62.14639759346697,118.16907641023985 62.21314542884339,118.24337740019016 62.28056614749113,118.31740134111082 62.34763961876757,118.3928268331352 62.41248469206849,118.46959599767112 62.477374989670786,118.5455113672997 62.54205307560769,118.62128454824598 62.60821116942195,118.69636463530799 62.67311434188738,118.7728259824004 62.733932146540596,118.84408137129844 62.81088150549296,118.8978097171179" stroke="none" stroke-width="0.3" /></g></svg>