<?xml version="1.0" encoding="utf-8" ?>
<svg baseProfile="full" height="180.0mm" version="1.1" viewBox="0 0 180.0 180.0" width="180.0mm" xmlns="http://www.w3.org/2000/svg" xmlns:ev="http://www.w3.org/2001/xml-events" xmlns:xlink="http://www.w3.org/1999/xlink"><defs /><g id="crack_content"><polygon fill="#000000" fill-opacity="1.0" points="160.33625514820122,128.85447994156786 160.24018387966794,128.8261966480461 160.14445582603233,128.797397360274 160.04853290999156,128.76929861840304 159.95220232262395,128.7405110428989 159.85637837224996,128.7101803368502 159.76091897773566,128.67952153050254 159.6658647792344,128.64833353949788 159.57086850772043,128.61765618165566 159.47550459509242,128.58709620071826 159.37985537577222,128.55560948918065 159.28492267047366,128.52223856592587 159.19106179459033,128.488708392586 159.09715538722995,128.45708161962096 159.0021952802406,128.427015680726 158.90615305347455,128.39633953784397 158.8118479485778,128.36302895182524 158.71187630451686,128.33068602484602 158.62082538074444,128.27613326969595 158.53503311452246,128.22282696470546 158.45112943403487,128.16748191435548 158.3674490681999,128.11308023023497 158.28367320972728,128.05872551089263 158.19990708603333,128.00491237781506 158.1154035318048,127.95216658344296 158.03085637007027,127.89967644096072 157.945099431675,127.84842773687801 157.85992695966118,127.79600658303042 157.7739756850871,127.7445851289329 157.68909887840326,127.6916000917084 157.6036270220021,127.64020172744694 157.51808522618992,127.588049345337 157.4329490693262,127.53598325322065 157.34746910987354,127.48482543929369 157.26122553000607,127.43387122965595 157.17529897201428,127.38164326515268 157.0900800412509,127.32871345593061 157.004926649758,127.27545549414866 156.92023609062701,127.22078008336712 156.83677763436802,127.16476337925538 156.75399728128696,127.10887462904608 156.6662495420942,127.05018415962823 156.59347905722643,126.97314904688922 156.5253216437648,126.89925994068514 156.45853097065603,126.82505256578014 156.39043362981258,126.75218206632405 156.3224370523111,126.67821958840487 156.25553668998037,126.60388080170932 156.18852010419394,126.5309228758466 156.11927867065177,126.45954189193719 156.05004418579503,126.38744592184851 155.98033215814246,126.3158250765117 155.91063782473236,126.24355939211402 155.8420646558671,126.17083026559789 155.7733291773183,126.0997849409913 155.70218975661115,126.03095900991595 155.6299073198334,125.96209042800459 155.55746877755124,125.89290135484374 155.48553207499043,125.82341016655657 155.4130717779146,125.75409001425174 155.34166999407515,125.6835632140497 155.27056434191562,125.6135488699364 155.19907485362734,125.54411052949538 155.12712943187842,125.47516266815049 155.05516223281762,125.40718808575566 154.9809954256565,125.34163565741429 154.9059841938707,125.27635109411841 154.82997740257315,125.21212803118648 154.75351532669868,125.14818755548285 154.67631683132672,125.08466473333641 154.59940509490164,125.02048587472282 154.52257561776793,124.95637727551696 154.4455910987234,124.89180327904708 154.36911558022445,124.8254466305506 154.29930549168068,124.76029529300165 154.2176952246856,124.71239863463927 154.13168702687557,124.66170041055894 154.04565147537159,124.6116020418896 153.95886364432937,124.56248813108607 153.87152240519083,124.51292483145035 153.78504381423764,124.4620304873794 153.69884054356464,124.41153733479908 153.61242556413447,124.36113007530459 153.52610605104312,124.31037302450589 153.44030370199428,124.2596910799835 153.3535403556741,124.21028220095117 153.26190161674305,124.15649658789548 153.18838297628798,124.08570644443643 153.1096557557742,124.03085579740616 153.02756857490365,123.97392485560893 152.94582094308743,123.91726739565978 152.86329609333418,123.86262387412638 152.77944520581522,123.8094606809376 152.69467085047407,123.7567565786665 152.6096541980275,123.70369688347239 152.5250546804842,123.65008430438705 152.44017400857797,123.59636451253141 152.3562153629284,123.54100912378387 152.27321218650275,123.48581342723764 152.1891440000892,123.43191576554786 152.10562051521808,123.37703814012868 152.02163931953507,123.32348697745813 151.9376600578733,123.27020181291131 151.85311317545907,123.21883251267411 151.7672582346115,123.16938710602511 151.6795678797871,123.12044897682004 151.59301714663502,123.06864270920092 151.50708206862302,123.01668340781792 151.42165587066162,122.96356430151313 151.33677591603666,122.9094455663677 151.25284493041485,122.854108796666 151.16926463346172,122.7982845348352 151.0874997225337,122.74194209399035 151.00399473056453,122.68951386655523 150.91940972471937,122.63797401531379 150.8332414248531,122.58832524672926 150.74651322313062,122.53807211612975 150.66024633448268,122.48727410510656 150.57394452314935,122.43675052561947 150.48822752678362,122.38625745500755 150.40158713566998,122.337914537065 150.31396737172687,122.2899451867613 150.22654646501354,122.24165986586993 150.1384903329526,122.1940470071138 150.0458750611899,122.14198695261159 149.9680571387023,122.0705513840115 149.8942841748414,122.00390147809036 149.8198026911271,121.93819960889016 149.74452599370136,121.87382562342684 149.6667643017667,121.81031755555519 149.5907981896319,121.74323309463313 149.5166353635595,121.67570026984276 149.44263229534903,121.60872190909805 149.36801109031046,121.54178456148036 149.2940323956344,121.47350142709807 149.22114377267263,121.40448113345813 149.14854952370942,121.33539125303633 149.0767045490406,121.26616656495187 149.00421108021214,121.19844071917534 148.93069039131473,121.1319658034819 148.85548591346958,121.0665270618235 148.7799647433214,120.99992826989731 148.70571071699362,120.93161490431496 148.63269100844568,120.86241013164471 148.5606296838998,120.79282411044021 148.48810664306347,120.72311241128206 148.41735638611442,120.65146761654957 148.34728155402522,120.58028848684292 148.2767938151342,120.50955935617586 148.2065688922259,120.43904427932502 148.1352886651377,120.37022411194121 148.0624761816403,120.3023017481703 147.98910690490038,120.23383555404743 147.9166043626773,120.1642623971905 147.84473034842847,120.0945418044883 147.77264193038846,120.02461547960752 147.7016340863389,119.95331890429578 147.63142285521428,119.88172639640989 147.56172567050507,119.81018552273359 147.49169631640768,119.73946613714232 147.4209028685073,119.669507423816 147.34940980695873,119.5999833550481 147.2776637087424,119.53063194595863 147.20611667664238,119.46222979689072 147.13260756345193,119.3967421023633 147.05674027570927,119.33273988221174 146.98014698902713,119.26847470333279 146.9035134527887,119.20391044931002 146.82767673963954,119.13920526602456 146.75073155503657,119.0759994471963 146.67344349449223,119.01228718209197 146.59639388577978,118.94814500418931 146.523145936858,118.88900388238528 146.42823533925886,118.8698926968641 146.32759059829598,118.84976303529508 146.22598506796228,118.82918415088677 146.12489602274565,118.80817094741344 146.03972843012667,118.79426765489681 145.95311395697527,118.7976282622391 145.84970853702765,118.79531568112475 145.74652800706775,118.79153332111805 145.61887920321675,118.77904495657857 145.4934425294177,118.74263763273512 145.39333221013317,118.71461550898971 145.2953377364357,118.68610266639521 145.19793565039427,118.65621959575812 145.10414515787264,118.6263750431527 145.0115372613047,118.59724114598089 144.91526083801162,118.56506765184146 144.81892271907773,118.53023276118273 144.76802537108335,118.51320838839375 144.71834464675192,118.51263348640839 144.62242713364586,118.49878587968954 144.5221496562899,118.48202238501985 144.42064539326512,118.46355337693235 144.3235396664558,118.44372070538226 144.2290973441098,118.42519507762486 144.1351730149337,118.4059940522087 144.03794610014444,118.3872637986883 143.93561348856355,118.36563210990525 143.8347832751333,118.3433741370015 143.73559354687376,118.32066704924614 143.63512027203032,118.29778811599341 143.5352681813842,118.27404107927555 143.44358502225262,118.25296354238134 143.35306468430872,118.23523020041114 143.25954913363827,118.21860022821008 143.16265997583372,118.20349280451217 143.05954989328586,118.18788935439616 142.9646725795062,118.17375350911142 142.87477689317316,118.16501355119489 142.7760858819617,118.15694266543103 142.64669250257563,118.14358639279172 142.52502191061373,118.12039538371234 142.42733336251243,118.10707876117222 142.32444296091833,118.09238528662357 142.22610496564045,118.08037908603666 142.12896356244823,118.07058188860707 142.03154832780126,118.0624591316938 141.93750610496355,118.05680464032558 141.8306007598556,118.0505288074141 141.74772605068677,118.0473314803573 141.68342085694312,118.05701031162461 141.5901547288326,118.06327077573017 141.48763945699886,118.06837297570578 141.390764158023,118.07395974616412 141.30186988177937,118.08219424160248 141.20542204227914,118.09068812057598 141.1038698684071,118.09765439081114 140.99009884441185,118.10269300761541 140.87892395795726,118.10375738492128 140.79073347150023,118.10827326927962 140.6965516194853,118.11302984349611 140.5883801922956,118.11435092380627 140.48697816023372,118.11432019393126 140.39123055750812,118.11490773261092 140.30323483662488,118.1153788859482 140.22692633395448,118.11830700616234 140.14114159088257,118.1214328965534 140.03939942149148,118.12269747719563 139.93328946940045,118.12178873835211 139.83498070303685,118.12017992865559 139.74983161256563,118.11949924449614 139.64468848856947,118.11897557855957 139.51930431880155,118.1127785001654 139.41535396327373,118.10596401391464 139.31968077528998,118.1006845751942 139.2234333156608,118.09495315418314 139.1123472750968,118.08862311291263 138.99036146664258,118.07772561185465 138.8782104982643,118.0665740470507 138.77138878119797,118.0551329701747 138.67231565271248,118.04489666748648 138.5843681685439,118.03703498432739 138.49705924780585,118.03158196048965 138.39840368634103,118.02573693501793 138.2837631169283,118.01814564131372 138.18283869401085,118.01026613342789 138.0878815443021,118.00610641612948 137.97868827430779,117.99915843117792 137.89929336462507,117.99617343632919 137.82543189413113,117.99798581881865 137.71604021570155,117.99698995726864 137.5608286775906,117.98760190298641 137.41862932309675,117.97009410470643 137.3120719445342,117.95843271202925 137.19661758512646,117.94335259072322 137.10110858239523,117.93023027569372 137.0221661471927,117.9222492270337 136.92803891643914,117.9116546346653 136.81320406380686,117.89574516455434 136.69902631683905,117.87617521186132 136.598069795261,117.8577698792992 136.50775977101253,117.84014720465817 136.41452506830456,117.82188979816044 136.3018637298303,117.7972271937331 136.1884054959207,117.76841748912103 136.10743844572673,117.74433930920763 136.0302324469849,117.72276270862639 135.92586875014752,117.69346088749526 135.83330713001246,117.66357366280586 135.74852931872502,117.63536943461759 135.6633051805562,117.60549135339069 135.5698185408848,117.5741822552064 135.4817626405566,117.54107294921714 135.3995400450865,117.51027404874907 135.30824140992482,117.47660275872398 135.21389058207433,117.44238505172288 135.11840751768926,117.4064904727717 135.02762383940467,117.3714050725375 134.9404449372691,117.33671756877156 134.85467340889946,117.30342728614607 134.7580690659965,117.26935412574628 134.66794499306,117.2355646621346 134.57372924003823,117.20382288676193 134.47125418536416,117.17005116227261 134.37102746968182,117.13757026339519 134.26849633365396,117.104642663004 134.16346680187746,117.07202231717855 134.06568769499464,117.03999061112357 133.97435238541848,117.0117170321681 133.8713795849042,116.98318495656844 133.75661763449813,116.95244855014785 133.65794943187674,116.92276710549507 133.5646154281802,116.8983083504744 133.46428525891375,116.87263370736578 133.3713563550571,116.85054500514696 133.27407197228158,116.82987451760262 133.17491053739724,116.80984104151982 133.07994672864046,116.79210402677849 132.98363823108684,116.7761756687962 132.89077058756504,116.76182585531726 132.8009997203224,116.75070645235832 132.70094230571416,116.7397086165542 132.59447763280514,116.72734297847929 132.48864871216406,116.71459002190909 132.37765126903452,116.70031923898065 132.27597480531057,116.68546890829526 132.20323974765068,116.67730188141746 132.12168158958391,116.67264089911313 132.0245881163536,116.66487169651218 131.92921614096505,116.65830720517815 131.82803483367476,116.6504042667765 131.72566313635522,116.64159324600925 131.62325542306414,116.63163222673926 131.52085743600256,116.62074257769908 131.41327304636113,116.6078898970012 131.3198749798548,116.5946125831032 131.23312218533604,116.58452331599894 131.13685562815118,116.57272459284016 131.040851780523,116.56093839374121 130.94927835352388,116.5492989277886 130.86329136564748,116.53936373192278 130.76957040468344,116.53006372817283 130.67002528202397,116.51984649650008 130.56800824609365,116.50954303007987 130.46878362945534,116.49857625163001 130.36009289261517,116.48790249809626 130.24776791195347,116.47361072099899 130.1434582668679,116.4602990116176 130.04324518162468,116.44669592473558 129.9459955175948,116.43500257156894 129.84161021435642,116.42281416808022 129.74558523345695,116.41142975485926 129.65656811610316,116.40350963913207 129.55997984042176,116.39667757715588 129.46089388379326,116.39042298771697 129.36507700810967,116.38578659296472 129.26275935593083,116.38228260152145 129.15228920807238,116.3775435085683 129.04360124240395,116.37238147600229 128.94299612355954,116.36807888102149 128.84182256413933,116.36517886786358 128.7417021466883,116.36206160660626 128.64795797767331,116.36116405498541 128.55172657476385,116.3609747767022 128.44107650037304,116.35977151294136 128.32851844120435,116.35537759550344 128.22312223092501,116.35157841409276 128.12525738452837,116.34740257057658 128.02042827614963,116.34343933764573 127.87897594436528,116.3299761804988 127.75520487539444,116.31064895084668 127.65429334578437,116.29617171342045 127.53502885604566,116.27464485374911 127.42833326331818,116.25140089384524 127.27179498854174,116.21294426505652 127.12681153760234,116.15749430937697 127.04824965783138,116.12750234578299 126.95982368412739,116.09309795524075 126.85802755289387,116.05200395725798 126.6510293389929,115.95670534423733 126.46944354363916,115.82354533569432 126.38748025462996,115.75074862702729 126.31197336968455,115.68054525738505 126.23873068851279,115.61013421071975 126.16455987831212,115.53738845981687 126.09715597960441,115.4676436932109 126.03138425344346,115.40002228411927 125.96060318961298,115.32748124820935 125.89852428537945,115.26077572618786 125.84474969964428,115.2024860939314 125.7812526325146,115.14034620305601 125.7059462101487,115.07019344674103 125.62586289724396,114.99623171837531 125.55467989292099,114.92701602375958 125.48432434776639,114.86158090311399 125.40702196226187,114.79137068973957 125.33915059626403,114.72835824568573 125.26073596095618,114.66269870052538 125.16604939734441,114.58297975120779 125.07458266546755,114.50151144117117 124.99762100498876,114.42881988234224 124.92287007757545,114.36129151899645 124.84145264688307,114.28830709817053 124.76054892253661,114.21554941070279 124.68864894509072,114.15045009749886 124.61396977774761,114.08782656289952 124.53293019645953,114.01963719390551 124.51685366146287,114.00148986255097 124.49880665755865,114.00080483228412 124.40952933669206,113.96311902625274 124.32001430917235,113.92519110283483 124.23138004544117,113.89053007094125 124.13262549454257,113.85147420028491 124.03311871552401,113.81070385182389 123.93220955173533,113.76861729368686 123.8387262936852,113.72791971701254 123.83163677796192,113.72516376324253 123.81252088045701,113.73341171941595 123.70433520141819,113.71616661132782 123.59709308123458,113.6969651508392 123.49312611848829,113.6766016984053 123.39584323468362,113.65645929511489 123.2978451231427,113.63604966198864 123.20403748294778,113.61487260511954 123.11471222702087,113.59561691852318 123.01279113191576,113.57302772278959 122.91204748062779,113.547749983301 122.8175269534772,113.52364205584465 122.71934721160908,113.49764740064533 122.62476673930225,113.47112108223368 122.53344825058899,113.44542763035548 122.44150561541629,113.41936515189238 122.34399015116202,113.39218607804418 122.24961197425188,113.36401187740243 122.15815839600646,113.33766509816881 122.06193566153841,113.30990823588759 121.96500657962497,113.28196926523336 121.87160805338405,113.25439915964301 121.77785199654369,113.22810449306778 121.68815494427777,113.20246234189203 121.604360863861,113.18070204971403 121.51044817973948,113.15943913151874 121.41265262396256,113.13750780150534 121.32402080065987,113.11813981064772 121.24192979892278,113.10268755141063 121.14974409526108,113.08955916781102 121.04277002967868,113.07492467528999 120.93475217434528,113.05870064838786 120.82906816827091,113.0422757195069 120.73357710670568,113.02661975106096 120.64397355705074,113.01474163287052 120.62248396922148,113.00710654316565 120.5994962619357,113.01571263205689 120.50311800508541,113.03078121052484 120.4082819053175,113.0463397292936 120.3140026615336,113.06262139957087 120.22052754043291,113.07932912318059 120.12681798927977,113.0968190860483 120.02817378951615,113.11535256215019 119.92872738864034,113.13271887152082 119.82762586109796,113.15000359437671 119.71702409188143,113.16666041518765 119.60513061684875,113.1793236503883 119.50428399438645,113.18762799667782 119.40550628594734,113.1955307823785 119.30038111184618,113.20207580894323 119.1985491299351,113.20566602016929 119.09991623892424,113.20782514688047 119.00451502287096,113.2081816742545 118.91345681486062,113.20809606471816 118.88051833732682,113.19431748393973 118.84178913665592,113.1986829121743 118.7440213941678,113.22289030780945 118.64973640441394,113.24522714624156 118.55361164338626,113.26821974563127 118.45328787430812,113.29240667986943 118.35492421395884,113.31360817043726 118.26048669811765,113.33415520159974 118.16482624080844,113.35609749458757 118.06831835836387,113.37951547295496 117.9690163256137,113.40517334662374 117.86986582919278,113.42994188602816 117.77009751725781,113.4568221663107 117.66757437828119,113.48347420020468 117.56708382500356,113.50865149733288 117.46927461835169,113.53341859508187 117.37183580252707,113.5612690552092 117.27324381781129,113.5900486435835 117.17640279283064,113.61928322011016 117.0805044238487,113.65118362255315 116.98478625682789,113.68414963253564 116.89045545475301,113.71909913876466 116.80033102134767,113.76248166745123 116.7132018375701,113.81030554079058 116.62786345101652,113.86005834456417 116.54354167691599,113.91184235451318 116.45959268600964,113.96561690663641 116.37520122994054,114.0188687791928 116.29171607460526,114.0733486545592 116.20827886653865,114.12745966904438 116.13142030869297,114.17955858976224 116.07053659810659,114.25122790292359 116.00325687039407,114.32621640255549 115.93579411567589,114.40031194559838 115.86856182002724,114.47400753740195 115.8021410188538,114.5484062386709 115.7354339126685,114.6231073955087 115.66835210250468,114.69734184866753 115.6021187059189,114.77118610064075 115.53853928311649,114.84736190739648 115.47913551669245,114.92827753597022 115.41880486993671,115.00872981623185 115.35796671818561,115.0886812728054 115.2965301411985,115.16802740810797 115.23453705251488,115.24714874790182 115.17149531655139,115.32536819893636 115.1085784603233,115.40258069042135 115.04635746249762,115.4797871013512 114.98440541041332,115.55717463199473 114.92211667328836,115.63574539348122 114.85878102122673,115.71251834792865 114.7973238923739,115.7901904674137 114.73463589649677,115.86804071989843 114.6727169145152,115.9455518372463 114.61144070097012,116.02352688702399 114.55078930475692,116.10176425307068 114.49162109172306,116.18027129122332 114.43401949689503,116.26026412771297 114.37636528065428,116.34216218663985 114.31814988235138,116.42402363413166 114.26103166112885,116.50576179891027 114.20458563757175,116.58841178418493 114.1484566019684,116.67134929246251 114.09299382154683,116.75539448684908 114.02760881957676,116.85091137172193 113.94569648826152,116.93098596659468 113.87621801572357,117.00193098453464 113.80844281427618,117.07352709919844 113.74346149598534,117.14636894102117 113.6792679543814,117.22222957088354 113.61397774448177,117.30006904713481 113.54796183062375,117.37891453134829 113.48181965974743,117.45713902242935 113.41598487810928,117.53585347355916 113.34932915438024,117.61436573077492 113.28377406131304,117.69201897945828 113.21895105070425,117.769353272532 113.15342164316937,117.84774643743042 113.08929749105852,117.92366567861917 113.0282684975158,117.99915965109018 112.96401537976597,118.07774654147428 112.89461734804648,118.15898668578645 112.82204162355991,118.23852006217389 112.75204039163584,118.31298324962282 112.68522142185942,118.38399675684038 112.61495257279397,118.45780859732089 112.54045091580542,118.53107927834945 112.46815010041425,118.60040343783416 112.39349797006426,118.67006725121732 112.32141937396968,118.73413056157045 112.24970767858285,118.79947743661877 112.16996558118845,118.8676028505168 112.08894287907846,118.93369184994006 112.00406475956703,118.99920080620464 111.91866071490155,119.06066836933334 111.8426105696511,119.11275768376106 111.7656322485732,119.1690145990522 111.68085723835749,119.22775370393856 111.59695665657604,119.28517634748039 111.55077122227259,119.30631323739642 111.51587078389393,119.34355162881386 111.41072674418437,119.45719409503192 111.2852617228968,119.5436004013874 111.19575406183483,119.59771185362875 111.10633609132947,119.65020793366331 111.01912157632367,119.70104259054568 110.93285183757855,119.7519820507137 110.84756385786432,119.80306908181103 110.7620473818675,119.8560284759414 110.67155721257474,119.9127372239559 110.58215473720121,119.96587705969517 110.49836410699258,120.01783358637235 110.3930518393462,120.08462608800772 110.27990880650164,120.13685134804253 110.18555067928008,120.18082789350555 110.09092030278711,120.22345064456536 110.00158735630949,120.26550265719364 109.91291418945205,120.30935961902632 109.820881937714,120.35621088641673 109.72871798560747,120.40211772067768 109.64115117853912,120.44763440247432 109.55026300707458,120.49622603082129 109.45911814259776,120.54347179280808 109.37165605313359,120.59081336158366 109.28301873175542,120.63893047955844 109.16145724035783,120.69928618165139 109.03315675685094,120.73957153246013 108.93371553692464,120.77294202599204 108.88529425388255,120.78978611406704 108.8509184955331,120.82232745824948 108.76503151899131,120.87496686905699 108.68080077001692,120.92616825274172 108.60233239259416,120.97450519197147 108.5194710605943,121.0271579064539 108.43789229783341,121.07595837204057 108.36324241130795,121.12425922236407 108.28076676162644,121.17635770572869 108.24492634860191,121.19716023381329 108.22032995233694,121.22842090416492 108.15372667920441,121.29426420279063 108.09595814699648,121.35139600020375 108.03810960698442,121.41524504624913 107.96778760057275,121.49025561278006 107.8977560653672,121.56283979888524 107.83216641019611,121.62965936174521 107.7687619499205,121.696508731571 107.69779648034122,121.7724040669237 107.62331878477637,121.84791517646242 107.55311058386118,121.91811540099522 107.48242219727541,121.98923495025888 107.40610337926879,122.06575753724812 107.32693891480925,122.14089439932177 107.25075392055982,122.2117130196234 107.174725036495,122.2817030434696 107.09805047061671,122.351898883192 107.01831527707752,122.4241831826754 106.94112925291837,122.4913951100004 106.86875585720084,122.55670490284781 106.79515786535633,122.62375792078642 106.72315981492925,122.69064129774064 106.64987420161142,122.76014554670357 106.57902023513492,122.82680984721902 106.51302639836629,122.89234416561101 106.43826121921153,122.96863504096304 106.32293002328237,123.07353177546393 106.19848969112516,123.15052339634707 106.11177500083805,123.20270510353755 106.02345131750253,123.25483319815059 105.93640952597762,123.3054182211816 105.84834086450144,123.35626538171195 105.7623857499314,123.40420178986575 105.67932181639134,123.45151036831255 105.59637545135175,123.49813181737218 105.51201924261636,123.54653529790643 105.42334124124079,123.59551777890846 105.33267360390455,123.64416455892498 105.23901627644075,123.69136417973044 105.14897391443752,123.73358348652806 105.06020669041783,123.77482645584686 104.96695063595811,123.81669458880047 104.87274956221661,123.85631620447461 104.77711561469853,123.89483584628607 104.68176932321323,123.92989240326986 104.58964248055968,123.9624490728967 104.49394316071378,123.99688043252826 104.39252781613254,124.0314180709398 104.2903155193866,124.06216703262616 104.18703752667345,124.09088029649382 104.08291792564818,124.1154894580538 103.9818902209102,124.13662209851844 103.8817789942987,124.15760392520734 103.78072316847256,124.1790469947372 103.67957270579095,124.20013237505492 103.57917321841688,124.2217988831408 103.48432234749009,124.25676552246752 103.39505746665336,124.30383902815437 103.30584038642502,124.34925604263397 103.21771892107861,124.39522083413823 103.13018198323243,124.44251179533457 103.04275654805643,124.49038730251613 102.95580672527075,124.53882612829152 102.86938194752953,124.58828024667865 102.783276690897,124.6381899525068 102.69799752043988,124.68916582732045 102.61314091689991,124.74133186044412 102.52795098295097,124.794079375523 102.44253474643467,124.84565907242282 102.35832503865029,124.89882587412016 102.27360880446497,124.95190431316756 102.18911621668494,125.005385005801 102.10409014213754,125.05867650838353 102.01836628310082,125.11128607190116 101.93198420070924,125.16267697009523 101.84520835168765,125.21350960658121 101.7579110314531,125.26279361062393 101.6713907733557,125.31233013728462 101.5852553200813,125.36233941168186 101.49878236333579,125.41369401804381 101.41016829945397,125.46247001456805 101.32206963431028,125.50945052388225 101.23500480220412,125.55808637046252 101.14698150777717,125.60626450073838 101.0590124929366,125.65381997533594 100.97132734333479,125.70181118087498 100.8837358753026,125.74934543343527 100.79682066878092,125.79847215028495 100.70891865263053,125.84691626865653 100.62141258325818,125.89469137784847 100.53519287815159,125.94357192808845 100.44956255414246,125.99435651853905 100.36344100016026,126.04521892388738 100.27733427380457,126.09619232625033 100.19098957179816,126.14689232083082 100.10443979253296,126.19752434709834 100.01393398294942,126.24917035232592 99.91616907840964,126.28624367828168 99.82126833013969,126.31955812907965 99.72710763296436,126.35263737735038 99.6334064912143,126.38636214759069 99.54018521831998,126.42085763448038 99.44724812628517,126.45685559477803 99.35339144369253,126.49302027200866 99.2586302189118,126.52720639192079 99.16383082818477,126.56055311332652 99.06877130885492,126.59273940259932 98.97407445934891,126.62452257055509 98.87942255651748,126.65704190046894 98.78406702900759,126.68869729726183 98.68841862890032,126.71955025378604 98.59217085216044,126.74937116220794 98.49610331194656,126.77715865144532 98.40169212092265,126.80638598029368 98.30756856728478,126.83845161062976 98.21257605954266,126.87022893215041 98.11753389032278,126.90189641701707 98.02225421432847,126.9330127890955 97.92718385654538,126.96371259982337 97.83207053804288,126.99517725284582 97.73633279818384,127.02532350684035 97.64142752248583,127.05515883172458 97.54718384779746,127.0869866460319 97.45255790801428,127.11894372377695 97.35862824030252,127.15117691670639 97.2657041044827,127.1854614367697 97.17242097417852,127.22150518997985 97.07780522885216,127.25639202270813 96.98293463077374,127.28942233167461 96.95005625090263,127.19498180998477 97.04406669620391,127.16225535920901 97.13710089352733,127.127950436478 97.23037565502085,127.0919098432043 97.32508907973363,127.05696903641851 97.42032880685807,127.02427965964138 97.51518858886764,126.99224329056031 97.61043261422759,126.96008351598982 97.70631983951642,126.9299336629783 97.80134896541979,126.90001326293597 97.89611480877173,126.86866148583496 97.9913673217773,126.83790232769124 98.08620609986902,126.80693026754639 98.18090838256985,126.77537558094369 98.27558476022061,126.74370438858244 98.370779788669,126.7112837841327 98.46742138406903,126.68136018061602 98.56347822512355,126.653575895343 98.65827001739139,126.62420319707174 98.75296389971197,126.59365733015315 98.8474225330726,126.56230015412906 98.94191831761236,126.52983369819609 99.03682687202478,126.49797889945795 99.13120362931413,126.46602552003306 99.22507177563361,126.43300537873758 99.31844408492783,126.3993256504161 99.41121047562667,126.36357490151829 99.50477294637838,126.3273377382233 99.5991210270543,126.29242330074163 99.69360216632964,126.25841750839702 99.78813591201366,126.22520643132533 99.88194750845855,126.19228153617071 99.97129309260518,126.15871730113001 100.05434500510012,126.11097660147745 100.14042477222716,126.06061833260524 100.22654636431895,126.01004948992554 100.31254414275213,125.95914041375869 100.39863207871556,125.90829789507346 100.48502661725833,125.85706559151136 100.57279090399595,125.80730755608654 100.66082494133923,125.7592407593382 100.7480841756649,125.71115231153824 100.83528202469749,125.66186844010822 100.92347250230426,125.61400506383328 101.01122932126492,125.56597483599974 101.0991977147224,125.518419699405 101.1866150303996,125.47057391429365 101.27415615836995,125.421676388607 101.36253139795687,125.37454546955499 101.44913395333093,125.32688943645972 101.53461586851842,125.27610922007003 101.62144204938294,125.22569801291098 101.70848707299957,125.1758610371501 101.79535317338785,125.12682361465231 101.88114679516134,125.0765633347222 101.96664782135778,125.02569868547693 102.05138227980227,124.97369485596344 102.13582072098163,124.92077064450376 102.22032023161745,124.86728559181186 102.30508589085056,124.81417604753112 102.38999309871706,124.76057455411825 102.47578123181664,124.70876632220417 102.56063385262925,124.65622599577148 102.64615771243018,124.60365188515009 102.73254724618027,124.55201267337402 102.81947461494597,124.50162427080626 102.90663976458694,124.45174794516213 102.99440702629006,124.40285260228265 103.08240099878557,124.3546654662975 103.17082854041769,124.30689591012765 103.26003298437178,124.26036463744127 103.34905123603227,124.21505036477869 103.43669646774765,124.16883500683865 103.51663576845434,124.10659878663775 103.59296894456338,124.0346406950814 103.66948639286186,123.96388864616694 103.74608476581237,123.89346776380584 103.82411382642542,123.82353183608143 103.90214835744054,123.75557622969443 103.97641129861664,123.68974387071339 104.048863130371,123.62296352855104 104.12144010577927,123.55650801328395 104.1926023109392,123.48996652761275 104.2681526267189,123.42108495340688 104.34869443094,123.35271819470077 104.42712507683278,123.28877184245715 104.50409880302728,123.22626380996337 104.58253415256226,123.16490688653984 104.661179103422,123.10454956097084 104.74421598869013,123.04340430815535 104.8274030325113,122.98566575904499 104.90603349991879,122.93129316052651 104.98629753173202,122.87610177568166 105.0685490120741,122.82124249109903 105.15452529618827,122.76482783446392 105.24384301776848,122.70983686075424 105.33345041979366,122.65622661105628 105.42180511391376,122.60610135190626 105.50714467445614,122.55730119166803 105.59363781966219,122.50845973063277 105.67841061247533,122.46039995200299 105.7640370547274,122.41109996609015 105.81213146338877,122.38693940849616 105.84327602998867,122.35565666219496 105.90899259912194,122.28959277507681 105.98505463350057,122.21434311187785 106.0592743919533,122.1433352861834 106.12982676603339,122.0738768301449 106.20225550919174,122.00240956093283 106.2736195913394,121.93167289455549 106.34596980943984,121.8589425642377 106.41535424752162,121.79007694161972 106.4788998356809,121.72282408620924 106.54402298204099,121.65197592994468 106.6088185644924,121.57995021652764 106.67238190967628,121.50769402553938 106.73157957640606,121.43841509674255 106.78928198571845,121.36648462506373 106.85190223843617,121.2885108924967 106.91562275668262,121.21017459564932 106.97499103645922,121.13707461917865 107.0342382019613,121.06116524556232 107.10229841853378,120.97729288921292 107.17178960012596,120.89662290146224 107.23713182876988,120.82198635512381 107.30139582858581,120.74905569370357 107.3772454133402,120.66416062580177 107.46208829581134,120.58107122509122 107.54001541446674,120.50867210674721 107.66157751401066,120.40341283678649 107.79967152155564,120.32548939391535 107.89145636203604,120.2794385952218 107.99177730710194,120.23086216187043 108.08889529445614,120.18984352315123 108.18304466234629,120.14939837447639 108.2841295899613,120.10964098556855 108.38013355774773,120.07415069217784 108.47453212251644,120.04020417113506 108.62030586849188,119.98587690135658 108.76837889598514,119.96543847439786 108.86427265779334,119.95586429525923 108.93165772586954,119.9548317939745 108.99502344599358,119.9390171183683 109.09136813774694,119.91109704269545 109.1887174737009,119.8819877315878 109.28301720910837,119.85433155519009 109.37593721300534,119.82409073672567 109.47264874281781,119.79188036688369 109.56504837913761,119.76073993106192 109.65594965171094,119.72674983723779 109.75032603574711,119.69002850225523 109.8445236915191,119.65260398980917 109.93361205914991,119.61618609905995 110.02078974547713,119.576229645058 110.08920327468952,119.54456679643576 110.14984137395412,119.49973279708632 110.23199450098487,119.44005299708945 110.30957837933728,119.38312213886655 110.38229148159716,119.32422512511067 110.45909276178597,119.26033869763467 110.53675045477426,119.19545716511442 110.61342025187139,119.13041943933834 110.68926855750192,119.06545031162746 110.76244278955701,119.00148276787097 110.83390968079816,118.93690473653938 110.86839652656055,118.9032468924284 110.88667923742294,118.85951770540723 110.97223846904355,118.73710188327654 111.08372969211577,118.63520190181313 111.15607939712636,118.56778125207333 111.22813993168161,118.50241309731545 111.30569867065495,118.43171215711621 111.38917035699687,118.36316654606458 111.46284322520142,118.303413088773 111.53460177024131,118.2445638715296 111.60861201578689,118.18430104017379 111.6829095914973,118.12486557013885 111.76340464652382,118.0604699882634 111.847133458369,117.99913771802815 111.92683493726773,117.94162070222745 112.00923110522689,117.88418192019411 112.08916033260617,117.83036561544769 112.17103334495842,117.77435891332216 112.25783201588855,117.71730360909933 112.34205700552643,117.66443152027837 112.42212260670617,117.61473399595384 112.50211330282973,117.56299666851444 112.58618121174652,117.50741622662814 112.67429232874395,117.4496539518607 112.7619663603065,117.3953529510229 112.8471164082737,117.34223299228115 112.9333069687539,117.28843795474211 113.01875568838248,117.2349506355171 113.10268306480349,117.18183945276415 113.1858012133853,117.12708846050546 113.26848405247934,117.07170488144355 113.34951861735247,117.01499168203647 113.43042493360116,116.95635194469764 113.51207808843989,116.8953595835925 113.59534527588842,116.83395396530499 113.67818446298676,116.77396244391205 113.76006371445109,116.7141755247255 113.83063519036025,116.66483339527582 113.885790072968,116.6007566204188 113.94902537595456,116.52383360367278 114.01206911639132,116.44615402241473 114.0741662370623,116.36772165931902 114.13617429002488,116.28880824209864 114.19740021585895,116.21025220273691 114.25762930526297,116.13058440434777 114.31907656564701,116.04986828006456 114.38202402031418,115.96998414516159 114.4454312724865,115.89134751157559 114.5092503933495,115.8132739877958 114.5738527425103,115.73589045460346 114.63862795371233,115.65962019955889 114.70384990984887,115.58252665933138 114.77091850887241,115.50765947628574 114.83677055048854,115.43267262375186 114.90454409637455,115.35783903486447 114.97339658238245,115.28398339948312 115.04319840825497,115.21157720422917 115.11285670526662,115.14016142796616 115.18228518004722,115.0685234474623 115.25213974054397,114.99699666532045 115.32192965453734,114.92550074344244 115.39163558988332,114.8539974798259 115.46106055966594,114.78193220525355 115.5267319061774,114.70548350994041 115.59403160084904,114.63043547353293 115.66104172709427,114.5562807337225 115.72754816703306,114.48180363769131 115.79432422323718,114.40700918501298 115.86188460986514,114.33295183165244 115.92906959627271,114.25916233214629 115.99535662950883,114.18528874671391 116.06464598672649,114.10511942046328 116.15282368862228,114.04424474705161 116.23718411619825,113.98952583241453 116.32119228751195,113.93470801554521 116.40594078064728,113.88122808598469 116.49040518869481,113.82712804864032 116.57651200825659,113.77425024863801 116.66395489666891,113.72327256536244 116.75214738901006,113.67485554363674 116.83720568365842,113.62174448812381 116.91862549640946,113.56123865721385 116.99936907638495,113.50007044468926 117.07942297573145,113.43688772944003 117.15980194411368,113.373423471279 117.23834166990906,113.30933564270099 117.3172146642036,113.2427713496776 117.39750194731586,113.17653492917758 117.47516114884564,113.11081302464777 117.54990441812014,113.04485501315924 117.62562535784551,112.97580030216284 117.70326200767849,112.90704716002011 117.78008622859936,112.83794458430306 117.86055350587579,112.7681971568498 117.9431503468566,112.69945132709631 118.02822117318925,112.63181244617529 118.11105642044699,112.5683560612558 118.19116811703682,112.50626992478716 118.27582305771747,112.4437131264569 118.36324806311315,112.38249472769377 118.44811099611742,112.32517889737956 118.59142337255973,112.24671399178564 118.75576162372498,112.2000432795195 118.86260042374131,112.17103062011473 118.96559280209385,112.14608928792036 119.06540293540225,112.12334126507507 119.162133937335,112.10299945910585 119.25531314902905,112.08355659282832 119.3546284202247,112.06390631301129 119.45218133438902,112.04695944415506 119.53827703877718,112.03133337338566 119.62477881309634,112.01407569691774 119.72033675287926,111.99495912980574 119.81768499461951,111.97666217183281 119.915579995715,111.95815050620661 120.01861930798636,111.9397255036536 120.12225591001098,111.92256630229863 120.22532213888499,111.90637083567276 120.32808313757229,111.89102002442486 120.42947122900601,111.87628136406725 120.60433648821758,111.85566069042476 120.78152263330642,111.87100283182927 120.89037762650908,111.88390790888963 120.99268547053313,111.8978423603069 121.0851678674002,111.90843736379549 121.17560092063451,111.91705758952156 121.26754832528577,111.92316553369633 121.37441438999723,111.92948948948104 121.49070038179065,111.93946494028235 121.59971760384862,111.95067234587387 121.69939349740542,111.96044317190764 121.803131667756,111.96974395320126 121.9163876506794,111.98220752021005 122.0227894581318,111.99587487446462 122.12525838705346,112.00825519932692 122.2275898698195,112.02179182766352 122.32651958460976,112.03434151904908 122.42610104890241,112.04733653706417 122.53048839355623,112.06156478608649 122.63126755651348,112.07713544452423 122.72937316699584,112.09157842154914 122.83272481043527,112.10864533841414 122.93644785704682,112.12721021341517 123.03647936328998,112.14679439060755 123.13309963038216,112.1661092985166 123.23339069738691,112.18726109689518 123.32712120363097,112.20867170769023 123.42049861291963,112.22919276806303 123.52621834836127,112.25418017518804 123.62658617783073,112.2809185331729 123.72313488035145,112.30689356495289 123.82003412369674,112.33463958923656 123.91051824156453,112.36106050650046 123.99824442758137,112.38643885733188 124.085653374119,112.41093991608099 124.26266678833115,112.4583451587462 124.43488898858905,112.54417424046123 124.51933496581606,112.59480676415747 124.59822114662683,112.64031948718397 124.67912665156067,112.685870676007 124.76211736345553,112.73029330229528 124.85548647376278,112.77854651428432 124.94638024971704,112.82694740198465 125.03834923381942,112.87381794955898 125.19982319580703,112.96129313030174 125.33600684132871,113.07282554844002 125.40775439221993,113.13369466324471 125.48777793912977,113.19782707605128 125.56760683173117,113.26302876051876 125.64015148390534,113.31854264333525 125.71403871901228,113.37157592277784 125.79641529362578,113.42778497538539 125.87497679119826,113.48084136806966 125.94271296845696,113.52042855655655 126.01169551355589,113.55565491098749 126.10059306398793,113.5995701462419 126.19698484373032,113.65065248275023 126.2842641738347,113.69407703028652 126.37929992506362,113.74109509581446 126.47111753076328,113.78777073449096 126.55580174657645,113.82717417485091 126.6459274089282,113.86941459157579 126.747715384002,113.91988400237564 126.8556925407794,113.97922248663113 126.95231496587482,114.03422928144417 127.04024920791679,114.08338233611312 127.13326978403428,114.13735453185788 127.22263767765584,114.19179754697731 127.30612638874504,114.24211062487855 127.39058739146836,114.29470180618462 127.4730363082997,114.3471767340732 127.54952389515216,114.39641821589862 127.52842847155766,114.38260157990969 127.50734039033344,114.36104184786858 127.5930280468247,114.3895885659962 127.69205444362072,114.42490941330887 127.80017973226118,114.4666663253195 127.84009684246662,114.48745141727763 127.87757308961402,114.49755779171838 127.96434731373144,114.52500337679173 128.04004166713517,114.54809769461 128.13476213364208,114.57519114511749 128.20611567329232,114.59975454214667 128.26234276717503,114.61666974354559 128.35593068781975,114.63781990531774 128.45604319616905,114.66201600230252 128.54891629926706,114.68447095147884 128.63465394519622,114.70613108055471 128.7229557909667,114.72537612880598 128.82559765492792,114.74638646665542 128.93057932437338,114.76802868273916 129.02894934398793,114.78943786422285 129.126489831363,114.80918134033342 129.2244253969144,114.82899506015474 129.31447578436058,114.84626218275119 129.40303300325598,114.86122352844869 129.4999888701671,114.87475081967922 129.60331074603894,114.88865512688092 129.70329884277106,114.90162347370483 129.805811081129,114.91373831937241 129.91569637530785,114.92674260773467 130.01815191313835,114.93996477259107 130.11247635661582,114.95045756307705 130.2140244528269,114.96066056858434 130.31239361476472,114.97082912667108 130.4069458268723,114.97882379552944 130.4935100458601,114.98558163274639 130.58430534518692,114.98923691876111 130.68442383168053,114.99446665949714 130.78188424460853,114.99861128627198 130.88178441772757,115.0032794162614 130.9875419025453,115.00841373509664 131.10075032862125,115.01640023168322 131.20802753650932,115.02617162757589 131.31082069104247,115.0362886686863 131.4132156823367,115.0475894943521 131.52508304544463,115.06095300926488 131.629484059073,115.07726494844763 131.72015544771264,115.09076841272909 131.81614923956343,115.10519085684605 131.91219342134812,115.12006620890566 132.00839616952211,115.1350919160375 132.10583654318825,115.1506288550683 132.20912597639958,115.16716511552077 132.31035964604567,115.18520956044355 132.42729246956577,115.20507061371296 132.55135706750076,115.2325391808071 132.6458709941079,115.25653895619283 132.7319268652317,115.2764733094541 132.82343765623386,115.29623247690814 132.91460602914182,115.31454548288912 133.0124892961344,115.332174322886 133.12040113741176,115.3514119084503 133.2246363747077,115.37098044359475 133.3254688104266,115.38874856062763 133.4273763465153,115.40624893481807 133.52502558890345,115.42179013106737 133.62472406736597,115.43572820284703 133.72854639549993,115.44954148818009 133.82473994033117,115.46099405607964 133.92847655152568,115.47064061950721 134.02593969186893,115.48010628594689 134.1084668683113,115.4821875642005 134.20329336807387,115.48324327003138 134.3097458154147,115.48463453919204 134.40933456196257,115.48494368087108 134.50220690643715,115.48121706059806 134.59769146474858,115.47639257027197 134.6957709382749,115.46988579932105 134.7915466875197,115.46250761088733 134.89597456272114,115.45401898511474 135.00394698983814,115.44775726508198 135.10564828293806,115.43966245585159 135.21799047394666,115.43377571668528 135.32849928196924,115.42941261320053 135.43531143981022,115.42524461172242 135.5372094776812,115.42160992229685 135.64045173446792,115.41832719393729 135.74644510606356,115.41745627082582 135.8615459060897,115.41926837447956 135.9698740651171,115.42401803349223 136.07324628463036,115.4280160105268 136.1842430204188,115.43683377692537 136.2956128907375,115.44769471225312 136.39845611360352,115.46043315273994 136.49001222003622,115.47132375236959 136.60879756734252,115.48958924352858 136.7222378726157,115.51247679729691 136.8036182858301,115.52881021604681 136.8866586907032,115.54538870339454 136.98938567412867,115.56711901460793 137.09441516357847,115.59242039369106 137.18885022884174,115.6167014499623 137.2701999333934,115.63919116562636 137.3518502838276,115.66061217871533 137.4543310084183,115.68669607998204 137.57150132934794,115.7179551495971 137.67110459047032,115.74877830639245 137.75148973602572,115.77428005660293 137.841228956444,115.8009285220377 137.8953513905719,115.821601285728 137.93883295349,115.83503978623303 138.02861381006008,115.85221811797513 138.15379623178313,115.87356326706588 138.27242093239585,115.89865377645926 138.36135277996016,115.91902680525888 138.464871281044,115.93951289982486 138.56178435815912,115.96096466502551 138.64566990284928,115.97760933672811 138.74560431160882,115.99547135084994 138.85675677376992,116.01477876920865 138.96674906097024,116.03555005499152 139.06550911203072,116.05467415200638 139.15659935162478,116.07205767245367 139.24268909233228,116.08737535888912 139.31927767546028,116.10031503483982 139.4074189524541,116.11154847667231 139.51023007150215,116.12519958013577 139.61365023687438,116.13894214576499 139.70858392663982,116.15322591839461 139.78244505133316,116.16438719922701 139.87701230270812,116.17462299280889 139.99127404394014,116.18928245856485 140.09224730875167,116.2046050413309 140.18548666277312,116.21981629480936 140.2832182995797,116.23557917331821 140.39682800182837,116.25425675735646 140.5194398355809,116.27793818471424 140.62974865590243,116.30439604499112 140.7322698349517,116.33124172856938 140.82886197789654,116.35946531984023 140.91898658488074,116.3868379419648 141.02322735854523,116.41666365295303 141.13286544715461,116.45057094570235 141.2192200524586,116.48297379593853 141.30392058133774,116.51269120322455 141.40074755893457,116.54506834244305 141.5027636988883,116.5783018426607 141.61186836181582,116.61475725387257 141.7124644832138,116.65204636076726 141.8075309045484,116.68815621342317 141.91177682683823,116.72586488807637 142.04417223201636,116.77172208834806 142.15379385769785,116.82279409949622 142.24115537167913,116.8640617988432 142.340465241958,116.90954406614668 142.4360666984369,116.95380982846068 142.53158944108554,116.99768317143653 142.6255549483503,117.0406257006787 142.71491167620954,117.08107786255722 142.81012544727983,117.12056933843213 142.88019758583394,117.15425297479575 142.94774222818057,117.17575951323097 143.04612804026894,117.2017580524411 143.15296842383754,117.22900307471981 143.25359038057036,117.25705769315738 143.3465536617162,117.28089072424649 143.44587397876913,117.30453690652476 143.54808168000443,117.32904582910035 143.65288060769407,117.35432858263377 143.75542336975286,117.38096154288388 143.8497188370052,117.40524289112805 143.94400619574458,117.42784247595168 144.03958392390217,117.45058467774841 144.1338571140721,117.47231149657577 144.22691889009548,117.4933533744677 144.32563967342688,117.51467932647425 144.426920720189,117.53900830455953 144.52766435130562,117.56409968691158 144.62500566745743,117.5910681636771 144.71850633701195,117.61701847874677 144.8132998611313,117.64438325600594 144.91268723583818,117.67361697698675 145.0573628392318,117.72021852965021 145.18553438781996,117.79226901457488 145.26835724429057,117.84632363337657 145.3519330526785,117.90163256466855 145.43876031693057,117.96083338921764 145.52289591997712,118.02232505350268 145.60352062503276,118.08358177467835 145.6836186392735,118.14608028159577 145.76166538483247,118.20894303143422 145.81546682114652,118.26126957870592 145.88078186949548,118.30136402261324 145.9704283191029,118.35066420164674 146.0602197334711,118.4000718603844 146.1666368333244,118.45576612633492 146.26132860566145,118.52933059266466 146.3396766361121,118.59664822115822 146.41798199449048,118.66343106820507 146.49731510552076,118.73052510061842 146.58080251903476,118.80182491902303 146.66057838301015,118.8714615619395 146.73723763846112,118.93527869427876 146.81427376943503,118.99878295291342 146.89187025737763,119.06252937489566 146.96818211577656,119.12763486981457 147.04450085332306,119.19193334098419 147.1211205851822,119.25622076203797 147.1981164771638,119.32118694221995 147.2739373504443,119.38874268097878 147.34696360557905,119.4585380883948 147.41901853126816,119.52818763442346 147.49090700238048,119.59809719177137 147.5623706469787,119.66871913015022 147.63306808212613,119.74011227317219 147.70293477908268,119.81182614787927 147.77276027840304,119.88302619626388 147.84288445241313,119.95343972460896 147.9143564028933,120.02276289017735 147.9860376773203,120.09229702483904 148.0578402866176,120.16120138689647 148.13069544749874,120.22918450146514 148.20412751240656,120.29768989169523 148.27672893512545,120.36778722086525 148.34763692414734,120.43898135744143 148.41832826451704,120.50991544563901 148.4885652070733,120.58125861557646 148.5583391013077,120.65192672586024 148.63001035073754,120.72080797982248 148.7018190617729,120.79015148342052 148.77396075847867,120.85852638375744 148.84689138024055,120.92562601373581 148.9213780590544,120.99130588694416 148.99704880248692,121.05715563527792 149.07188004367856,121.12481388043169 149.14553221612735,121.19362173575368 149.21771230894754,121.26316584796234 149.28999324878032,121.33195700202798 149.36232573389847,121.40045336108163 149.43531223988225,121.46782135937069 149.50957115767943,121.53443066661342 149.58385220036223,121.60166043698075 149.65756425179129,121.66878651684928 149.73150098764893,121.73409970002918 149.80865083309317,121.79709228664954 149.88537619915752,121.86270050263991 149.96088015103498,121.92930271164728 150.0355115614566,121.99672794023591 150.10457835620738,122.0610306486317 150.18662916334213,122.10639626262903 150.27450238505003,122.15390891297793 150.36215242158667,122.20231984242527 150.44996248413204,122.25039410710049 150.5379711364608,122.29950739278115 150.62458172768146,122.3505190144581 150.71087806567743,122.40103938010427 150.79695164851867,122.45172418480321 150.88327256999355,122.50174069547481 150.97039310349564,122.55194672261807 151.0566026967709,122.60447033716217 151.14246944690447,122.65840569831396 151.22540289329928,122.71552889585868 151.30813820968032,122.77078621108399 151.3911804796936,122.82554000365998 151.47493968610726,122.87894258437414 151.55935580246236,122.93143402805187 151.64456927520985,122.9829550319106 151.7296198742069,123.03387647625202 151.81657807684311,123.08239542158199 151.90403330853977,123.13276776932909 151.99041162554323,123.18524728325947 152.07530927203382,123.23910963334977 152.1599603254543,123.29309062662476 152.24358683765774,123.34803503213733 152.32788634250858,123.40208328532296 152.41142436167874,123.45763067059009 152.49443769865275,123.51236777485983 152.57855732467127,123.56560077306294 152.66289161819162,123.6190459703393 152.74754279569814,123.67187691438689 152.83261914059673,123.72476987470782 152.91767745891738,123.77870327428757 153.0019093682808,123.83447797266787 153.08454412340646,123.8917434290406 153.16680025703613,123.94879176158338 153.25198528158757,124.00853943878906 153.32225528064703,124.07676306136261 153.40344599523763,124.12362525004845 153.49047695013294,124.17318879578696 153.57687857304725,124.22422111791444 153.66296254806565,124.27483979047982 153.7493046916668,124.3252044340235 153.83567575948555,124.3757958880563 153.9215610410787,124.4263446090062 154.00816599699465,124.47548653327507 154.0954383040551,124.52487677631123 154.18223710533516,124.57541779604286 154.26852378442044,124.62627977773045 154.35909401365262,124.68013712036522 154.43589881820975,124.75101546017021 154.51049171042212,124.81572496018333 154.58674146497862,124.87967822694569 154.66347365892986,124.94370554453755 154.74012157215142,125.00766502523118 154.81736043818324,125.0712213178229 154.89432353340703,125.13558016742327 154.97108201971972,125.20044145658977 155.04693597641244,125.26645691197382 155.12261672441036,125.33336470487966 155.19605548169284,125.40271130752157 155.26850760762267,125.4721446162265 155.34048260017468,125.54205455434403 155.41188806798354,125.61236333977594 155.48277457164173,125.68238561726915 155.55483438570485,125.75131862939968 155.62674286593042,125.82078269790095 155.69893261660619,125.88973361488081 155.7714490841084,125.95882617720692 155.84403994342156,126.0290743508574 155.9143782119134,126.10175965236812 155.98300797019675,126.17454807387229 156.05215157950346,126.24624080590856 156.1219379559619,126.3179384703689 156.1912332959171,126.39009744001393 156.26123898262134,126.46227912361623 156.32952503815227,126.53660729775126 156.39641252552389,126.61093192710696 156.46377494940774,126.68420375478252 156.53222960500486,126.75746180239406 156.59923820170576,126.83190756535836 156.66668599413765,126.905026037648 156.7307997410192,126.97380830075423 156.80964253114593,127.02578668667093 156.89262109854755,127.08180852702581 156.9752228289319,127.13725488590796 157.05855951155175,127.19105456917852 157.1429738739433,127.24384742937637 157.22765088711327,127.29644187440424 157.31262998640267,127.3480948817355 157.39857941620096,127.39887349581873 157.4847128391759,127.45042326180555 157.57019934785038,127.50270229897006 157.65542299189443,127.5546612253271 157.74134612450527,127.60633447569141 157.82612498078973,127.65925957029003 157.91180497044851,127.71051581161765 157.996957545029,127.76292489435589 158.08287964406,127.81427398804871 158.16825103125782,127.86727169666193 158.25340822268717,127.92042789180285 158.3379121619293,127.97471279718793 158.42191623780195,128.0292152945613 158.50591564486578,128.08382504910944 158.58895777566792,128.13861217431594 158.67304764554032,128.19085235119957 158.75323111187242,128.2396377963702 158.84374365111182,128.26825203396095 158.93801986591387,128.30155290236746 159.032498947322,128.33171779113016 159.12820880388367,128.36202539776184 159.22384156429393,128.39423359860277 159.31832500558104,128.42798208599277 159.4120727099939,128.46094141971872 159.50639631520735,128.49198730718913 159.6014921978636,128.52246064813642 159.6968180245615,128.55324465158915 159.79179623840693,128.5844079417077 159.88675691272263,128.61490628855395 159.9816082461534,128.64493232318904 160.07690473697315,128.6734078501627 160.17291640762667,128.70153289712258 160.26870908607435,128.73035139464525 160.36449641824694,128.7585506412149" stroke="none" stroke-width="0.3" /></g></svg>