<?xml version="1.0" encoding="utf-8" ?>
<svg baseProfile="full" height="297.0mm" version="1.1" viewBox="0 0 210.0 297.0" width="210.0mm" xmlns="http://www.w3.org/2000/svg" xmlns:ev="http://www.w3.org/2001/xml-events" xmlns:xlink="http://www.w3.org/1999/xlink"><defs><g id="checker_bar_h"><rect fill="#000000" height="1.0" stroke="none" width="10.0" x="0.0" y="0" /><rect fill="#ffff00" height="1.0" stroke="none" width="10.0" x="0.0" y="1.0" /><rect fill="#ffff00" height="1.0" stroke="none" width="10.0" x="10.0" y="0" /><rect fill="#000000" height="1.0" stroke="none" width="10.0" x="10.0" y="1.0" /><rect fill="#000000" height="1.0" stroke="none" width="10.0" x="20.0" y="0" /><rect fill="#ffff00" height="1.0" stroke="none" width="10.0" x="20.0" y="1.0" /><rect fill="#ffff00" height="1.0" stroke="none" width="10.0" x="30.0" y="0" /><rect fill="#000000" height="1.0" stroke="none" width="10.0" x="30.0" y="1.0" /><rect fill="#000000" height="1.0" stroke="none" width="10.0" x="40.0" y="0" /><rect fill="#ffff00" height="1.0" stroke="none" width="10.0" x="40.0" y="1.0" /><rect fill="#ffff00" height="1.0" stroke="none" width="10.0" x="50.0" y="0" /><rect fill="#000000" height="1.0" stroke="none" width="10.0" x="50.0" y="1.0" /><rect fill="#000000" height="1.0" stroke="none" width="10.0" x="60.0" y="0" /><rect fill="#ffff00" height="1.0" stroke="none" width="10.0" x="60.0" y="1.0" /><rect fill="#ffff00" height="1.0" stroke="none" width="10.0" x="70.0" y="0" /><rect fill="#000000" height="1.0" stroke="none" width="10.0" x="70.0" y="1.0" /><rect fill="#000000" height="1.0" stroke="none" width="10.0" x="80.0" y="0" /><rect fill="#ffff00" height="1.0" stroke="none" width="10.0" x="80.0" y="1.0" /><rect fill="#ffff00" height="1.0" stroke="none" width="10.0" x="90.0" y="0" /><rect fill="#000000" height="1.0" stroke="none" width="10.0" x="90.0" y="1.0" /><rect fill="#000000" height="1.0" stroke="none" width="10.0" x="100.0" y="0" /><rect fill="#ffff00" height="1.0" stroke="none" width="10.0" x="100.0" y="1.0" /><rect fill="#ffff00" height="1.0" stroke="none" width="10.0" x="110.0" y="0" /><rect fill="#000000" height="1.0" stroke="none" width="10.0" x="110.0" y="1.0" /><rect fill="#000000" height="1.0" stroke="none" width="10.0" x="120.0" y="0" /><rect fill="#ffff00" height="1.0" stroke="none" width="10.0" x="120.0" y="1.0" /><rect fill="#ffff00" height="1.0" stroke="none" width="10.0" x="130.0" y="0" /><rect fill="#000000" height="1.0" stroke="none" width="10.0" x="130.0" y="1.0" /><rect fill="#000000" height="1.0" stroke="none" width="10.0" x="140.0" y="0" /><rect fill="#ffff00" height="1.0" stroke="none" width="10.0" x="140.0" y="1.0" /><rect fill="#ffff00" height="1.0" stroke="none" width="10.0" x="150.0" y="0" /><rect fill="#000000" height="1.0" stroke="none" width="10.0" x="150.0" y="1.0" /><rect fill="#000000" height="1.0" stroke="none" width="10.0" x="160.0" y="0" /><rect fill="#ffff00" height="1.0" stroke="none" width="10.0" x="160.0" y="1.0" /><rect fill="#ffff00" height="1.0" stroke="none" width="10.0" x="170.0" y="0" /><rect fill="#000000" height="1.0" stroke="none" width="10.0" x="170.0" y="1.0" /></g><g id="checker_bar_v"><rect fill="#000000" height="10.0" stroke="none" width="1.0" x="0" y="0.0" /><rect fill="#ffff00" height="10.0" stroke="none" width="1.0" x="1.0" y="0.0" /><rect fill="#ffff00" height="10.0" stroke="none" width="1.0" x="0" y="10.0" /><rect fill="#000000" height="10.0" stroke="none" width="1.0" x="1.0" y="10.0" /><rect fill="#000000" height="10.0" stroke="none" width="1.0" x="0" y="20.0" /><rect fill="#ffff00" height="10.0" stroke="none" width="1.0" x="1.0" y="20.0" /><rect fill="#ffff00" height="10.0" stroke="none" width="1.0" x="0" y="30.0" /><rect fill="#000000" height="10.0" stroke="none" width="1.0" x="1.0" y="30.0" /><rect fill="#000000" height="10.0" stroke="none" width="1.0" x="0" y="40.0" /><rect fill="#ffff00" height="10.0" stroke="none" width="1.0" x="1.0" y="40.0" /><rect fill="#ffff00" height="10.0" stroke="none" width="1.0" x="0" y="50.0" /><rect fill="#000000" height="10.0" stroke="none" width="1.0" x="1.0" y="50.0" /><rect fill="#000000" height="10.0" stroke="none" width="1.0" x="0" y="60.0" /><rect fill="#ffff00" height="10.0" stroke="none" width="1.0" x="1.0" y="60.0" /><rect fill="#ffff00" height="10.0" stroke="none" width="1.0" x="0" y="70.0" /><rect fill="#000000" height="10.0" stroke="none" width="1.0" x="1.0" y="70.0" /><rect fill="#000000" height="10.0" stroke="none" width="1.0" x="0" y="80.0" /><rect fill="#ffff00" height="10.0" stroke="none" width="1.0" x="1.0" y="80.0" /><rect fill="#ffff00" height="10.0" stroke="none" width="1.0" x="0" y="90.0" /><rect fill="#000000" height="10.0" stroke="none" width="1.0" x="1.0" y="90.0" /><rect fill="#000000" height="10.0" stroke="none" width="1.0" x="0" y="100.0" /><rect fill="#ffff00" height="10.0" stroke="none" width="1.0" x="1.0" y="100.0" /><rect fill="#ffff00" height="10.0" stroke="none" width="1.0" x="0" y="110.0" /><rect fill="#000000" height="10.0" stroke="none" width="1.0" x="1.0" y="110.0" /><rect fill="#000000" height="10.0" stroke="none" width="1.0" x="0" y="120.0" /><rect fill="#ffff00" height="10.0" stroke="none" width="1.0" x="1.0" y="120.0" /><rect fill="#ffff00" height="10.0" stroke="none" width="1.0" x="0" y="130.0" /><rect fill="#000000" height="10.0" stroke="none" width="1.0" x="1.0" y="130.0" /><rect fill="#000000" height="10.0" stroke="none" width="1.0" x="0" y="140.0" /><rect fill="#ffff00" height="10.0" stroke="none" width="1.0" x="1.0" y="140.0" /><rect fill="#ffff00" height="10.0" stroke="none" width="1.0" x="0" y="150.0" /><rect fill="#000000" height="10.0" stroke="none" width="1.0" x="1.0" y="150.0" /><rect fill="#000000" height="10.0" stroke="none" width="1.0" x="0" y="160.0" /><rect fill="#ffff00" height="10.0" stroke="none" width="1.0" x="1.0" y="160.0" /><rect fill="#ffff00" height="10.0" stroke="none" width="1.0" x="0" y="170.0" /><rect fill="#000000" height="10.0" stroke="none" width="1.0" x="1.0" y="170.0" /></g></defs><rect fill="none" height="81.8" stroke="#000000" stroke-width="0.2" width="189.8" x="10.1" y="10.1" /><rect fill="#000000" height="2.0" stroke="none" width="2.0" x="10.0" y="97.0" /><rect fill="#000000" height="2.0" stroke="none" width="2.0" x="10.0" y="285.0" /><rect fill="#000000" height="2.0" stroke="none" width="2.0" x="198.0" y="97.0" /><rect fill="#ffff00" height="2.0" stroke="#000000" stroke-width="0.2" width="2.0" x="198.1" y="285.1" /><use x="15.0" xlink:href="#checker_bar_h" y="97.0" /><use x="15.0" xlink:href="#checker_bar_h" y="285.0" /><use x="10.0" xlink:href="#checker_bar_v" y="102.0" /><use x="198.0" xlink:href="#checker_bar_v" y="102.0" /></svg>