<?xml version="1.0" encoding="utf-8" ?>
<svg baseProfile="full" height="297.0mm" version="1.1" viewBox="0 0 210.0 297.0" width="210.0mm" xmlns="http://www.w3.org/2000/svg" xmlns:ev="http://www.w3.org/2001/xml-events" xmlns:xlink="http://www.w3.org/1999/xlink"><defs><g id="checker_bar_h"><rect fill="#000000" height="1.0" stroke="none" width="10.0" x="0.0" y="0" /><rect fill="#ffff00" height="1.0" stroke="none" width="10.0" x="0.0" y="1.0" /><rect fill="#ffff00" height="1.0" stroke="none" width="10.0" x="10.0" y="0" /><rect fill="#000000" height="1.0" stroke="none" width="10.0" x="10.0" y="1.0" /><rect fill="#000000" height="1.0" stroke="none" width="10.0" x="20.0" y="0" /><rect fill="#ffff00" height="1.0" stroke="none" width="10.0" x="20.0" y="1.0" /><rect fill="#ffff00" height="1.0" stroke="none" width="10.0" x="30.0" y="0" /><rect fill="#000000" height="1.0" stroke="none" width="10.0" x="30.0" y="1.0" /><rect fill="#000000" height="1.0" stroke="none" width="10.0" x="40.0" y="0" /><rect fill="#ffff00" height="1.0" stroke="none" width="10.0" x="40.0" y="1.0" /><rect fill="#ffff00" height="1.0" stroke="none" width="10.0" x="50.0" y="0" /><rect fill="#000000" height="1.0" stroke="none" width="10.0" x="50.0" y="1.0" /><rect fill="#000000" height="1.0" stroke="none" width="10.0" x="60.0" y="0" /><rect fill="#ffff00" height="1.0" stroke="none" width="10.0" x="60.0" y="1.0" /><rect fill="#ffff00" height="1.0" stroke="none" width="10.0" x="70.0" y="0" /><rect fill="#000000" height="1.0" stroke="none" width="10.0" x="70.0" y="1.0" /><rect fill="#000000" height="1.0" stroke="none" width="10.0" x="80.0" y="0" /><rect fill="#ffff00" height="1.0" stroke="none" width="10.0" x="80.0" y="1.0" /><rect fill="#ffff00" height="1.0" stroke="none" width="10.0" x="90.0" y="0" /><rect fill="#000000" height="1.0" stroke="none" width="10.0" x="90.0" y="1.0" /><rect fill="#000000" height="1.0" stroke="none" width="10.0" x="100.0" y="0" /><rect fill="#ffff00" height="1.0" stroke="none" width="10.0" x="100.0" y="1.0" /><rect fill="#ffff00" height="1.0" stroke="none" width="10.0" x="110.0" y="0" /><rect fill="#000000" height="1.0" stroke="none" width="10.0" x="110.0" y="1.0" /><rect fill="#000000" height="1.0" stroke="none" width="10.0" x="120.0" y="0" /><rect fill="#ffff00" height="1.0" stroke="none" width="10.0" x="120.0" y="1.0" /><rect fill="#ffff00" height="1.0" stroke="none" width="10.0" x="130.0" y="0" /><rect fill="#000000" height="1.0" stroke="none" width="10.0" x="130.0" y="1.0" /><rect fill="#000000" height="1.0" stroke="none" width="10.0" x="140.0" y="0" /><rect fill="#ffff00" height="1.0" stroke="none" width="10.0" x="140.0" y="1.0" /><rect fill="#ffff00" height="1.0" stroke="none" width="10.0" x="150.0" y="0" /><rect fill="#000000" height="1.0" stroke="none" width="10.0" x="150.0" y="1.0" /><rect fill="#000000" height="1.0" stroke="none" width="10.0" x="160.0" y="0" /><rect fill="#ffff00" height="1.0" stroke="none" width="10.0" x="160.0" y="1.0" /><rect fill="#ffff00" height="1.0" stroke="none" width="10.0" x="170.0" y="0" /><rect fill="#000000" height="1.0" stroke="none" width="10.0" x="170.0" y="1.0" /></g><g id="checker_bar_v"><rect fill="#000000" height="10.0" stroke="none" width="1.0" x="0" y="0.0" /><rect fill="#ffff00" height="10.0" stroke="none" width="1.0" x="1.0" y="0.0" /><rect fill="#ffff00" height="10.0" stroke="none" width="1.0" x="0" y="10.0" /><rect fill="#000000" height="10.0" stroke="none" width="1.0" x="1.0" y="10.0" /><rect fill="#000000" height="10.0" stroke="none" width="1.0" x="0" y="20.0" /><rect fill="#ffff00" height="10.0" stroke="none" width="1.0" x="1.0" y="20.0" /><rect fill="#ffff00" height="10.0" stroke="none" width="1.0" x="0" y="30.0" /><rect fill="#000000" height="10.0" stroke="none" width="1.0" x="1.0" y="30.0" /><rect fill="#000000" height="10.0" stroke="none" width="1.0" x="0" y="40.0" /><rect fill="#ffff00" height="10.0" stroke="none" width="1.0" x="1.0" y="40.0" /><rect fill="#ffff00" height="10.0" stroke="none" width="1.0" x="0" y="50.0" /><rect fill="#000000" height="10.0" stroke="none" width="1.0" x="1.0" y="50.0" /><rect fill="#000000" height="10.0" stroke="none" width="1.0" x="0" y="60.0" /><rect fill="#ffff00" height="10.0" stroke="none" width="1.0" x="1.0" y="60.0" /><rect fill="#ffff00" height="10.0" stroke="none" width="1.0" x="0" y="70.0" /><rect fill="#000000" height="10.0" stroke="none" width="1.0" x="1.0" y="70.0" /><rect fill="#000000" height="10.0" stroke="none" width="1.0" x="0" y="80.0" /><rect fill="#ffff00" height="10.0" stroke="none" width="1.0" x="1.0" y="80.0" /><rect fill="#ffff00" height="10.0" stroke="none" width="1.0" x="0" y="90.0" /><rect fill="#000000" height="10.0" stroke="none" width="1.0" x="1.0" y="90.0" /><rect fill="#000000" height="10.0" stroke="none" width="1.0" x="0" y="100.0" /><rect fill="#ffff00" height="10.0" stroke="none" width="1.0" x="1.0" y="100.0" /><rect fill="#ffff00" height="10.0" stroke="none" width="1.0" x="0" y="110.0" /><rect fill="#000000" height="10.0" stroke="none" width="1.0" x="1.0" y="110.0" /><rect fill="#000000" height="10.0" stroke="none" width="1.0" x="0" y="120.0" /><rect fill="#ffff00" height="10.0" stroke="none" width="1.0" x="1.0" y="120.0" /><rect fill="#ffff00" height="10.0" stroke="none" width="1.0" x="0" y="130.0" /><rect fill="#000000" height="10.0" stroke="none" width="1.0" x="1.0" y="130.0" /><rect fill="#000000" height="10.0" stroke="none" width="1.0" x="0" y="140.0" /><rect fill="#ffff00" height="10.0" stroke="none" width="1.0" x="1.0" y="140.0" /><rect fill="#ffff00" height="10.0" stroke="none" width="1.0" x="0" y="150.0" /><rect fill="#000000" height="10.0" stroke="none" width="1.0" x="1.0" y="150.0" /><rect fill="#000000" height="10.0" stroke="none" width="1.0" x="0" y="160.0" /><rect fill="#ffff00" height="10.0" stroke="none" width="1.0" x="1.0" y="160.0" /><rect fill="#ffff00" height="10.0" stroke="none" width="1.0" x="0" y="170.0" /><rect fill="#000000" height="10.0" stroke="none" width="1.0" x="1.0" y="170.0" /></g></defs><rect fill="none" height="81.8" stroke="#333333" stroke-width="0.2" width="189.8" x="10.1" y="10.1" /><rect fill="#000000" height="2.0" stroke="none" width="2.0" x="10.0" y="97.0" /><rect fill="#000000" height="2.0" stroke="none" width="2.0" x="10.0" y="285.0" /><rect fill="#000000" height="2.0" stroke="none" width="2.0" x="198.0" y="97.0" /><rect fill="#ffff00" height="2.0" stroke="#000000" stroke-width="0.2" width="2.0" x="198.1" y="285.1" /><use x="15.0" xlink:href="#checker_bar_h" y="97.0" /><use x="15.0" xlink:href="#checker_bar_h" y="285.0" /><use x="10.0" xlink:href="#checker_bar_v" y="102.0" /><use x="198.0" xlink:href="#checker_bar_v" y="102.0" /><g id="crack_content" transform="translate(15.0,107.0)"><polygon fill="#000000" fill-opacity="1.0" points="79.38183061565572,21.03282863826334 79.43554084248314,21.109409591808763 79.4860564097737,21.180619722432766 79.53024940113407,21.24283656436776 79.5809205274931,21.30829018152801 79.64030322112401,21.384867601883858 79.7024370938939,21.463708355523035 79.76826510669424,21.54820766490687 79.83072795233305,21.629634113276598 79.88483455554939,21.700315278532265 79.94177369223765,21.770284664636417 79.99962823796105,21.84082318072977 80.05532080265831,21.905077496854634 80.12173879129782,21.978271620849572 80.18697071364862,22.050655214060207 80.25437580328625,22.121833264205573 80.32800460226443,22.200354081712664 80.3937918801098,22.269990053220763 80.45769572928829,22.334259335571574 80.52805572300183,22.403464743313904 80.60346044043214,22.477481176547865 80.6750137339244,22.54786502998133 80.73728578152289,22.606347067880836 80.80891458686273,22.67060443291578 80.87727499180026,22.73322608068648 80.93978505249524,22.785404896869757 81.01021739047327,22.844059725309876 81.08457477113672,22.905303424185337 81.16523808203011,22.97275655624162 81.24540667809802,23.041532761268897 81.32360150407347,23.109123013096408 81.39958014656736,23.175965301111475 81.47755842991022,23.245127668541716 81.55116985419828,23.312571800446936 81.62309935664213,23.377679874098813 81.69421622275232,23.443929374627974 81.76350579794251,23.50796086826561 81.84499968127645,23.58502910449999 81.92354024620994,23.664144498404845 81.99372449506619,23.73593982163461 82.0670930899458,23.812471192238 82.14578158642747,23.89721121004776 82.21742452708722,23.97901951301726 82.27934813067188,24.05076014178929 82.3482938165151,24.129758474464094 82.41239513661966,24.20665651797138 82.46764653854723,24.272122603531972 82.52907222244987,24.342448005462668 82.59421649674854,24.41650925823552 82.66746818173185,24.498359421545945 82.73896591083087,24.5814600554134 82.80645945271569,24.65925264251761 82.88284786904107,24.747260470762317 82.87052417956687,24.749015388074234 82.86465034584171,24.737896764705532 82.95301084646778,24.800251835277763 83.04162380348914,24.861506163787375 83.13062655925366,24.923609583775047 83.21834532096456,24.983465775232833 83.30950623467827,25.045593801750957 83.40046839581142,25.107264067262506 83.48249424650841,25.16155366023582 83.55659048415731,25.206271252630764 83.64529169045237,25.25817821449989 83.73456739425369,25.311259022834896 83.82024406862995,25.358300394113183 83.90817816106454,25.40626735468182 84.0952026228628,25.53543710556359 84.25966291432923,25.700952346689537 84.34257057660146,25.777029769068875 84.41924686963047,25.847278800960137 84.48880047250766,25.905004511085394 84.56285587042876,25.96682400853454 84.64321165109449,26.035585920923626 84.72889854137566,26.112835071107416 84.81044134894262,26.18741531917149 84.88628577428392,26.255451119401247 84.95981807003626,26.321068937608803 85.03418738515505,26.38831015124627 85.10121542933096,26.447794921427512 85.17466852756725,26.513800070842066 85.24503802246326,26.580489271141072 85.31741336631924,26.6480702218477 85.41064317930581,26.748057470147042 85.48934101510541,26.838393362288617 85.56346058112331,26.92433477372201 85.72479101383108,27.16335417118969 85.83731375761471,27.42671913912605 85.88162969730313,27.546301647000266 85.91449335296487,27.64278694250562 85.94387084215215,27.728404449731336 85.91030864079214,27.66415388590543 85.88133330506244,27.602758392152275 85.93631162952673,27.694447753507607 85.98679560351064,27.78185019111816 86.03824534619619,27.87268960448536 86.09194572583611,27.970405463737492 86.14401819958152,28.06920250442244 86.18383722479969,28.150959766552635 86.22647415349476,28.234206873912978 86.27628110683376,28.33199921431459 86.31283423827207,28.409716688126412 86.35005666368612,28.484294675332464 86.39713153603842,28.574042526019337 86.4403440985949,28.6582599616925 86.48176982638813,28.737407122423466 86.52775912448254,28.821903897785337 86.57274776191886,28.90427279659079 86.61636319173066,28.9823303173225 86.66101950092097,29.059921876198214 86.70930366393463,29.140278956896925 86.84268717054128,29.354607937302603 86.93034924073851,29.576672361947033 86.95388693896852,29.651880779484504 86.98157821045143,29.733552460944395 86.99397150298076,29.779640157450405 87.01932004816629,29.83755460632131 87.06329081421076,29.935611632657714 87.10365899557364,30.026021087526605 87.14842528311816,30.12571670575704 87.21129984833613,30.267780552303318 87.25834645314957,30.401497031168603 87.29438450227562,30.508981972310114 87.32563316071348,30.61559806813604 87.34998983932168,30.702348959731673 87.37739125803506,30.79802797959335 87.40606582153613,30.900329223292843 87.45773790063414,31.07645999236274 87.48537046861553,31.248972391015528 87.49626021025219,31.359407597008687 87.50553099949306,31.482935568627102 87.50700708470862,31.581642416764662 87.506084541073,31.6630336898967 87.50829000648986,31.756545313377018 87.51158301497695,31.86122407102914 87.51435194655062,31.97023014000879 87.51552787579409,32.0821667741168 87.51322488700386,32.186339137142554 87.51095109321311,32.29106216462011 87.50733117167648,32.398148025964495 87.5014727735411,32.495212177529126 87.49781200610049,32.59830223911366 87.4950970091717,32.71510992383542 87.48979277593492,32.83176327682546 87.4817178351575,32.940012666437724 87.47378368699499,33.04754815805651 87.46474041795948,33.153637807779056 87.45568425425932,33.25230064953493 87.44864323832736,33.353505944829884 87.44262091738412,33.458837540442815 87.43650369458723,33.55949590564085 87.43162482779078,33.6532162759724 87.42959207295621,33.74555861354983 87.4314518676223,33.844143376345734 87.43589472868697,33.95279467804572 87.4388945655724,34.058962797974836 87.44325442169588,34.161715840095546 87.44824088107906,34.26752243815537 87.45359696390705,34.37263896784529 87.45882866160034,34.47403664639474 87.46572333083095,34.573355367180255 87.47365957511612,34.67334179283598 87.48296633197072,34.773406888158924 87.49256535090588,34.87066403479907 87.50492801767838,34.97196130663427 87.51630326596384,35.0789169006079 87.5267435729668,35.18150089935306 87.53662678930857,35.277816807525454 87.54825729188202,35.37236037803105 87.56008850510621,35.46591199794458 87.57400192201436,35.56048132981284 87.5887395342857,35.66593687531671 87.59618963935526,35.74078118455664 87.61398852225605,35.81085602263585 87.6356370049642,35.91011533339672 87.65739741039727,36.01111431475647 87.67511214064913,36.10778495266301 87.69447609791501,36.203976181713486 87.7127507616387,36.30955030328277 87.728281770961,36.413604833584365 87.74045772448135,36.51300473210834 87.7505567351809,36.60284226541524 87.76273026647452,36.69300412370418 87.77681452433893,36.79188033890456 87.78985810180644,36.89414954783079 87.80055057256256,36.993217588243986 87.81041891986061,37.08852473164671 87.82208014504805,37.18775206290627 87.83299710723607,37.291119319666144 87.84271257168821,37.39443604225516 87.85159419129316,37.5005817023856 87.85780490044469,37.60726835531899 87.86150246075404,37.709464405761935 87.86561030914424,37.809978183474165 87.86989864416662,37.911588189817614 87.87455060371049,38.013886379654025 87.8787479609821,38.116303687415275 87.8829743694625,38.2173158292564 87.8878540054435,38.316574276003166 87.89468974760258,38.414140636102104 87.90452072140631,38.51150787703035 87.91726935184374,38.61029750960008 87.93127606027744,38.7104681689045 87.94563338132443,38.81072732176758 87.96040292010456,38.91063727043045 87.97571367782996,39.010448138830846 87.99126179553062,39.110328331083714 88.00662739066244,39.20941415674894 88.02351954605649,39.3072689917571 88.04272123528841,39.40588457078068 88.06020736119277,39.50414916094117 88.08110490818473,39.5999838651373 88.10525338230009,39.69566627830694 88.13189270752787,39.79247207364969 88.15610788607339,39.89095926682977 88.1784690702741,39.98943831306279 88.20059147973805,40.08693419855038 88.22538508759713,40.182835961209555 88.25223522658274,40.27903820391136 88.27790880897123,40.37639429582997 88.30216724817576,40.47350382003485 88.32600461084854,40.56600582298559 88.36563954601749,40.6533673379814 88.4062473792309,40.74503173921215 88.44624805447042,40.83613001835168 88.48823558402528,40.92594345663848 88.53155191304744,41.01606381544691 88.57577639545028,41.11105064408835 88.60242604902018,41.21177007846857 88.62893362877375,41.307537752211 88.65656356314298,41.40291743632721 88.68593940660118,41.4985649926101 88.71368227439962,41.59514733049182 88.7411506513548,41.691224779103294 88.76907460783515,41.78738637608794 88.7960094094456,41.88354616676515 88.82425379054564,41.97882316381363 88.85352741517363,42.07409502895439 88.88333391211818,42.16995887709178 88.91129586591514,42.26629512468197 88.93982741702217,42.36226448644209 88.96733706082925,42.4587862280914 88.99436531931421,42.55481809807564 89.02256145881795,42.650303823669425 89.05139225914026,42.7462574523433 89.08027325806005,42.84795627171395 89.08716938447078,42.953155207918336 89.09337772868362,43.05304857743817 89.09928842380246,43.15272821081244 89.10607431506152,43.252544685235065 89.11182409872546,43.35266868973694 89.11748148769846,43.45305622376071 89.12103914873875,43.55322353044032 89.12571465956518,43.65242523442224 89.13198332549611,43.751754801248424 89.13859421802948,43.85176129406919 89.14401850112719,43.95206277485446 89.14882684268926,44.05196059616936 89.15353056021767,44.145981203850305 89.18031514550533,44.236884060160385 89.20636978756114,44.33352378822473 89.23397626607881,44.429719145712156 89.27049664469776,44.523879491091 89.31559141216778,44.615222694954795 89.36000264092668,44.70524880423463 89.40627895120723,44.79225783367748 89.4549378251251,44.87920373808105 89.50449697060024,44.96972279124099 89.55079382888329,45.0615015193517 89.59610373303312,45.15133848607273 89.64087515533849,45.24319319783686 89.68391736736409,45.337654478527604 89.72472157071832,45.435308624564975 89.76070056054576,45.53209767682102 89.79456500377961,45.624343378611705 89.82792074961424,45.71574137387612 89.86217104377667,45.81132227323111 89.89388630763506,45.911374384943784 89.92181269924515,46.00836852371129 89.94949689413939,46.10638955436758 89.97422947480997,46.20667307767457 89.99600788154932,46.30056317164935 90.02064900974554,46.398329563948764 90.04241963922101,46.50321227603165 90.06075213737522,46.604513776618084 90.07710636989063,46.70160503368779 90.09369787071164,46.794591902937114 90.11272404152815,46.88836283253851 90.13300527417995,46.98507879800311 90.15440527737591,47.08553496143111 90.17300190435154,47.184422810683735 90.1930165553099,47.280201033233965 90.2134898377441,47.37732706566361 90.2344748613919,47.47183424241286 90.25830026001944,47.56772790733317 90.28172535206147,47.66385252692301 90.30721661619245,47.75842758007721 90.33411427509262,47.85612294815538 90.3508414866795,47.92697793975012 90.3875529403171,47.986497751634204 90.42244683906009,48.04730185511602 90.47632288764608,48.095470929522016 90.54955102555283,48.16473155098502 90.62229915780836,48.23334321374798 90.69406778359779,48.30049570622873 90.7675104695383,48.36716336070804 90.84235289496176,48.436032060022484 90.9165096603575,48.50564295087101 90.96971034785655,48.55824587838449 91.03422261439962,48.59450456584572 91.11803641657038,48.64448763065819 91.20500237391316,48.69462250070916 91.2923598173715,48.74857616159525 91.3779572883587,48.8024000367017 91.46450146091617,48.859026728175586 91.5457295625803,48.91593779538633 91.62555907846568,48.969706249187496 91.70737834706938,49.02514883174871 91.78800569554731,49.080421614734654 91.86921347614032,49.135120080919464 91.95376785579026,49.192229562611274 92.04673243837149,49.25877033577067 92.12752106864818,49.336090615074895 92.1980525754265,49.40646266855793 92.26853111847761,49.47651384179786 92.34011976348414,49.546966095183976 92.4107887887765,49.61794342570658 92.48204418950189,49.68737887256491 92.55443577551192,49.75661238140684 92.62770442522783,49.82522899634953 92.70507881872126,49.88865402373038 92.7876467883367,49.94357319800465 92.87167189078406,49.99590080851812 92.95685196469917,50.04769888715685 93.04239592147385,50.099531048236756 93.1280972183485,50.15174985233444 93.21325384742633,50.205023385926374 93.29778482630847,50.25862634601174 93.37656444548232,50.30882899468864 93.46577463396953,50.336073743358114 93.5622127031794,50.36518741999085 93.65808975557995,50.39806965391864 93.75213509046328,50.43212929832823 93.84608024416215,50.46445135526963 93.94073440556345,50.49597225790504 94.03578364666771,50.527677927773595 94.13038010504175,50.56001423195499 94.22485713207422,50.5914054361136 94.32035947725423,50.622169276661964 94.42085342167258,50.65743268413208 94.50988492333943,50.71435569757583 94.59416582516744,50.76738951660666 94.68311631102625,50.82287441810337 94.75932990666988,50.89431493140733 94.83579999093044,50.96349569103034 94.90165656348235,51.0430113634579 94.96580561059636,51.118153609441045 95.03235713257749,51.191261737852024 95.10029205380647,51.26386799880638 95.16926764827129,51.33627483426685 95.23773575329794,51.40946241097106 95.30589497764268,51.482293099603744 95.3769248217596,51.55200117831944 95.45087884592638,51.61865033068571 95.52561748541527,51.68590277118807 95.59795663042784,51.75574260861269 95.6696638978838,51.82544284856748 95.73951153714634,51.89607715803657 95.81066474925815,51.96626759731497 95.88004888407018,52.03989991731506 95.9470112680614,52.113974477210526 96.01388883011808,52.18787507948757 96.07972784793664,52.26266192449649 96.14526384584786,52.336305682470254 96.21340888909151,52.40880979881223 96.28538951747771,52.47875555761104 96.35802566128224,52.54837450895563 96.42934640570554,52.61995558508889 96.49864471071332,52.69217440874749 96.56884437440165,52.76313399560818 96.63868613100858,52.834856256425994 96.70860252279284,52.90615403810526 96.78040057395472,52.979138773749234 96.84482665608738,53.058655273659774 96.90773790317468,53.135801718883684 96.97145348750503,53.21167703515212 97.04108186189542,53.29155723723095 97.08851590194226,53.3865411199023 97.13575413926078,53.47915275503391 97.1669015289273,53.57907234318245 97.19519216665469,53.67500305423606 97.22484238686197,53.77094052755679 97.25170700125247,53.86792018701795 97.27857888011812,53.963356935760416 97.3084374247457,54.05842627651233 97.33715198748456,54.1551481821048 97.36363582729336,54.25140822950133 97.39252074694899,54.34640763217526 97.42191370270002,54.44254002587871 97.44911727624674,54.53927527835222 97.47640219187278,54.635152180209914 97.50472439565563,54.731200611699734 97.5316347321374,54.82776408337348 97.55893229249833,54.923765007653536 97.5864483603232,55.019632098953515 97.61481207021953,55.115548201994905 97.64228227168068,55.211575134830476 97.67115651799823,55.307510946925404 97.69672172575164,55.40018260266658 97.73844901994137,55.486727816723686 97.78037852579794,55.57858455052808 97.82032321284157,55.67091003723968 97.85976037378074,55.76306145424472 97.89873316037635,55.8555285045928 97.93683167689508,55.94805645905749 97.97532873020678,56.0400573261803 98.01430752905527,56.13189934323271 98.05341182302838,56.2230153699279 98.09509202940666,56.31264033270117 98.13875002013071,56.402617738331756 98.18093731759666,56.49343286651473 98.22408125451119,56.58359276188867 98.26645878003727,56.67435262298851 98.3090459509256,56.76488796683099 98.35132707199249,56.85593322219396 98.39256836673823,56.947219599291245 98.43402925103607,57.038110883814554 98.47567056929752,57.129322602052525 98.51649720686109,57.221424804158914 98.55539690377783,57.31382138139722 98.59463139152118,57.40479651288151 98.63642237665428,57.49460788904243 98.6792243646282,57.58438726699313 98.7234111790365,57.67423687306142 98.7630063350511,57.759387556806324 98.82367689482979,57.830522977661445 98.88789399773906,57.906641548129436 98.95292972230374,57.98108971725104 99.02016037128692,58.053738509164816 99.08828156149941,58.125603344539016 99.15913895304428,58.19640412040845 99.22790381628589,58.269912851968975 99.29660298634806,58.34226817838714 99.3660058716877,58.41514440071558 99.43386029748243,58.49035472342164 99.49938826151556,58.56670828584693 99.56443002864235,58.64248124319657 99.62981118926291,58.71781040807205 99.69587003171242,58.79320348018699 99.76095154707689,58.869650728558696 99.82561264011274,58.94586211085297 99.89010829078433,59.02129973853453 99.95669922572068,59.09516686128861 100.02632255566273,59.167135115078246 100.10498570443912,59.23052996392544 100.18389487352673,59.294623413393595 100.26102026145234,59.360939627031584 100.33723694913432,59.428012420710665 100.4113686310544,59.49661517485893 100.48439492990158,59.565145906911795 100.5558455040915,59.634112108664965 100.62779024520984,59.70364955400643 100.6979262003239,59.775226598909484 100.76705177061788,59.84639113623948 100.8361487265754,59.91973158311061 100.90126934933687,59.992288084468036 100.96805072493721,60.062916335078874 101.0363025039756,60.137987041057826 101.10157481355527,60.21344348091684 101.16638114811803,60.28785050354863 101.23027676440927,60.36249451754069 101.29489739470469,60.43601052805302 101.36119254500485,60.511131825305426 101.4265044855902,60.58734867613131 101.49183134592664,60.66326139525986 101.55722621869367,60.74047452593149 101.62153466915738,60.81824228783465 101.68632081092213,60.89670645954186 101.74918843340649,60.9772354105122 101.81007852345165,61.05687937716874 101.871964050418,61.13529039990134 101.93418428437599,61.21396435519897 101.99643569048442,61.29167535654943 102.06083068460713,61.36782971543083 102.13031112032205,61.43979908218149 102.19943229602498,61.51102651947196 102.27080227331439,61.58065756273613 102.34161567564948,61.65194831278657 102.41188812223284,61.72321628984084 102.48229479901275,61.79459381692107 102.55164696507352,61.86640285665131 102.62192114728677,61.93668702364062 102.69243640025219,62.00622755483893 102.7648648463497,62.07328601214398 102.83931803917937,62.13945582930684 102.91415540349949,62.20660255405993 102.98780928800025,62.2749946117308 103.06089762219526,62.34331450746548 103.13406382490038,62.41151577635817 103.20752569314158,62.48031933617076 103.27924242981004,62.550741187883624 103.35086574013863,62.62062230294863 103.42188058229435,62.690732216383786 103.49345124725646,62.75941162258862 103.56662368651405,62.82712518280113 103.6400594442678,62.89590140042404 103.7118326237954,62.96566519390776 103.78447180639752,63.034194238563835 103.85692780074942,63.10385669281 103.92849007046699,63.17419680553707 103.99949367590138,63.24436800261946 104.07130408593146,63.31398488216951 104.14228147784621,63.38422187168296 104.21456086339144,63.45348607406581 104.28586386215234,63.52465980276027 104.35594201222774,63.59594600327792 104.42596064619782,63.66564702803432 104.49914921678196,63.73325236908956 104.57149726521587,63.80318100072107 104.6432915638686,63.87288026345906 104.71515322109487,63.94268928236467 104.78611546285505,64.01262215100019 104.8582978917701,64.08069472714175 104.93130708025869,64.14827213012164 105.00513037017856,64.21506992702662 105.07967433521078,64.2816602651258 105.15389810999336,64.34858080804993 105.22867342825302,64.41504348220747 105.30299520878604,64.4822844996729 105.37662290715383,64.54892997870589 105.45228735232614,64.61367965114722 105.52796642160146,64.67993584881852 105.6026130232935,64.74690333948007 105.67711679639466,64.81363736872564 105.75128349062972,64.88029060351413 105.82679332495718,64.94640202753081 105.90075146929323,65.01481959243267 105.97416149534622,65.08309042043051 106.04693428742915,65.15177726722294 106.11483073100602,65.21585487314212 106.19758854632792,65.25952177380486 106.2809454541221,65.3047257933273 106.37224191573712,65.33095405454748 106.46859992296575,65.36003839028079 106.56487417546033,65.39074788622308 106.66013849145263,65.42393631555663 106.75437406871445,65.45768960624744 106.84872679907791,65.49098047874625 106.9367614622496,65.52316835394322 107.02967358636836,65.53093235477455 107.12940348049413,65.53840353381656 107.22959566909601,65.54726264336962 107.32908843291992,65.55705422074206 107.4279092408914,65.5656887575594 107.52642634725196,65.5722020151935 107.62567396834196,65.57581270836538 107.72530906002515,65.57965369570867 107.82452866637449,65.58211365849722 107.92412381916614,65.58296092600709 108.02917437781335,65.58413423882074 108.13208146514388,65.60592941535265 108.2299893656934,65.62748025810184 108.32793406574848,65.64950744818445 108.4256601871406,65.67262610799723 108.51847209603118,65.69537314335659 108.61381491714693,65.70035218945917 108.70859167246765,65.70600280655965 108.80239051829949,65.6917351009704 108.90086141959709,65.67700802946547 108.99951671210627,65.66052558476956 109.09890250960957,65.64574998809478 109.1980211865365,65.63113282059115 109.29718580584776,65.61716410242227 109.39681046175788,65.60306047360508 109.49731496705094,65.59142773716862 109.59786894728819,65.58198207296195 109.6971785002546,65.57449005367376 109.79541277643132,65.56363539250277 109.89452201395659,65.5514762039743 109.9945247706377,65.53983706716373 110.0944706365067,65.53031546033822 110.19404470819428,65.52032942913146 110.29377819605332,65.51112628608432 110.3935753090125,65.50175188648547 110.49343175388655,65.4934886977684 110.59233489596892,65.48499040856524 110.69067978265822,65.4739413280409 110.78908546798347,65.46135507431197 110.88760508487759,65.44711191035388 110.98620207027895,65.43266906054782 111.08406062348925,65.41712113881705 111.18199018393291,65.39909314365804 111.28030501898566,65.38175290784224 111.37836992621807,65.36302162684899 111.47715601041146,65.3449359217034 111.57640734643334,65.3277364455547 111.67523662520689,65.31261274526956 111.77280438983426,65.29562114008056 111.87085433042485,65.27672217293532 111.96969046560609,65.25891706377797 112.06827694423124,65.24165694620905 112.16730151831618,65.22417367803055 112.26712077575144,65.2089757761354 112.36650437504319,65.19537386281628 112.46561308895068,65.18154184635364 112.56482492112193,65.16824465523145 112.66387544957061,65.15482012826348 112.76299588610328,65.1413582131261 112.86256194141964,65.12798895471914 112.96296734950162,65.1162307785846 113.0626640021712,65.10724944524765 113.16136049385626,65.09608716599769 113.26083092296493,65.08441602206504 113.36042630003757,65.07377074161722 113.4599063098201,65.06275389695863 113.55951081466,65.05246310046908 113.659243434553,65.04196274952866 113.75888176579627,65.03281055407727 113.85841922068532,65.02256261327598 113.9587652888791,65.01360367465566 114.05936528818393,65.00626854740138 114.1597055128728,65.00080590639651 114.25941063539798,64.99549321334749 114.35879413811293,64.98947307863628 114.45872877904775,64.982406196436 114.5593903512454,64.97705185052362 114.65952698693314,64.97319810735472 114.75277028900804,64.96945480397918 114.84164281212952,64.94088011286478 114.93650074386385,64.91035265431356 115.03170018537627,64.87875012874414 115.12759854315253,64.84918269012978 115.22304291984004,64.8189863460317 115.31931967121355,64.7897565457723 115.41593275996891,64.76178890618567 115.51607261881058,64.73404324932828 115.61856221702574,64.7210158848319 115.7167919130314,64.70728690892658 115.81473616331468,64.69170394553984 115.91295180698222,64.67465820332778 116.01117791282057,64.65775649906385 116.10814288680183,64.6356173385976 116.2006300688015,64.58943742212003 116.29325583091725,64.54394104810679 116.38455494824845,64.49941724776323 116.47381496949248,64.45428252735685 116.56333940513267,64.40846125899432 116.65712719618722,64.36227615248922 116.75205183541757,64.32019000788829 116.84035132976167,64.280175653747 116.92929913020085,64.23827597446304 117.02235625923511,64.19729234604375 117.11211699680959,64.15850996190031 117.20208214192513,64.1188986870355 117.29671129520607,64.07968809353312 117.39215656708379,64.0423367748915 117.48676204040866,64.00684617113666 117.58365338164577,63.97172884310251 117.68750587174317,63.93755094877444 117.7489318939821,63.91975440022602 117.79666037858341,63.88696320811806 117.8802894295743,63.84002397193964 117.96488559237328,63.79066480329917 118.05483766914826,63.73991250813279 118.14438995661237,63.690316718874655 118.23019225054848,63.64301690985413 118.31528913888873,63.59422139671318 118.40416381121402,63.543805376438364 118.49304844672884,63.49363413507661 118.58174632708807,63.443558473423366 118.66494643137327,63.39612580181048 118.74448521977047,63.34722511857078 118.82760323822309,63.29511571014176 118.90749094428824,63.24383869719885 118.98822490956431,63.18910510591564 119.0746781602892,63.13170449066683 119.15771445784537,63.07636299468055 119.23713697720497,63.021579580365916 119.31764064547569,62.964968567633356 119.39672216660233,62.90887048784849 119.48000825090605,62.848723272568236 119.56851860432573,62.78823757887063 119.65202676658933,62.73113266680927 119.73636881063577,62.67368526653577 119.82173727857618,62.61693255801022 119.9078212634861,62.56039854802394 119.99237695546297,62.50636265436295 120.07492895385577,62.45320143559244 120.15890324213817,62.40035501278646 120.24631763175789,62.34614499017067 120.33344502502595,62.29475783796509 120.42077449932489,62.24327273691004 120.45683043887621,62.22487889239928 120.47438840316403,62.20347655004568 120.54329108208667,62.14200418082489 120.61711131148023,62.078345377868175 120.6895490572119,62.01566608155315 120.75895906863025,61.956962579353835 120.8793492838486,61.85297926573841 121.01309562811836,61.77489837360205 121.08436740584332,61.73439127369597 121.16120576102432,61.6892558319365 121.20848801304669,61.665096941763224 121.2544572702675,61.62835469846504 121.33392910263757,61.56265800328659 121.40863744951281,61.50266952218345 121.48325537983966,61.43922843148497 121.56562459475285,61.37038872966095 121.64358969418683,61.306303890786246 121.71986642969988,61.242060495728346 121.7938414723014,61.179580001145204 121.86085512707642,61.12015869047093 121.9281649747662,61.05610527507881 122.00243226760008,60.982880168599266 122.07686554736944,60.91067072149821 122.14485382631158,60.841916424939 122.20889527484935,60.77433705582025 122.27122667894375,60.70363973602233 122.33795086871275,60.62611664299526 122.40785473534918,60.5446330972283 122.4760175819413,60.465257504298535 122.5393509539609,60.388520760966145 122.60056182353848,60.31165503576761 122.63671504854494,60.258733445925344 122.66705737525119,60.195827396892 122.71508808574124,60.112325971976595 122.76106031222292,60.02574692570512 122.81745525491121,59.92732117087606 122.8765801925233,59.828479961651006 122.99461238386553,59.672540953857705 123.1399759301777,59.54330588400396 123.21631972389201,59.470299802592855 123.29162000621824,59.39801512483131 123.3716764343239,59.32405541389324 123.4590446523258,59.24742055596645 123.53210777626583,59.18393823881292 123.59079581385518,59.12624485124031 123.71166861240846,59.0293322042057 123.84685612816578,58.946025231019824 123.93287045426135,58.890163376645454 124.01637297279706,58.837419491442745 124.10358643053104,58.783282959428256 124.19557825495247,58.72988053721765 124.2907190916126,58.676515551685355 124.37854927321112,58.630287368374525 124.46531977408222,58.583587722863435 124.55733217800156,58.53788897404416 124.64729127255215,58.49312479690399 124.74910428601169,58.44569458465343 124.85178475714544,58.40070786067653 124.94964944612468,58.36033135148641 125.65701322143437,60.03100313367901 125.57070587220498,60.068605213486634 125.49023638799622,60.10396831127705 125.41002100683106,60.13939739874812 125.31907749592344,60.1799224198597 125.22914296841341,60.21726169933732 125.13552514000096,60.25693363861133 125.04111092421732,60.293088582352155 124.95569712483612,60.32574698552307 124.86711540912421,60.35832826295209 124.77497393915255,60.39268924450553 124.67832162623944,60.42680292492404 124.58460425277327,60.45867086122907 124.54000414066095,60.46297900583119 124.49517871508377,60.4780667986172 124.38710869569562,60.53078967086663 124.28929099835425,60.57122917489708 124.2087029330316,60.603179246365706 124.12201399353685,60.63965495720797 124.03156880344048,60.67930078633088 123.94201356993072,60.71799749255781 123.92293768415959,60.7026029830335 123.91070308707336,60.69842221663925 123.84260884354327,60.753903008274456 123.77516529976157,60.81252511006504 123.69979012074155,60.88492658831782 123.62227776156531,60.9571137553376 123.52886670668772,61.05132263413279 123.42357450899765,61.1397983299724 123.34251180990691,61.20349658187462 123.26321865706299,61.266965667256144 123.1885948428958,61.32763281604905 123.11804389873016,61.38853061078201 123.04564330284234,61.454688741357536 122.96862222244,61.527451817016306 122.89042687070643,61.600473630853344 122.81537943011622,61.67150768480255 122.7458280888184,61.73810900420085 122.67902828333318,61.80665862668182 122.60462165877526,61.883730834383684 122.52683489917312,61.9622690829875 122.45366155373667,62.03524098556964 122.38346685205877,62.107181723534715 122.31409420965466,62.17834328878984 122.25036578060674,62.24608864628424 122.18119822792809,62.32166458647362 122.10874314261511,62.39711215753747 122.04225753940176,62.4681503408572 121.94245468459977,62.5683405311035 121.82587626594045,62.65885369769972 121.73666796372913,62.72520147247457 121.63990319711839,62.793155055618676 121.60112874779577,62.816250127911886 121.57596133028389,62.849427215119626 121.49591852142086,62.92362914738386 121.41872951688508,62.99365944229871 121.34126881970782,63.06082143759621 121.25944921766595,63.13081310916549 121.12247172852142,63.23637057790368 120.98078990453212,63.30967890027888 120.89172806277833,63.352459931112165 120.80150463512108,63.39352106886979 120.71285993365655,63.43419622131621 120.62031842423575,63.47538262874102 120.52647754689865,63.51648462332404 120.43381745236785,63.55515560649785 120.3435114901592,63.59289028991246 120.2525185253604,63.630459609790506 120.16118394833316,63.668603656875746 120.06886589049336,63.70681474727015 119.98193330454916,63.742348713160354 119.8919299793296,63.782055293737216 119.7963691304853,63.82342537598968 119.70216509047695,63.864165360518946 119.60609407496037,63.90530910198753 119.5127981100927,63.944344156205695 119.42349537547352,63.98238898933307 119.32930912188087,64.0246240374696 119.23221221607308,64.0664944730166 119.13808709321088,64.10703963197018 119.03969786949293,64.14947143202502 118.94271907746119,64.1888463944198 118.85159915319699,64.22632390027296 118.76101569184023,64.2644204458173 118.67090396842578,64.30324494403098 118.57744016093064,64.34453870829188 118.48332752481926,64.3845923075964 118.39334259281371,64.42312362441297 118.30441518857974,64.46182596173685 118.2109677684011,64.5035737772441 118.11465348244955,64.5439294177196 117.98228457252847,64.59811482295967 117.84821863179828,64.62254258511587 117.7581989753194,64.63749300016138 117.6620521288168,64.65468492631967 117.56358027870505,64.67135893868097 117.4661783744174,64.68701673854775 117.36837577756961,64.70230404906373 117.26609516594377,64.7178431959102 117.162470222279,64.73007040195955 117.06206710243102,64.73981282308502 116.95779570014908,64.7495497558105 116.85132644219007,64.7549791375004 116.75106021752629,64.75648802303209 116.6509717543592,64.75941501329535 116.54629010468898,64.76138492014756 116.44046810097035,64.76032971353686 116.33575346930502,64.75553764112358 116.23222501903146,64.74907362499368 116.12847806499818,64.74152224531733 116.0288574491096,64.75618126219084 115.92998062713016,64.77319763342744 115.83114157703992,64.79034907922875 115.73156973981627,64.80618896065208 115.63172496725993,64.82014580970966 115.53577867677258,64.83208238069734 115.44324842890865,64.85798586159683 115.34774880978253,64.88563033823003 115.25265118247857,64.91450257912079 115.1574114957151,64.94463523257629 115.06218633959698,64.97398979695456 114.96757261641606,65.00540284492934 114.87204695474131,65.03614599401875 114.77024066934554,65.06791690740411 114.66368379401484,65.0731116747762 114.56396828909759,65.07694700798893 114.4649121373538,65.08221484375706 114.36534515117205,65.08925826906 114.26509461513092,65.09533154453544 114.16508308786912,65.1006612101473 114.06571881104153,65.10606650703632 113.96684840957411,65.11327645509158 113.86798693236413,65.1221038554484 113.76857610020551,65.13233954422769 113.66905278423421,65.1414804698544 113.5698849927121,65.15192352691972 113.47054839444237,65.1621860146817 113.37124372161415,65.17318393687033 113.27197172640682,65.18379349687031 113.17280492980704,65.19543013195789 113.07276766679425,65.20673771571802 112.97327074981429,65.21569856202223 112.87503423693366,65.22720811539193 112.77637972570926,65.24045853016597 112.67731957113537,65.25391228534642 112.5781820661546,65.26734857380471 112.47916636579208,65.28061913278631 112.38019493102551,65.29443227324616 112.28142538924905,65.30794737828818 112.18352261617952,65.32284928790509 112.08559453015728,65.34014603808066 111.9871774079288,65.35737622713111 111.88918167757176,65.3750283698232 111.7908459808166,65.39398018132653 111.69137912697657,65.4113012432651 111.59250989815172,65.42643146988803 111.49469890100629,65.44338513190631 111.39675489147841,65.46131706444595 111.29837101878955,65.48010746874863 111.19972622069714,65.49750774115199 111.10095974154657,65.51568289513706 111.00129671171797,65.53152325519744 110.90200577967495,65.54606957801714 110.80258282155451,65.56043999469131 110.7026046401095,65.57322777109718 110.60219933349666,65.5845026835481 110.50183745242462,65.59313479268478 110.40237505147289,65.60136395670102 110.3030488790005,65.61069563095357 110.20362840905484,65.61986913315863 110.1042007621868,65.6298409578464 110.00504760083876,65.63928187620151 109.90639194342995,65.65076922877613 109.80698938964788,65.6629630423614 109.70643210889578,65.67406098681751 109.60630919600459,65.68162524734737 109.50773963040565,65.6908828848179 109.40957021873125,65.70224307592012 109.31117051226605,65.71618141397127 109.21229027433961,65.73010955085269 109.11354896421462,65.7446715801134 109.01510844604715,65.75930259541839 108.91649797084143,65.77577795538011 108.81716932373146,65.79063700646269 108.71316010011155,65.80589839939968 108.60825924381248,65.80019774265911 108.50389775203813,65.79430538530619 108.40235421109035,65.7698723494688 108.30545247709588,65.74694757427046 108.20827052398096,65.72509322811437 108.11085420727689,65.70365046489391 108.01820280156929,65.68353053912774 107.92326098731348,65.68295720354378 107.82286340506327,65.68209979205965 107.72214442930394,65.67960360872713 107.62192788103498,65.67574251788129 107.52130812447449,65.67207094827883 107.42026053868763,65.66539581525643 107.31984009559864,65.65662564363433 107.22029440352377,65.64682913602029 107.12126395743535,65.63807172415017 107.02155270391633,65.63060206566105 106.91523561781459,65.62082406561109 106.81512903498206,65.58516747491748 106.72087726497635,65.55191255535928 106.62682660943442,65.51822480115484 106.53322676333259,65.4856080006317 106.43895808726808,65.45554420987558 106.3438473899085,65.42683810380996 106.24308159633944,65.39728025445055 106.15034695542619,65.34765934859038 106.05664668353965,65.29718516651693 105.97846320856304,65.22465875567448 105.90579074810888,65.15606603911378 105.83274554251727,65.08813530646006 105.75989630812057,65.02073095284501 105.68492582915606,64.9551014367119 105.61033581304987,64.88807056201671 105.53586362361834,64.82136485734671 105.46164013979453,64.75477450421575 105.38684017792188,64.68928829723019 105.31055384923883,64.62399581371908 105.23589788996249,64.55643266085501 105.16191068473188,64.48949303611835 105.087199667235,64.42308797370269 105.01288298822406,64.35608415892139 104.9382726177397,64.28943417205623 104.8637947768918,64.22204264519438 104.79002774038959,64.15376446390385 104.71671064146078,64.08461500319561 104.64521832431798,64.01416732243857 104.57362421140148,63.94461909534403 104.50191895619895,63.875006197653235 104.43046593935527,63.80593391696748 104.35674795770576,63.737824612863015 104.28501281507214,63.66643748496801 104.21488300015916,63.59509926067062 104.14463926452449,63.52497712253965 104.07251609828776,63.455865376727495 104.00133125673126,63.3854257890347 103.92954403069946,63.315831609694165 103.85829414240031,63.24541851348386 103.78722333438844,63.175559463811766 103.71550570050483,63.10660747104243 103.64266880975731,63.03788961379261 103.5710284114818,62.9682527412029 103.49848487769668,62.90031741417136 103.42486897286564,62.832188484566736 103.35213244075983,62.76239250352024 103.2808205535506,62.69199226747047 103.2092919732334,62.62220400076361 103.13830972350209,62.552493774491175 103.06579307920808,62.484584957841335 102.99266126855682,62.416415807331674 102.91964248816049,62.34816077467246 102.84673923409402,62.28046093274976 102.77271104693983,62.21404476001912 102.69767488617947,62.147350235979275 102.62335115531592,62.078527132514694 102.55145597136584,62.00764235453571 102.48032105798033,61.936492905712036 102.41073261742659,61.86444261194739 102.34068860851819,61.79343472934783 102.27053798408227,61.72229006256204 102.2004079296459,61.65168316642582 102.12862767409234,61.58164312879992 102.05845888440741,61.50934946819098 101.98902798288206,61.437431238582136 101.9139287949024,61.370262978315 101.83981064927193,61.30167515752896 101.76609004052415,61.233651848760594 101.69166207891267,61.165711811258774 101.61819817503428,61.09720381432121 101.54526293568026,61.03090775816911 101.47016753822972,60.96642734275683 101.39453518405418,60.90130853707255 101.31865936298763,60.83694980943972 101.24199432523345,60.77201402528682 101.1663384352297,60.70635744400154 101.09049189768848,60.64078140447174 101.01416156121911,60.57240722868469 100.94033043739492,60.50202936481973 100.86774854004445,60.4310937793431 100.79788327838853,60.35911264990395 100.72927111703173,60.2883469344392 100.65832198611196,60.213956884226626 100.59162057905817,60.13610410244171 100.52747234898345,60.060294556355295 100.46344150630782,59.9822298415761 100.4020134738256,59.90317184019918 100.34064859900833,59.823616876950894 100.2810618455409,59.741489667992596 100.22304993919143,59.658927750393545 100.16707393755205,59.57563583485655 100.11128043565994,59.49246446109936 100.0564434623187,59.408494497033374 100.00082068350824,59.324597558317855 99.94592931977915,59.23911933307365 99.88227936453129,59.16196270143268 99.81496083423923,59.087275944660696 99.7494837596107,59.010703405978106 99.68475286910642,58.93440998639535 99.62018942588651,58.85856742974501 99.55444407962003,58.78353558425345 99.48872945005935,58.70782206047184 99.4235047184588,58.631836527748206 99.3587862141814,58.5564144086806 99.29266870229604,58.483127189608204 99.22413717894247,58.411179039338485 99.1551273972719,58.33849559641319 99.08727215347798,58.26593945761264 99.01664807782304,58.19537901376823 98.94717372624396,58.1220974854984 98.87856898127947,58.04795136690407 98.81202082292806,57.97178186854696 98.74727020811818,57.895036683381676 98.6788536824173,57.813409136334265 98.63329825420635,57.717591927882665 98.58922189941245,57.62797116602805 98.54595469785002,57.5372177363992 98.50337736578285,57.44569520218261 98.4634017491387,57.3530245894665 98.42470021698267,57.26108980950697 98.3844750678826,57.170351622534156 98.34305458235963,57.079627262018974 98.30151175974058,56.988555955227326 98.260411610985,56.8975790977376 98.21845294303446,56.80723069845329 98.17590948824638,56.71678876037359 98.13367326274943,56.62632910503601 98.09048750253359,56.53608062091116 98.04841627483304,56.44551079675031 98.00476666563785,56.35555103835873 97.9621174807187,56.263823984977215 97.92233483536047,56.171155216863546 97.88317740593804,56.078892019889864 97.84447241155439,55.986393987743206 97.80642348584446,55.89398528537093 97.76771791374463,55.80215346814141 97.72846596705526,55.71043530000355 97.68899901635422,55.619202099122575 97.64787801693903,55.529117596330906 97.60310438831925,55.4353364663528 97.57509985167165,55.335315925872095 97.54633017932333,55.23973886988542 97.51879201530386,55.14347935044952 97.49044059997999,55.04760547833251 97.4627791724165,54.951234581704334 97.43537601638732,54.85486130910131 97.40859854140105,54.75876544697633 97.38035230985821,54.662980585931194 97.35289329307659,54.56649558442821 97.32595971002557,54.47069728586317 97.2968680079325,54.375571882871014 97.26758062152274,54.27921825367182 97.24100652609172,54.1826445501115 97.21279910372044,54.087637773417974 97.18273723500471,53.9918942632799 97.15539285347145,53.89481972116295 97.12887584418594,53.7990549844573 97.09946218203035,53.70391274195181 97.07118039902662,53.60801133574498 97.04314692541762,53.51688740680393 96.99919210208924,53.43149953157147 96.95799016164925,53.34719687553135 96.89559998259993,53.27684025939412 96.83069759462765,53.199557431247186 96.76721058050461,53.12170878118419 96.70582133833966,53.045756621320855 96.63727935985712,52.976246879600254 96.56716457960646,52.9047466540857 96.49747634659802,52.83318115548935 96.42701954180531,52.76195861311278 96.35784561004986,52.68986721660042 96.28800443179394,52.61976797799129 96.21624762438688,52.55100096313841 96.14363965418309,52.48276518497305 96.06542191816268,52.41896839579306 95.98965946863898,52.35106799545401 95.91661075891943,52.28194445466919 95.84431554061487,52.21221032157026 95.7739597707919,52.14087606249982 95.70488963336571,52.07018092669547 95.63419657159685,51.99937620795004 95.56581655460522,51.92546600854219 95.49826489414473,51.851615034654785 95.43259958461539,51.77669724524549 95.36596111597788,51.7024840952397 95.30027740336614,51.625950488632085 95.23321830417916,51.55098153483325 95.16471604323412,51.47778606677339 95.09655101162848,51.40492096129059 95.02757804261128,51.33251690685237 94.95886865593886,51.259080937208374 94.89079408225376,51.184284318009055 94.82507971712717,51.10732300005886 94.76356164695193,51.03264496188145 94.69154833062103,50.967838111074265 94.62216932522404,50.90215534217484 94.5411748626143,50.85219492850762 94.45618075967477,50.79871127122144 94.37706965980195,50.747338091068805 94.28862811405604,50.71700134185926 94.19376186853452,50.68644797703816 94.09844132893687,50.65477664317866 94.00378920880001,50.622421560517594 93.90911510522606,50.59084174639409 93.8140146689349,50.559170935533416 93.71884075020334,50.52642397954968 93.62483864370891,50.49237958743224 93.53153704760612,50.46036622096644 93.43650495775596,50.431694274910456 93.33470614616773,50.39964684964289 93.24433118295549,50.34314088921167 93.1599588047772,50.2896380325842 93.07556177901915,50.23683820414873 92.9904692505684,50.1849922724772 92.9049623973519,50.133182644681376 92.81925836144234,50.081064309749245 92.73351842158982,50.02765720310263 92.64955287706931,49.97182174465421 92.56079043157409,49.92389799237916 92.4691482528322,49.87935799612585 92.37796791537437,49.833507944660376 92.28698948503228,49.78598107255585 92.19787073097031,49.73667596226095 92.10922070354907,49.68744710661732 92.02075088863528,49.63610874365144 91.9336197002892,49.58342603466623 91.85727650360076,49.53701439022158 91.77753284433294,49.50269950812351 91.68695799208399,49.46321834775047 91.59362404302296,49.42026854406131 91.50159221261399,49.37460170179483 91.41139600040292,49.328011572150274 91.31989954426354,49.27859373175609 91.23294299151796,49.22727392527042 91.14907256539168,49.17921602114657 91.06321561447268,49.130067175550835 90.97912932530191,49.081030319678376 90.89223457569942,49.032309463640814 90.80424992160852,48.97989482132022 90.69706849189815,48.91358024390784 90.60674562216333,48.8268957401185 90.53648281242265,48.75814844972207 90.46568472616032,48.6899447544565 90.39260172262802,48.62048664971104 90.31975853494669,48.54948190059837 90.24812901560318,48.47969163520009 90.17674959622117,48.410790560180395 90.08524359500635,48.32161313992522 90.01525710576426,48.212123073759045 89.94953930653755,48.09986323563284 89.911787302399,47.97828118543483 89.88202191411415,47.88417118579952 89.85073995758134,47.7869734530443 89.82106949359718,47.69027467693156 89.79003982449987,47.59383810100321 89.75999665273042,47.49496450499451 89.7310620410426,47.39828945383991 89.7014190153277,47.30033044417234 89.67420576412913,47.20453533304665 89.64520696441234,47.11144573789296 89.61557606952773,47.01448986873829 89.58615079883303,46.91421838592558 89.55943801737769,46.81194968128127 89.53570994303142,46.71309857775315 89.51311461679717,46.618632580549914 89.4905948046962,46.52848104747322 89.46415680617788,46.43288011364415 89.44045382053433,46.33201024523725 89.41922986483421,46.23764537588505 89.39676566174589,46.14205561608848 89.3761427077198,46.045031814865126 89.35642649118003,45.951810020361634 89.33505482075543,45.85528106297971 89.31506979358042,45.75392335292069 89.29792330022136,45.65278372861885 89.28397497390273,45.555904861222594 89.2691511963801,45.46145089253401 89.2534232274411,45.364741919708706 89.23723509713176,45.26611321239125 89.22165516567406,45.1654444628734 89.2083853812348,45.06629960659813 89.19349147512936,44.967488777959254 89.17863130605248,44.86478940512917 89.16700907531445,44.76036239055753 89.15949418254414,44.65724689918403 89.15253024028762,44.55548419754101 89.13759496587566,44.45637707082183 89.11003034900038,44.360332603524846 89.0840243184639,44.26386695525482 89.0549432627008,44.16273067453812 89.04895578741935,44.05703724065888 89.04414881747712,43.95716633122576 89.03877427618457,43.85775956132571 89.03219135571256,43.75820172041327 89.02586618711965,43.657928192744436 89.02112439538546,43.55735173372429 89.01758682456935,43.45764493581578 89.01198559355117,43.35834961259864 89.00627030879586,43.25880250700658 88.99949032797424,43.15907959405244 88.993561599812,43.05910996482759 88.98736384216873,42.95938848360546 88.98173296883037,42.86498011964954 88.95544523159815,42.77443843717057 88.92672300409804,42.67885186382808 88.8982803355092,42.582525062672815 88.87112179917283,42.486037345947054 88.84381391276511,42.39021814452611 88.81535015943432,42.29448060690064 88.78756608610921,42.198742961261935 88.75798746888168,42.10362668421671 88.72851975424103,42.00771943161463 88.69992182470232,41.911244109977666 88.67291030912786,41.814816790852106 88.64506016244114,41.71891264540487 88.6175514154427,41.622694707067545 88.59008192151141,41.52704906802545 88.56073859038284,41.43151069769278 88.53271832001198,41.334788703751805 88.50587424242238,41.237803684494274 88.4817434370398,41.145077144533914 88.44119919600443,41.05891689611735 88.39787422664706,40.96877831502236 88.35516610345006,40.877410500402206 88.31475190180203,40.78538737834799 88.27435226696448,40.69419175081364 88.2316980248365,40.59926642783206 88.20526218126976,40.498190010667344 88.18105013207992,40.401261879364824 88.15572598496135,40.30522916192486 88.12881271005084,40.208793154722265 88.10354572797078,40.11106140443768 88.07922409234976,40.01402464311208 88.05184689920034,39.9187871598011 88.02265365938635,39.82453737975513 87.99005428370218,39.730317584366524 87.9582271585682,39.63399288233291 87.92841301383862,39.53636357353764 87.9016482432205,39.43958494244459 87.87216750660795,39.34421593080721 87.84288451331336,39.247474117222474 87.81386546281644,39.151547114508624 87.7832691346251,39.05682337536924 87.75101558089433,38.96237247121595 87.71740335146288,38.868222623669716 87.682428369116,38.77466143745082 87.64585389072758,38.68133392224275 87.60790478546711,38.586655884140846 87.57019999971128,38.48975436390792 87.53379966625346,38.39205003556323 87.4985215785871,38.29538156422199 87.4633075676117,38.20032113451587 87.42765577726657,38.10674853071477 87.39077830437435,38.01340596242155 87.353448898995,37.91939397694441 87.31560612642382,37.82435687789831 87.27887344406032,37.730682064052004 87.24212000563121,37.642038017855256 87.2035373699939,37.553897434328825 87.16389396918062,37.463400580459144 87.1244309170175,37.37321718711941 87.08370579969963,37.279427236461224 87.04433472120114,37.180890424716445 87.00792129551583,37.08558502424728 86.97295131241515,36.99370300860471 86.93764632788402,36.89877338608188 86.90241825997056,36.79463370450916 86.87170618062267,36.68867937146523 86.84541332110642,36.59181375996884 86.82026977068871,36.50004801504348 86.79572219999355,36.410260276877096 86.76843051620057,36.31196949864314 86.7449303320395,36.212932878559755 86.72152619374927,36.119098177024924 86.69919218406679,36.02325356582852 86.67050975251138,35.89880465881109 86.65727483784163,35.77472151906928 86.64630103209169,35.681836642612986 86.63404274239902,35.57812576423927 86.62393029780635,35.47288483931871 86.61425782422688,35.368566188155555 86.60627967256626,35.26568126416833 86.59815172188917,35.16912907884157 86.58898240313432,35.07714266929375 86.57625905781846,34.980019448242 86.56354412204564,34.87852527431976 86.54972855797142,34.7799314703332 86.53494503611081,34.681212555783176 86.51851622622686,34.58189589371359 86.50148816433861,34.484536174656384 86.48241577636917,34.391150185937846 86.46104478991305,34.29870117865742 86.4365113854255,34.20355227664603 86.41129733245222,34.111720456123024 86.38264773268706,34.02312853478043 86.35031051235774,33.9246585737928 86.31699455948655,33.819462658060644 86.28439425263576,33.71511354118804 86.25245653596207,33.61744565472998 86.21941580184257,33.52461064026584 86.18424633619065,33.42780383917183 86.14862358357648,33.32823899276716 86.11354228667939,33.23603083336142 86.07674588023147,33.14565985705491 86.03960207744433,33.05603301954158 86.00223578850716,32.97527303816876 85.96291385517272,32.89545943155361 85.91983345026345,32.80247274239538 85.87711552821791,32.70296279725061 85.83683793579989,32.613436819771515 85.7955869284764,32.521994669846904 85.75554584158924,32.42975971133899 85.71695874459701,32.345688943177144 85.6777012044572,32.25916042269672 85.63819831369739,32.168471549950034 85.59715419671662,32.06671547609557 85.55672717724181,31.952047073647254 85.52307699709974,31.85386271964001 85.49391126260898,31.781118855165143 85.46081091532797,31.696451851849908 85.44610760032104,31.673496419360074 85.42662719003927,31.662711904798428 85.38268957468563,31.578660065663286 85.33692794136878,31.488201588449222 85.28898810251384,31.388476707992016 85.25061773863021,31.30760095937931 85.2107124628677,31.230065330299915 85.18366386371045,31.178013402947837 85.15696501766088,31.141257217076333 85.10959378781062,31.063440362820113 85.05748768871284,30.97651254734438 85.00968698914608,30.896867581290255 84.94029286007513,30.778646214170404 84.87259929031518,30.64146881719526 84.82221353305609,30.539010170944525 84.77014318721422,30.429060753995778 84.78660535423136,30.464227950765782 84.80284247347629,30.516455962858185 84.73415640692697,30.434584915921814 84.66347725573318,30.348782069819926 84.59310918423299,30.262499207721802 84.52578677462535,30.179380255879874 84.45960036891955,30.098297408470923 84.38987324333841,30.011176583147034 84.3239505042807,29.927794836418908 84.2614636229397,29.850221970732562 84.18931342413794,29.75735555202385 84.12092560241554,29.664816171789436 84.06529745768574,29.59265722477249 84.00050495876566,29.507206619989848 83.93670074197033,29.41790183573158 83.88384240429455,29.34643577173881 83.83092283355211,29.274941152058744 83.77450604397924,29.197362005823557 83.7172732887094,29.116250033845876 83.66417282990616,29.039656964129485 83.52573592106323,28.810875198503236 83.42976471429635,28.556611171880277 83.39639765822064,28.45232575116717 83.3695854780873,28.357921563928816 83.35060562803721,28.287784165094806 83.39555013524388,28.362912096449232 83.44288567388583,28.437599013478874 83.39867111776597,28.362304462615125 83.36008954511503,28.290635600649008 83.33017430771221,28.233030664609796 83.27629283699727,28.145501277896873 83.22402723208204,28.054201135851905 83.17222460751934,27.96428642153479 83.11730719655195,27.865248934698617 83.06948695773023,27.774155967225926 83.02143181251492,27.68097676342445 82.97594169087446,27.590022225241054 82.93586596327296,27.505829264282074 82.89777508107103,27.42598270147813 82.85268529208543,27.33897745091286 82.80186206490269,27.244574898086853 82.74754924471291,27.14527478474159 82.70278365566382,27.05661544908309 82.66106703009024,26.97626785147226 82.70069861554502,26.98552115175701 82.72670424002999,26.996061504805535 82.65460918528932,26.924067338110557 82.57946402028311,26.85221238489713 82.50950762037543,26.78427609878508 82.43657229669981,26.71839667698005 82.35088431877496,26.642827094441518 82.27484237094008,26.574582728581824 82.20650505841398,26.515324595063678 82.13704377711657,26.45828672683918 82.06280350116789,26.400800385000714 81.98959413315016,26.34591138259252 81.91408034214786,26.29287480777571 81.83826575430462,26.241008425345022 81.6662458519802,26.118554794503346 81.5222530042302,25.969766585904633 81.46299385025036,25.910805925450955 81.39348407674612,25.84289301652838 81.32840391136999,25.779889308431823 81.26168620058115,25.71888091145557 81.1872130530938,25.649739596046775 81.10912791501514,25.57675857610427 81.02683320955725,25.497031451275713 80.9558813562055,25.426414613027372 80.88729195882618,25.36020929256985 80.8126864712512,25.285799973455727 80.74841222456531,25.220889095047813 80.68795303084842,25.161970070982726 80.62071924822673,25.096265822133816 80.54997840986525,25.02614525551091 80.48779929287602,24.963141083135927 80.42503873053312,24.901678980085133 80.35007929570014,24.827174474403694 80.27858117110462,24.753206413885703 80.20707836979825,24.67893308906238 80.138970415629,24.605254516310712 80.0735819502166,24.534968056742137 80.00662984823497,24.461914661179513 79.94114465830515,24.390378880110724 79.87743820277824,24.32023075491255 79.81280698116745,24.250244813833152 79.74182039412277,24.174101719126206 79.66812813987627,24.094091115983282 79.58789419160972,24.006183716193707 79.5180096341501,23.924277406904856 79.44921705740198,23.846120462783365 79.37454236835023,23.75884382574086 79.31045417166848,23.68225357892747 79.24882224527089,23.610595861234145 79.181694094278,23.534553170657816 79.10902012245319,23.452718042363383 79.04047898555939,23.374178857405692 78.97894771288236,23.305282732093584 78.90944550319001,23.230665064228532 78.84018802486074,23.155019602504968 78.77056043557187,23.08161358759774 78.69215952070581,22.99748010523969 78.61908636550699,22.916830205337558 78.54495276352665,22.835736898569138 78.47155053069632,22.752335304471185 78.40678289339654,22.679449069592863 78.34421344141663,22.61060532879834 78.27668090815658,22.537174538322144 78.20755443952189,22.46050250447409 78.12964308497608,22.372768179535893 78.05130983547964,22.276911240275226 77.98149871499098,22.188366908651425 77.91718132697129,22.103487396034055" stroke="none" stroke-width="0.3" /></g></svg>